M48
;Layer_Color=9474304
;FILE_FORMAT=4:4
METRIC,LZ
;TYPE=PLATED
T1F00S00C0.5000
T2F00S00C0.6000
T3F00S00C0.9000
T4F00S00C0.9500
T5F00S00C1.0000
T6F00S00C1.1000
T7F00S00C1.2000
%
T01
X008825Y0066715
X009625
X01075Y006825
Y007625
X011675Y007375
X0072755Y0080685
X0080755
X008736Y010037
X009536
X01075Y009575
Y008775
X011675Y008975
Y009775
Y008175
T02
X0090685Y0076685
X0093685
X006823Y007624
Y0073065
X006323
Y007624
X0061325Y0080685
Y0083225
Y0085765
Y0088305
X0069525
Y0085765
Y0083225
Y0080685
X007425Y008575
X007925
X0084185Y0085685
Y0080685
X0090685Y0090685
X0093685
T03
X011073Y007925
X0112
X011327
Y009375
X0112
X011073
T04
X008736Y0071795
X009736
X0103235Y0070685
Y0080685
X0103235Y008775
Y009775
X009609Y009529
X008609
T05
X0121Y007596
Y00785
X0053705Y0080685
Y0083225
Y0085765
Y0088305
X0121Y008796
Y00905
Y009304
Y008104
T06
X012171Y0066
X012425
X012679
T07
X00537025Y0069255
X00537075Y0071795
M30
