G04*
G04 #@! TF.GenerationSoftware,Altium Limited,Altium Designer,23.6.0 (18)*
G04*
G04 Layer_Color=65535*
%FSLAX44Y44*%
%MOMM*%
G71*
G04*
G04 #@! TF.SameCoordinates,9FFC46F5-938B-46D8-84A6-C8BF988D1DB5*
G04*
G04*
G04 #@! TF.FilePolarity,Positive*
G04*
G01*
G75*
%ADD10C,0.6000*%
%ADD11C,0.2500*%
%ADD12C,0.0500*%
%ADD13C,0.1000*%
%ADD14C,0.2540*%
%ADD15C,0.2000*%
%ADD16C,0.1270*%
D10*
X306176Y501546D02*
G03*
X306176Y501546I-3000J0D01*
G01*
X546000Y122000D02*
G03*
X546000Y122000I-3000J0D01*
G01*
X700000Y1147500D02*
G03*
X700000Y1147500I-3000J0D01*
G01*
D11*
X277909Y497303D02*
G03*
X277909Y497303I-1250J0D01*
G01*
X548750Y414356D02*
G03*
X548750Y414356I-1250J0D01*
G01*
X811250Y265500D02*
G03*
X811250Y265500I-1250J0D01*
G01*
X753250Y400906D02*
G03*
X753250Y400906I-1250J0D01*
G01*
X811250Y550500D02*
G03*
X811250Y550500I-1250J0D01*
G01*
Y655500D02*
G03*
X811250Y655500I-1250J0D01*
G01*
Y840500D02*
G03*
X811250Y840500I-1250J0D01*
G01*
X754350Y685000D02*
G03*
X754350Y685000I-1250J0D01*
G01*
X548750Y540096D02*
G03*
X548750Y540096I-1250J0D01*
G01*
Y613231D02*
G03*
X548750Y613231I-1250J0D01*
G01*
X554250Y725500D02*
G03*
X554250Y725500I-1250J0D01*
G01*
X552965Y901550D02*
G03*
X552965Y901550I-1250J0D01*
G01*
Y837334D02*
G03*
X552965Y837334I-1250J0D01*
G01*
X113750Y346500D02*
G03*
X113750Y346500I-1250J0D01*
G01*
X163232Y570950D02*
G03*
X163232Y570950I-1250J0D01*
G01*
X291250Y878000D02*
G03*
X291250Y878000I-1250J0D01*
G01*
X273750Y992000D02*
G03*
X273750Y992000I-1250J0D01*
G01*
X285650Y1210000D02*
G03*
X285650Y1210000I-1250J0D01*
G01*
X564500Y109700D02*
G03*
X564500Y109700I-1250J0D01*
G01*
X811250Y943000D02*
G03*
X811250Y943000I-1250J0D01*
G01*
X662250Y1172500D02*
G03*
X662250Y1172500I-1250J0D01*
G01*
X677000Y1160050D02*
G03*
X677000Y1160050I-1250J0D01*
G01*
X753250Y975000D02*
G03*
X753250Y975000I-1250J0D01*
G01*
X549250Y324000D02*
G03*
X549250Y324000I-1250J0D01*
G01*
X356500Y933500D02*
G03*
X356500Y933500I-1250J0D01*
G01*
X1269250Y1167000D02*
G03*
X1269250Y1167000I-1250J0D01*
G01*
X811250Y373000D02*
G03*
X811250Y373000I-1250J0D01*
G01*
D12*
X1570100Y1220000D02*
G03*
X1570100Y1220000I-20100J0D01*
G01*
X1400100Y300000D02*
G03*
X1400100Y300000I-20100J0D01*
G01*
X1020100Y1090000D02*
G03*
X1020100Y1090000I-20100J0D01*
G01*
X760100Y470000D02*
G03*
X760100Y470000I-20100J0D01*
G01*
Y750000D02*
G03*
X760100Y750000I-20100J0D01*
G01*
X70100Y1210000D02*
G03*
X70100Y1210000I-20100J0D01*
G01*
Y50000D02*
G03*
X70100Y50000I-20100J0D01*
G01*
X1580100Y40000D02*
G03*
X1580100Y40000I-20100J0D01*
G01*
D13*
X126879Y1070871D02*
G03*
X126879Y1070871I-500J0D01*
G01*
Y1015871D02*
G03*
X126879Y1015871I-500J0D01*
G01*
D14*
X172750Y126750D02*
G03*
X172750Y126750I-250J0D01*
G01*
X205250D02*
G03*
X205250Y126750I-250J0D01*
G01*
X140250D02*
G03*
X140250Y126750I-250J0D01*
G01*
X544000Y1076500D02*
X569000D01*
X544000D02*
Y1196500D01*
X569000D01*
X619000Y1076500D02*
X644000D01*
Y1196500D01*
X619000D02*
X644000D01*
X918379Y893424D02*
Y900089D01*
X916712Y901755D01*
X913380D01*
X911714Y900089D01*
Y893424D01*
X913380Y891758D01*
X916712D01*
X915046Y895090D02*
X918379Y891758D01*
X916712D02*
X918379Y893424D01*
X926709Y891758D02*
Y901755D01*
X921711Y896756D01*
X928375D01*
X142540Y272540D02*
Y287775D01*
X150157D01*
X152697Y285236D01*
Y280158D01*
X150157Y277618D01*
X142540D01*
X147618D02*
X152697Y272540D01*
X167932Y285236D02*
X165393Y287775D01*
X160314D01*
X157775Y285236D01*
Y282697D01*
X160314Y280158D01*
X165393D01*
X167932Y277618D01*
Y275079D01*
X165393Y272540D01*
X160314D01*
X157775Y275079D01*
X173010Y287775D02*
X183167D01*
X178088D01*
Y272540D01*
X207775Y92460D02*
X192540D01*
Y82303D01*
X207775Y67068D02*
Y77225D01*
X192540D01*
Y67068D01*
X200158Y77225D02*
Y72147D01*
X207775Y61990D02*
X192540D01*
Y54372D01*
X195079Y51833D01*
X205236D01*
X207775Y54372D01*
Y61990D01*
X127540Y975157D02*
X137697D01*
X132618Y980236D02*
Y970079D01*
X142775Y980236D02*
X145314Y982775D01*
X150393D01*
X152932Y980236D01*
Y977697D01*
X150393Y975157D01*
X147853D01*
X150393D01*
X152932Y972618D01*
Y970079D01*
X150393Y967540D01*
X145314D01*
X142775Y970079D01*
X158010Y967540D02*
Y970079D01*
X160549D01*
Y967540D01*
X158010D01*
X170706Y980236D02*
X173245Y982775D01*
X178324D01*
X180863Y980236D01*
Y977697D01*
X178324Y975157D01*
X175784D01*
X178324D01*
X180863Y972618D01*
Y970079D01*
X178324Y967540D01*
X173245D01*
X170706Y970079D01*
X185941Y982775D02*
Y972618D01*
X191019Y967540D01*
X196098Y972618D01*
Y982775D01*
X95158Y1092460D02*
Y1082303D01*
X100236Y1087382D02*
X90079D01*
X87540Y1077225D02*
Y1072147D01*
Y1074686D01*
X102775D01*
X100236Y1077225D01*
X87540Y1054372D02*
Y1064529D01*
X97697Y1054372D01*
X100236D01*
X102775Y1056911D01*
Y1061990D01*
X100236Y1064529D01*
X102775Y1049294D02*
X92618D01*
X87540Y1044216D01*
X92618Y1039137D01*
X102775D01*
X533335Y760832D02*
X531669Y762498D01*
X528337D01*
X526671Y760832D01*
Y754168D01*
X528337Y752502D01*
X531669D01*
X533335Y754168D01*
X543332Y762498D02*
X536668D01*
Y757500D01*
X540000Y759166D01*
X541666D01*
X543332Y757500D01*
Y754168D01*
X541666Y752502D01*
X538334D01*
X536668Y754168D01*
X546665Y760832D02*
X548331Y762498D01*
X551663D01*
X553329Y760832D01*
Y754168D01*
X551663Y752502D01*
X548331D01*
X546665Y754168D01*
Y760832D01*
X368335Y813332D02*
X366669Y814998D01*
X363337D01*
X361671Y813332D01*
Y806668D01*
X363337Y805002D01*
X366669D01*
X368335Y806668D01*
X376666Y805002D02*
Y814998D01*
X371668Y810000D01*
X378332D01*
X381665Y806668D02*
X383331Y805002D01*
X386663D01*
X388329Y806668D01*
Y813332D01*
X386663Y814998D01*
X383331D01*
X381665Y813332D01*
Y811666D01*
X383331Y810000D01*
X388329D01*
X508337Y692502D02*
Y702498D01*
X513335D01*
X515002Y700832D01*
Y697500D01*
X513335Y695834D01*
X508337D01*
X511669D02*
X515002Y692502D01*
X524998Y702498D02*
X521666Y700832D01*
X518334Y697500D01*
Y694168D01*
X520000Y692502D01*
X523332D01*
X524998Y694168D01*
Y695834D01*
X523332Y697500D01*
X518334D01*
X528331Y692502D02*
X531663D01*
X529997D01*
Y702498D01*
X528331Y700832D01*
X566671Y250002D02*
Y259998D01*
X571669D01*
X573335Y258332D01*
Y255000D01*
X571669Y253334D01*
X566671D01*
X570003D02*
X573335Y250002D01*
X583332Y259998D02*
X580000Y258332D01*
X576668Y255000D01*
Y251668D01*
X578334Y250002D01*
X581666D01*
X583332Y251668D01*
Y253334D01*
X581666Y255000D01*
X576668D01*
X586665Y259998D02*
X593329D01*
Y258332D01*
X586665Y251668D01*
Y250002D01*
X584171Y567502D02*
Y577498D01*
X589169D01*
X590835Y575832D01*
Y572500D01*
X589169Y570834D01*
X584171D01*
X587503D02*
X590835Y567502D01*
X600832Y577498D02*
X597500Y575832D01*
X594168Y572500D01*
Y569168D01*
X595834Y567502D01*
X599166D01*
X600832Y569168D01*
Y570834D01*
X599166Y572500D01*
X594168D01*
X610829Y577498D02*
X607497Y575832D01*
X604165Y572500D01*
Y569168D01*
X605831Y567502D01*
X609163D01*
X610829Y569168D01*
Y570834D01*
X609163Y572500D01*
X604165D01*
X566671Y445002D02*
Y454998D01*
X571669D01*
X573335Y453332D01*
Y450000D01*
X571669Y448334D01*
X566671D01*
X570003D02*
X573335Y445002D01*
X583332Y454998D02*
X580000Y453332D01*
X576668Y450000D01*
Y446668D01*
X578334Y445002D01*
X581666D01*
X583332Y446668D01*
Y448334D01*
X581666Y450000D01*
X576668D01*
X593329Y454998D02*
X586665D01*
Y450000D01*
X589997Y451666D01*
X591663D01*
X593329Y450000D01*
Y446668D01*
X591663Y445002D01*
X588331D01*
X586665Y446668D01*
X517760Y351246D02*
Y361243D01*
X522758D01*
X524425Y359577D01*
Y356244D01*
X522758Y354578D01*
X517760D01*
X521092D02*
X524425Y351246D01*
X534421Y361243D02*
X531089Y359577D01*
X527757Y356244D01*
Y352912D01*
X529423Y351246D01*
X532755D01*
X534421Y352912D01*
Y354578D01*
X532755Y356244D01*
X527757D01*
X542752Y351246D02*
Y361243D01*
X537754Y356244D01*
X544418D01*
X499171Y545002D02*
Y554998D01*
X504169D01*
X505835Y553332D01*
Y550000D01*
X504169Y548334D01*
X499171D01*
X502503D02*
X505835Y545002D01*
X515832Y554998D02*
X512500Y553332D01*
X509168Y550000D01*
Y546668D01*
X510834Y545002D01*
X514166D01*
X515832Y546668D01*
Y548334D01*
X514166Y550000D01*
X509168D01*
X519165Y553332D02*
X520831Y554998D01*
X524163D01*
X525829Y553332D01*
Y551666D01*
X524163Y550000D01*
X522497D01*
X524163D01*
X525829Y548334D01*
Y546668D01*
X524163Y545002D01*
X520831D01*
X519165Y546668D01*
X514171Y435002D02*
Y444998D01*
X519169D01*
X520835Y443332D01*
Y440000D01*
X519169Y438334D01*
X514171D01*
X517503D02*
X520835Y435002D01*
X530832Y444998D02*
X527500Y443332D01*
X524168Y440000D01*
Y436668D01*
X525834Y435002D01*
X529166D01*
X530832Y436668D01*
Y438334D01*
X529166Y440000D01*
X524168D01*
X540829Y435002D02*
X534165D01*
X540829Y441666D01*
Y443332D01*
X539163Y444998D01*
X535831D01*
X534165Y443332D01*
X496671Y617502D02*
Y627498D01*
X501669D01*
X503335Y625832D01*
Y622500D01*
X501669Y620834D01*
X496671D01*
X500003D02*
X503335Y617502D01*
X513332Y627498D02*
X506668D01*
Y622500D01*
X510000Y624166D01*
X511666D01*
X513332Y622500D01*
Y619168D01*
X511666Y617502D01*
X508334D01*
X506668Y619168D01*
X523329Y617502D02*
X516665D01*
X523329Y624166D01*
Y625832D01*
X521663Y627498D01*
X518331D01*
X516665Y625832D01*
X555834Y674168D02*
Y680832D01*
X554168Y682498D01*
X550835D01*
X549169Y680832D01*
Y674168D01*
X550835Y672502D01*
X554168D01*
X552502Y675834D02*
X555834Y672502D01*
X554168D02*
X555834Y674168D01*
X559166D02*
X560832Y672502D01*
X564165D01*
X565831Y674168D01*
Y680832D01*
X564165Y682498D01*
X560832D01*
X559166Y680832D01*
Y679166D01*
X560832Y677500D01*
X565831D01*
X549824Y335894D02*
Y342559D01*
X548158Y344225D01*
X544826D01*
X543160Y342559D01*
Y335894D01*
X544826Y334228D01*
X548158D01*
X546492Y337560D02*
X549824Y334228D01*
X548158D02*
X549824Y335894D01*
X553157Y334228D02*
X556489D01*
X554823D01*
Y344225D01*
X553157Y342559D01*
X568152Y344225D02*
X561487D01*
Y339226D01*
X564820Y340892D01*
X566486D01*
X568152Y339226D01*
Y335894D01*
X566486Y334228D01*
X563154D01*
X561487Y335894D01*
X549169Y491668D02*
Y498332D01*
X547502Y499998D01*
X544170D01*
X542504Y498332D01*
Y491668D01*
X544170Y490002D01*
X547502D01*
X545836Y493334D02*
X549169Y490002D01*
X547502D02*
X549169Y491668D01*
X552501Y490002D02*
X555833D01*
X554167D01*
Y499998D01*
X552501Y498332D01*
X565830Y490002D02*
Y499998D01*
X560831Y495000D01*
X567496D01*
X561669Y366668D02*
Y373332D01*
X560002Y374998D01*
X556670D01*
X555004Y373332D01*
Y366668D01*
X556670Y365002D01*
X560002D01*
X558336Y368334D02*
X561669Y365002D01*
X560002D02*
X561669Y366668D01*
X565001Y365002D02*
X568333D01*
X566667D01*
Y374998D01*
X565001Y373332D01*
X573331D02*
X574998Y374998D01*
X578330D01*
X579996Y373332D01*
Y371666D01*
X578330Y370000D01*
X576664D01*
X578330D01*
X579996Y368334D01*
Y366668D01*
X578330Y365002D01*
X574998D01*
X573331Y366668D01*
X556669Y789168D02*
Y795832D01*
X555002Y797498D01*
X551670D01*
X550004Y795832D01*
Y789168D01*
X551670Y787502D01*
X555002D01*
X553336Y790834D02*
X556669Y787502D01*
X555002D02*
X556669Y789168D01*
X560001Y787502D02*
X563333D01*
X561667D01*
Y797498D01*
X560001Y795832D01*
X574996Y787502D02*
X568331D01*
X574996Y794166D01*
Y795832D01*
X573330Y797498D01*
X569998D01*
X568331Y795832D01*
X520835Y574168D02*
Y580832D01*
X519169Y582498D01*
X515836D01*
X514170Y580832D01*
Y574168D01*
X515836Y572502D01*
X519169D01*
X517502Y575834D02*
X520835Y572502D01*
X519169D02*
X520835Y574168D01*
X524167Y572502D02*
X527499D01*
X525833D01*
Y582498D01*
X524167Y580832D01*
X532498Y572502D02*
X535830D01*
X534164D01*
Y582498D01*
X532498Y580832D01*
X541669Y851668D02*
Y858332D01*
X540002Y859998D01*
X536670D01*
X535004Y858332D01*
Y851668D01*
X536670Y850002D01*
X540002D01*
X538336Y853334D02*
X541669Y850002D01*
X540002D02*
X541669Y851668D01*
X545001Y850002D02*
X548333D01*
X546667D01*
Y859998D01*
X545001Y858332D01*
X553331D02*
X554998Y859998D01*
X558330D01*
X559996Y858332D01*
Y851668D01*
X558330Y850002D01*
X554998D01*
X553331Y851668D01*
Y858332D01*
X1283376Y1198478D02*
Y1205143D01*
X1281710Y1206809D01*
X1278378D01*
X1276712Y1205143D01*
Y1198478D01*
X1278378Y1196812D01*
X1281710D01*
X1280044Y1200144D02*
X1283376Y1196812D01*
X1281710D02*
X1283376Y1198478D01*
X1286709Y1196812D02*
X1290041D01*
X1288375D01*
Y1206809D01*
X1286709Y1205143D01*
X140002Y423335D02*
X141668D01*
X145000Y426668D01*
X141668Y430000D01*
X140002D01*
X145000Y426668D02*
X149998D01*
Y433332D02*
Y436665D01*
Y434998D01*
X140002D01*
X141668Y433332D01*
X111669Y634998D02*
Y626668D01*
X113336Y625002D01*
X116668D01*
X118334Y626668D01*
Y634998D01*
X128331D02*
X121666D01*
Y630000D01*
X124998Y631666D01*
X126664D01*
X128331Y630000D01*
Y626668D01*
X126664Y625002D01*
X123332D01*
X121666Y626668D01*
X331008Y506544D02*
Y498214D01*
X332674Y496548D01*
X336007D01*
X337673Y498214D01*
Y506544D01*
X346003Y496548D02*
Y506544D01*
X341005Y501546D01*
X347669D01*
X532002Y138669D02*
X540332D01*
X541998Y140336D01*
Y143668D01*
X540332Y145334D01*
X532002D01*
X533668Y148666D02*
X532002Y150332D01*
Y153665D01*
X533668Y155331D01*
X535334D01*
X537000Y153665D01*
Y151998D01*
Y153665D01*
X538666Y155331D01*
X540332D01*
X541998Y153665D01*
Y150332D01*
X540332Y148666D01*
X342754Y956365D02*
Y948034D01*
X344420Y946368D01*
X347752D01*
X349418Y948034D01*
Y956365D01*
X359415Y946368D02*
X352751D01*
X359415Y953033D01*
Y954699D01*
X357749Y956365D01*
X354417D01*
X352751Y954699D01*
X698002Y1115835D02*
X706332D01*
X707998Y1117502D01*
Y1120834D01*
X706332Y1122500D01*
X698002D01*
X707998Y1125832D02*
Y1129165D01*
Y1127498D01*
X698002D01*
X699668Y1125832D01*
X150002Y328332D02*
X148336Y329998D01*
X145003D01*
X143337Y328332D01*
Y326666D01*
X145003Y325000D01*
X148336D01*
X150002Y323334D01*
Y321668D01*
X148336Y320002D01*
X145003D01*
X143337Y321668D01*
X153334Y329998D02*
Y320002D01*
X156666Y323334D01*
X159998Y320002D01*
Y329998D01*
X163331Y320002D02*
X166663D01*
X164997D01*
Y329998D01*
X163331Y328332D01*
X211671Y187502D02*
Y197498D01*
X216669D01*
X218335Y195832D01*
Y192500D01*
X216669Y190834D01*
X211671D01*
X215003D02*
X218335Y187502D01*
X221668Y197498D02*
X228332D01*
Y195832D01*
X221668Y189168D01*
Y187502D01*
X231665Y197498D02*
X238329D01*
Y195832D01*
X231665Y189168D01*
Y187502D01*
X46671Y610002D02*
Y619998D01*
X51669D01*
X53335Y618332D01*
Y615000D01*
X51669Y613334D01*
X46671D01*
X50003D02*
X53335Y610002D01*
X56668Y619998D02*
X63332D01*
Y618332D01*
X56668Y611668D01*
Y610002D01*
X66665Y611668D02*
X68331Y610002D01*
X71663D01*
X73329Y611668D01*
Y618332D01*
X71663Y619998D01*
X68331D01*
X66665Y618332D01*
Y616666D01*
X68331Y615000D01*
X73329D01*
X89171Y187502D02*
Y197498D01*
X94169D01*
X95836Y195832D01*
Y192500D01*
X94169Y190834D01*
X89171D01*
X92503D02*
X95836Y187502D01*
X99168Y197498D02*
X105832D01*
Y195832D01*
X99168Y189168D01*
Y187502D01*
X115829Y197498D02*
X112497Y195832D01*
X109164Y192500D01*
Y189168D01*
X110831Y187502D01*
X114163D01*
X115829Y189168D01*
Y190834D01*
X114163Y192500D01*
X109164D01*
X149171Y217502D02*
Y227498D01*
X154169D01*
X155836Y225832D01*
Y222500D01*
X154169Y220834D01*
X149171D01*
X152503D02*
X155836Y217502D01*
X159168Y227498D02*
X165832D01*
Y225832D01*
X159168Y219168D01*
Y217502D01*
X175829Y227498D02*
X169165D01*
Y222500D01*
X172497Y224166D01*
X174163D01*
X175829Y222500D01*
Y219168D01*
X174163Y217502D01*
X170831D01*
X169165Y219168D01*
X576671Y752502D02*
Y762498D01*
X581669D01*
X583335Y760832D01*
Y757500D01*
X581669Y755834D01*
X576671D01*
X580003D02*
X583335Y752502D01*
X593332Y762498D02*
X586668D01*
Y757500D01*
X590000Y759166D01*
X591666D01*
X593332Y757500D01*
Y754168D01*
X591666Y752502D01*
X588334D01*
X586668Y754168D01*
X601663Y752502D02*
Y762498D01*
X596665Y757500D01*
X603329D01*
X111671Y690002D02*
Y699998D01*
X116669D01*
X118336Y698332D01*
Y695000D01*
X116669Y693334D01*
X111671D01*
X115003D02*
X118336Y690002D01*
X128332Y699998D02*
X125000Y698332D01*
X121668Y695000D01*
Y691668D01*
X123334Y690002D01*
X126666D01*
X128332Y691668D01*
Y693334D01*
X126666Y695000D01*
X121668D01*
X131664Y698332D02*
X133331Y699998D01*
X136663D01*
X138329Y698332D01*
Y696666D01*
X136663Y695000D01*
X138329Y693334D01*
Y691668D01*
X136663Y690002D01*
X133331D01*
X131664Y691668D01*
Y693334D01*
X133331Y695000D01*
X131664Y696666D01*
Y698332D01*
X133331Y695000D02*
X136663D01*
X96671Y519684D02*
Y529681D01*
X101669D01*
X103336Y528015D01*
Y524683D01*
X101669Y523016D01*
X96671D01*
X100003D02*
X103336Y519684D01*
X106668Y529681D02*
X113332D01*
Y528015D01*
X106668Y521350D01*
Y519684D01*
X116664Y528015D02*
X118331Y529681D01*
X121663D01*
X123329Y528015D01*
Y526349D01*
X121663Y524683D01*
X123329Y523016D01*
Y521350D01*
X121663Y519684D01*
X118331D01*
X116664Y521350D01*
Y523016D01*
X118331Y524683D01*
X116664Y526349D01*
Y528015D01*
X118331Y524683D02*
X121663D01*
X304998Y361671D02*
X295002D01*
Y366669D01*
X296668Y368335D01*
X300000D01*
X301666Y366669D01*
Y361671D01*
Y365003D02*
X304998Y368335D01*
X295002Y371668D02*
Y378332D01*
X296668D01*
X303332Y371668D01*
X304998D01*
Y386663D02*
X295002D01*
X300000Y381665D01*
Y388329D01*
X284998Y361671D02*
X275002D01*
Y366669D01*
X276668Y368335D01*
X280000D01*
X281666Y366669D01*
Y361671D01*
Y365003D02*
X284998Y368335D01*
X275002Y371668D02*
Y378332D01*
X276668D01*
X283332Y371668D01*
X284998D01*
X276668Y381665D02*
X275002Y383331D01*
Y386663D01*
X276668Y388329D01*
X278334D01*
X280000Y386663D01*
Y384997D01*
Y386663D01*
X281666Y388329D01*
X283332D01*
X284998Y386663D01*
Y383331D01*
X283332Y381665D01*
X239998Y331671D02*
X230002D01*
Y336669D01*
X231668Y338335D01*
X235000D01*
X236666Y336669D01*
Y331671D01*
Y335003D02*
X239998Y338335D01*
X230002Y341668D02*
Y348332D01*
X231668D01*
X238332Y341668D01*
X239998D01*
Y358329D02*
Y351665D01*
X233334Y358329D01*
X231668D01*
X230002Y356663D01*
Y353331D01*
X231668Y351665D01*
X464998Y363337D02*
X455002D01*
Y368335D01*
X456668Y370002D01*
X460000D01*
X461666Y368335D01*
Y363337D01*
Y366669D02*
X464998Y370002D01*
X455002Y373334D02*
Y379998D01*
X456668D01*
X463332Y373334D01*
X464998D01*
Y383331D02*
Y386663D01*
Y384997D01*
X455002D01*
X456668Y383331D01*
X419998Y361671D02*
X410002D01*
Y366669D01*
X411668Y368335D01*
X415000D01*
X416666Y366669D01*
Y361671D01*
Y365003D02*
X419998Y368335D01*
X410002Y371668D02*
Y378332D01*
X411668D01*
X418332Y371668D01*
X419998D01*
X411668Y381665D02*
X410002Y383331D01*
Y386663D01*
X411668Y388329D01*
X418332D01*
X419998Y386663D01*
Y383331D01*
X418332Y381665D01*
X411668D01*
X379998Y361671D02*
X370002D01*
Y366669D01*
X371668Y368335D01*
X375000D01*
X376666Y366669D01*
Y361671D01*
Y365003D02*
X379998Y368335D01*
X370002Y378332D02*
X371668Y375000D01*
X375000Y371668D01*
X378332D01*
X379998Y373334D01*
Y376666D01*
X378332Y378332D01*
X376666D01*
X375000Y376666D01*
Y371668D01*
X378332Y381665D02*
X379998Y383331D01*
Y386663D01*
X378332Y388329D01*
X371668D01*
X370002Y386663D01*
Y383331D01*
X371668Y381665D01*
X373334D01*
X375000Y383331D01*
Y388329D01*
X334998Y634171D02*
X325002D01*
Y639169D01*
X326668Y640835D01*
X330000D01*
X331666Y639169D01*
Y634171D01*
Y637503D02*
X334998Y640835D01*
X325002Y650832D02*
X326668Y647500D01*
X330000Y644168D01*
X333332D01*
X334998Y645834D01*
Y649166D01*
X333332Y650832D01*
X331666D01*
X330000Y649166D01*
Y644168D01*
X326668Y654165D02*
X325002Y655831D01*
Y659163D01*
X326668Y660829D01*
X333332D01*
X334998Y659163D01*
Y655831D01*
X333332Y654165D01*
X326668D01*
X292498Y669171D02*
X282502D01*
Y674169D01*
X284168Y675835D01*
X287500D01*
X289166Y674169D01*
Y669171D01*
Y672503D02*
X292498Y675835D01*
X282502Y685832D02*
Y679168D01*
X287500D01*
X285834Y682500D01*
Y684166D01*
X287500Y685832D01*
X290832D01*
X292498Y684166D01*
Y680834D01*
X290832Y679168D01*
Y689165D02*
X292498Y690831D01*
Y694163D01*
X290832Y695829D01*
X284168D01*
X282502Y694163D01*
Y690831D01*
X284168Y689165D01*
X285834D01*
X287500Y690831D01*
Y695829D01*
X252498Y636671D02*
X242502D01*
Y641669D01*
X244168Y643335D01*
X247500D01*
X249166Y641669D01*
Y636671D01*
Y640003D02*
X252498Y643335D01*
X242502Y653332D02*
Y646668D01*
X247500D01*
X245834Y650000D01*
Y651666D01*
X247500Y653332D01*
X250832D01*
X252498Y651666D01*
Y648334D01*
X250832Y646668D01*
X244168Y656665D02*
X242502Y658331D01*
Y661663D01*
X244168Y663329D01*
X245834D01*
X247500Y661663D01*
X249166Y663329D01*
X250832D01*
X252498Y661663D01*
Y658331D01*
X250832Y656665D01*
X249166D01*
X247500Y658331D01*
X245834Y656665D01*
X244168D01*
X247500Y658331D02*
Y661663D01*
X589171Y827502D02*
Y837498D01*
X594169D01*
X595835Y835832D01*
Y832500D01*
X594169Y830834D01*
X589171D01*
X592503D02*
X595835Y827502D01*
X605832Y837498D02*
X599168D01*
Y832500D01*
X602500Y834166D01*
X604166D01*
X605832Y832500D01*
Y829168D01*
X604166Y827502D01*
X600834D01*
X599168Y829168D01*
X609165Y837498D02*
X615829D01*
Y835832D01*
X609165Y829168D01*
Y827502D01*
X566671Y642502D02*
Y652498D01*
X571669D01*
X573335Y650832D01*
Y647500D01*
X571669Y645834D01*
X566671D01*
X570003D02*
X573335Y642502D01*
X583332Y652498D02*
X576668D01*
Y647500D01*
X580000Y649166D01*
X581666D01*
X583332Y647500D01*
Y644168D01*
X581666Y642502D01*
X578334D01*
X576668Y644168D01*
X593329Y652498D02*
X589997Y650832D01*
X586665Y647500D01*
Y644168D01*
X588331Y642502D01*
X591663D01*
X593329Y644168D01*
Y645834D01*
X591663Y647500D01*
X586665D01*
X571671Y935002D02*
Y944998D01*
X576669D01*
X578335Y943332D01*
Y940000D01*
X576669Y938334D01*
X571671D01*
X575003D02*
X578335Y935002D01*
X588332Y944998D02*
X581668D01*
Y940000D01*
X585000Y941666D01*
X586666D01*
X588332Y940000D01*
Y936668D01*
X586666Y935002D01*
X583334D01*
X581668Y936668D01*
X598329Y944998D02*
X591665D01*
Y940000D01*
X594997Y941666D01*
X596663D01*
X598329Y940000D01*
Y936668D01*
X596663Y935002D01*
X593331D01*
X591665Y936668D01*
X496456Y836418D02*
Y846415D01*
X501454D01*
X503120Y844749D01*
Y841416D01*
X501454Y839750D01*
X496456D01*
X499788D02*
X503120Y836418D01*
X513117Y846415D02*
X506453D01*
Y841416D01*
X509785Y843083D01*
X511451D01*
X513117Y841416D01*
Y838084D01*
X511451Y836418D01*
X508119D01*
X506453Y838084D01*
X516450Y844749D02*
X518116Y846415D01*
X521448D01*
X523114Y844749D01*
Y843083D01*
X521448Y841416D01*
X519782D01*
X521448D01*
X523114Y839750D01*
Y838084D01*
X521448Y836418D01*
X518116D01*
X516450Y838084D01*
X503337Y907502D02*
Y917498D01*
X508335D01*
X510002Y915832D01*
Y912500D01*
X508335Y910834D01*
X503337D01*
X506669D02*
X510002Y907502D01*
X519998Y917498D02*
X513334D01*
Y912500D01*
X516666Y914166D01*
X518332D01*
X519998Y912500D01*
Y909168D01*
X518332Y907502D01*
X515000D01*
X513334Y909168D01*
X523331Y907502D02*
X526663D01*
X524997D01*
Y917498D01*
X523331Y915832D01*
X414171Y712502D02*
Y722498D01*
X419169D01*
X420835Y720832D01*
Y717500D01*
X419169Y715834D01*
X414171D01*
X417503D02*
X420835Y712502D01*
X430832Y722498D02*
X424168D01*
Y717500D01*
X427500Y719166D01*
X429166D01*
X430832Y717500D01*
Y714168D01*
X429166Y712502D01*
X425834D01*
X424168Y714168D01*
X434165Y720832D02*
X435831Y722498D01*
X439163D01*
X440829Y720832D01*
Y714168D01*
X439163Y712502D01*
X435831D01*
X434165Y714168D01*
Y720832D01*
X317498Y684171D02*
X307502D01*
Y689169D01*
X309168Y690835D01*
X312500D01*
X314166Y689169D01*
Y684171D01*
Y687503D02*
X317498Y690835D01*
Y699166D02*
X307502D01*
X312500Y694168D01*
Y700832D01*
X315832Y704165D02*
X317498Y705831D01*
Y709163D01*
X315832Y710829D01*
X309168D01*
X307502Y709163D01*
Y705831D01*
X309168Y704165D01*
X310834D01*
X312500Y705831D01*
Y710829D01*
X251671Y700002D02*
Y709998D01*
X256669D01*
X258335Y708332D01*
Y705000D01*
X256669Y703334D01*
X251671D01*
X255003D02*
X258335Y700002D01*
X266666D02*
Y709998D01*
X261668Y705000D01*
X268332D01*
X271665Y708332D02*
X273331Y709998D01*
X276663D01*
X278329Y708332D01*
Y706666D01*
X276663Y705000D01*
X278329Y703334D01*
Y701668D01*
X276663Y700002D01*
X273331D01*
X271665Y701668D01*
Y703334D01*
X273331Y705000D01*
X271665Y706666D01*
Y708332D01*
X273331Y705000D02*
X276663D01*
X251671Y265002D02*
Y274998D01*
X256669D01*
X258335Y273332D01*
Y270000D01*
X256669Y268334D01*
X251671D01*
X255003D02*
X258335Y265002D01*
X266666D02*
Y274998D01*
X261668Y270000D01*
X268332D01*
X271665Y274998D02*
X278329D01*
Y273332D01*
X271665Y266668D01*
Y265002D01*
X339998Y276671D02*
X330001D01*
Y281669D01*
X331668Y283335D01*
X335000D01*
X336666Y281669D01*
Y276671D01*
Y280003D02*
X339998Y283335D01*
Y291666D02*
X330001D01*
X335000Y286668D01*
Y293332D01*
X330001Y303329D02*
X331668Y299997D01*
X335000Y296665D01*
X338332D01*
X339998Y298331D01*
Y301663D01*
X338332Y303329D01*
X336666D01*
X335000Y301663D01*
Y296665D01*
X296671Y245002D02*
Y254998D01*
X301669D01*
X303335Y253332D01*
Y250000D01*
X301669Y248334D01*
X296671D01*
X300003D02*
X303335Y245002D01*
X311666D02*
Y254998D01*
X306668Y250000D01*
X313332D01*
X323329Y254998D02*
X316665D01*
Y250000D01*
X319997Y251666D01*
X321663D01*
X323329Y250000D01*
Y246668D01*
X321663Y245002D01*
X318331D01*
X316665Y246668D01*
X481671Y285002D02*
Y294998D01*
X486669D01*
X488335Y293332D01*
Y290000D01*
X486669Y288334D01*
X481671D01*
X485003D02*
X488335Y285002D01*
X496666D02*
Y294998D01*
X491668Y290000D01*
X498332D01*
X506663Y285002D02*
Y294998D01*
X501665Y290000D01*
X508329D01*
X441671Y245002D02*
Y254998D01*
X446669D01*
X448335Y253332D01*
Y250000D01*
X446669Y248334D01*
X441671D01*
X445003D02*
X448335Y245002D01*
X456666D02*
Y254998D01*
X451668Y250000D01*
X458332D01*
X461665Y253332D02*
X463331Y254998D01*
X466663D01*
X468329Y253332D01*
Y251666D01*
X466663Y250000D01*
X464997D01*
X466663D01*
X468329Y248334D01*
Y246668D01*
X466663Y245002D01*
X463331D01*
X461665Y246668D01*
X566671Y72502D02*
Y82498D01*
X571669D01*
X573335Y80832D01*
Y77500D01*
X571669Y75834D01*
X566671D01*
X570003D02*
X573335Y72502D01*
X581666D02*
Y82498D01*
X576668Y77500D01*
X583332D01*
X593329Y72502D02*
X586665D01*
X593329Y79166D01*
Y80832D01*
X591663Y82498D01*
X588331D01*
X586665Y80832D01*
X525837Y190002D02*
Y199998D01*
X530835D01*
X532502Y198332D01*
Y195000D01*
X530835Y193334D01*
X525837D01*
X529169D02*
X532502Y190002D01*
X540832D02*
Y199998D01*
X535834Y195000D01*
X542498D01*
X545831Y190002D02*
X549163D01*
X547497D01*
Y199998D01*
X545831Y198332D01*
X599171Y100002D02*
Y109998D01*
X604169D01*
X605835Y108332D01*
Y105000D01*
X604169Y103334D01*
X599171D01*
X602503D02*
X605835Y100002D01*
X614166D02*
Y109998D01*
X609168Y105000D01*
X615832D01*
X619165Y108332D02*
X620831Y109998D01*
X624163D01*
X625829Y108332D01*
Y101668D01*
X624163Y100002D01*
X620831D01*
X619165Y101668D01*
Y108332D01*
X581671Y157502D02*
Y167498D01*
X586669D01*
X588335Y165832D01*
Y162500D01*
X586669Y160834D01*
X581671D01*
X585003D02*
X588335Y157502D01*
X591668Y165832D02*
X593334Y167498D01*
X596666D01*
X598332Y165832D01*
Y164166D01*
X596666Y162500D01*
X595000D01*
X596666D01*
X598332Y160834D01*
Y159168D01*
X596666Y157502D01*
X593334D01*
X591668Y159168D01*
X601665D02*
X603331Y157502D01*
X606663D01*
X608329Y159168D01*
Y165832D01*
X606663Y167498D01*
X603331D01*
X601665Y165832D01*
Y164166D01*
X603331Y162500D01*
X608329D01*
X439998Y306671D02*
X430002D01*
Y311669D01*
X431668Y313335D01*
X435000D01*
X436666Y311669D01*
Y306671D01*
Y310003D02*
X439998Y313335D01*
X431668Y316668D02*
X430002Y318334D01*
Y321666D01*
X431668Y323332D01*
X433334D01*
X435000Y321666D01*
Y320000D01*
Y321666D01*
X436666Y323332D01*
X438332D01*
X439998Y321666D01*
Y318334D01*
X438332Y316668D01*
X431668Y326665D02*
X430002Y328331D01*
Y331663D01*
X431668Y333329D01*
X433334D01*
X435000Y331663D01*
X436666Y333329D01*
X438332D01*
X439998Y331663D01*
Y328331D01*
X438332Y326665D01*
X436666D01*
X435000Y328331D01*
X433334Y326665D01*
X431668D01*
X435000Y328331D02*
Y331663D01*
X396671Y245002D02*
Y254998D01*
X401669D01*
X403335Y253332D01*
Y250000D01*
X401669Y248334D01*
X396671D01*
X400003D02*
X403335Y245002D01*
X406668Y253332D02*
X408334Y254998D01*
X411666D01*
X413332Y253332D01*
Y251666D01*
X411666Y250000D01*
X410000D01*
X411666D01*
X413332Y248334D01*
Y246668D01*
X411666Y245002D01*
X408334D01*
X406668Y246668D01*
X416665Y254998D02*
X423329D01*
Y253332D01*
X416665Y246668D01*
Y245002D01*
X446671Y190002D02*
Y199998D01*
X451669D01*
X453335Y198332D01*
Y195000D01*
X451669Y193334D01*
X446671D01*
X450003D02*
X453335Y190002D01*
X456668Y198332D02*
X458334Y199998D01*
X461666D01*
X463332Y198332D01*
Y196666D01*
X461666Y195000D01*
X460000D01*
X461666D01*
X463332Y193334D01*
Y191668D01*
X461666Y190002D01*
X458334D01*
X456668Y191668D01*
X473329Y199998D02*
X469997Y198332D01*
X466665Y195000D01*
Y191668D01*
X468331Y190002D01*
X471663D01*
X473329Y191668D01*
Y193334D01*
X471663Y195000D01*
X466665D01*
X399171Y162502D02*
Y172498D01*
X404169D01*
X405835Y170832D01*
Y167500D01*
X404169Y165834D01*
X399171D01*
X402503D02*
X405835Y162502D01*
X409168Y170832D02*
X410834Y172498D01*
X414166D01*
X415832Y170832D01*
Y169166D01*
X414166Y167500D01*
X412500D01*
X414166D01*
X415832Y165834D01*
Y164168D01*
X414166Y162502D01*
X410834D01*
X409168Y164168D01*
X425829Y172498D02*
X419165D01*
Y167500D01*
X422497Y169166D01*
X424163D01*
X425829Y167500D01*
Y164168D01*
X424163Y162502D01*
X420831D01*
X419165Y164168D01*
X389998Y271671D02*
X380002D01*
Y276669D01*
X381668Y278335D01*
X385000D01*
X386666Y276669D01*
Y271671D01*
Y275003D02*
X389998Y278335D01*
X381668Y281668D02*
X380002Y283334D01*
Y286666D01*
X381668Y288332D01*
X383334D01*
X385000Y286666D01*
Y285000D01*
Y286666D01*
X386666Y288332D01*
X388332D01*
X389998Y286666D01*
Y283334D01*
X388332Y281668D01*
X389998Y296663D02*
X380002D01*
X385000Y291665D01*
Y298329D01*
X346671Y245002D02*
Y254998D01*
X351669D01*
X353335Y253332D01*
Y250000D01*
X351669Y248334D01*
X346671D01*
X350003D02*
X353335Y245002D01*
X356668Y253332D02*
X358334Y254998D01*
X361666D01*
X363332Y253332D01*
Y251666D01*
X361666Y250000D01*
X360000D01*
X361666D01*
X363332Y248334D01*
Y246668D01*
X361666Y245002D01*
X358334D01*
X356668Y246668D01*
X366665Y253332D02*
X368331Y254998D01*
X371663D01*
X373329Y253332D01*
Y251666D01*
X371663Y250000D01*
X369997D01*
X371663D01*
X373329Y248334D01*
Y246668D01*
X371663Y245002D01*
X368331D01*
X366665Y246668D01*
X644171Y700002D02*
Y709998D01*
X649169D01*
X650835Y708332D01*
Y705000D01*
X649169Y703334D01*
X644171D01*
X647503D02*
X650835Y700002D01*
X654168Y708332D02*
X655834Y709998D01*
X659166D01*
X660832Y708332D01*
Y706666D01*
X659166Y705000D01*
X657500D01*
X659166D01*
X660832Y703334D01*
Y701668D01*
X659166Y700002D01*
X655834D01*
X654168Y701668D01*
X670829Y700002D02*
X664165D01*
X670829Y706666D01*
Y708332D01*
X669163Y709998D01*
X665831D01*
X664165Y708332D01*
X645776Y993866D02*
Y1003863D01*
X650774D01*
X652440Y1002197D01*
Y998864D01*
X650774Y997198D01*
X645776D01*
X649108D02*
X652440Y993866D01*
X655773Y1002197D02*
X657439Y1003863D01*
X660771D01*
X662437Y1002197D01*
Y1000530D01*
X660771Y998864D01*
X659105D01*
X660771D01*
X662437Y997198D01*
Y995532D01*
X660771Y993866D01*
X657439D01*
X655773Y995532D01*
X665770Y993866D02*
X669102D01*
X667436D01*
Y1003863D01*
X665770Y1002197D01*
X654171Y415002D02*
Y424998D01*
X659169D01*
X660835Y423332D01*
Y420000D01*
X659169Y418334D01*
X654171D01*
X657503D02*
X660835Y415002D01*
X664168Y423332D02*
X665834Y424998D01*
X669166D01*
X670832Y423332D01*
Y421666D01*
X669166Y420000D01*
X667500D01*
X669166D01*
X670832Y418334D01*
Y416668D01*
X669166Y415002D01*
X665834D01*
X664168Y416668D01*
X674165Y423332D02*
X675831Y424998D01*
X679163D01*
X680829Y423332D01*
Y416668D01*
X679163Y415002D01*
X675831D01*
X674165Y416668D01*
Y423332D01*
X879171Y292502D02*
Y302498D01*
X884169D01*
X885835Y300832D01*
Y297500D01*
X884169Y295834D01*
X879171D01*
X882503D02*
X885835Y292502D01*
X895832D02*
X889168D01*
X895832Y299166D01*
Y300832D01*
X894166Y302498D01*
X890834D01*
X889168Y300832D01*
X899165Y294168D02*
X900831Y292502D01*
X904163D01*
X905829Y294168D01*
Y300832D01*
X904163Y302498D01*
X900831D01*
X899165Y300832D01*
Y299166D01*
X900831Y297500D01*
X905829D01*
X879171Y397502D02*
Y407498D01*
X884169D01*
X885835Y405832D01*
Y402500D01*
X884169Y400834D01*
X879171D01*
X882503D02*
X885835Y397502D01*
X895832D02*
X889168D01*
X895832Y404166D01*
Y405832D01*
X894166Y407498D01*
X890834D01*
X889168Y405832D01*
X899165D02*
X900831Y407498D01*
X904163D01*
X905829Y405832D01*
Y404166D01*
X904163Y402500D01*
X905829Y400834D01*
Y399168D01*
X904163Y397502D01*
X900831D01*
X899165Y399168D01*
Y400834D01*
X900831Y402500D01*
X899165Y404166D01*
Y405832D01*
X900831Y402500D02*
X904163D01*
X849171Y330002D02*
Y339998D01*
X854169D01*
X855835Y338332D01*
Y335000D01*
X854169Y333334D01*
X849171D01*
X852503D02*
X855835Y330002D01*
X865832D02*
X859168D01*
X865832Y336666D01*
Y338332D01*
X864166Y339998D01*
X860834D01*
X859168Y338332D01*
X869165Y339998D02*
X875829D01*
Y338332D01*
X869165Y331668D01*
Y330002D01*
X839171Y255002D02*
Y264998D01*
X844169D01*
X845835Y263332D01*
Y260000D01*
X844169Y258334D01*
X839171D01*
X842503D02*
X845835Y255002D01*
X855832D02*
X849168D01*
X855832Y261666D01*
Y263332D01*
X854166Y264998D01*
X850834D01*
X849168Y263332D01*
X865829Y264998D02*
X862497Y263332D01*
X859165Y260000D01*
Y256668D01*
X860831Y255002D01*
X864163D01*
X865829Y256668D01*
Y258334D01*
X864163Y260000D01*
X859165D01*
X841671Y440002D02*
Y449998D01*
X846669D01*
X848335Y448332D01*
Y445000D01*
X846669Y443334D01*
X841671D01*
X845003D02*
X848335Y440002D01*
X858332D02*
X851668D01*
X858332Y446666D01*
Y448332D01*
X856666Y449998D01*
X853334D01*
X851668Y448332D01*
X868329Y449998D02*
X861665D01*
Y445000D01*
X864997Y446666D01*
X866663D01*
X868329Y445000D01*
Y441668D01*
X866663Y440002D01*
X863331D01*
X861665Y441668D01*
X846671Y362502D02*
Y372498D01*
X851669D01*
X853335Y370832D01*
Y367500D01*
X851669Y365834D01*
X846671D01*
X850003D02*
X853335Y362502D01*
X863332D02*
X856668D01*
X863332Y369166D01*
Y370832D01*
X861666Y372498D01*
X858334D01*
X856668Y370832D01*
X871663Y362502D02*
Y372498D01*
X866665Y367500D01*
X873329D01*
X793350Y181320D02*
Y191317D01*
X798348D01*
X800014Y189651D01*
Y186318D01*
X798348Y184652D01*
X793350D01*
X796682D02*
X800014Y181320D01*
X810011D02*
X803347D01*
X810011Y187985D01*
Y189651D01*
X808345Y191317D01*
X805013D01*
X803347Y189651D01*
X813344D02*
X815010Y191317D01*
X818342D01*
X820008Y189651D01*
Y187985D01*
X818342Y186318D01*
X816676D01*
X818342D01*
X820008Y184652D01*
Y182986D01*
X818342Y181320D01*
X815010D01*
X813344Y182986D01*
X840848Y181320D02*
Y191317D01*
X845846D01*
X847513Y189651D01*
Y186318D01*
X845846Y184652D01*
X840848D01*
X844180D02*
X847513Y181320D01*
X857509D02*
X850845D01*
X857509Y187985D01*
Y189651D01*
X855843Y191317D01*
X852511D01*
X850845Y189651D01*
X867506Y181320D02*
X860842D01*
X867506Y187985D01*
Y189651D01*
X865840Y191317D01*
X862508D01*
X860842Y189651D01*
X888346Y181320D02*
Y191317D01*
X893344D01*
X895011Y189651D01*
Y186318D01*
X893344Y184652D01*
X888346D01*
X891678D02*
X895011Y181320D01*
X905007D02*
X898343D01*
X905007Y187985D01*
Y189651D01*
X903341Y191317D01*
X900009D01*
X898343Y189651D01*
X908340Y181320D02*
X911672D01*
X910006D01*
Y191317D01*
X908340Y189651D01*
X879171Y575002D02*
Y584998D01*
X884169D01*
X885835Y583332D01*
Y580000D01*
X884169Y578334D01*
X879171D01*
X882503D02*
X885835Y575002D01*
X895832D02*
X889168D01*
X895832Y581666D01*
Y583332D01*
X894166Y584998D01*
X890834D01*
X889168Y583332D01*
X899165D02*
X900831Y584998D01*
X904163D01*
X905829Y583332D01*
Y576668D01*
X904163Y575002D01*
X900831D01*
X899165Y576668D01*
Y583332D01*
X880004Y685002D02*
Y694998D01*
X885002D01*
X886668Y693332D01*
Y690000D01*
X885002Y688334D01*
X880004D01*
X883336D02*
X886668Y685002D01*
X890001D02*
X893333D01*
X891667D01*
Y694998D01*
X890001Y693332D01*
X898332Y686668D02*
X899998Y685002D01*
X903330D01*
X904996Y686668D01*
Y693332D01*
X903330Y694998D01*
X899998D01*
X898332Y693332D01*
Y691666D01*
X899998Y690000D01*
X904996D01*
X852504Y617502D02*
Y627498D01*
X857502D01*
X859168Y625832D01*
Y622500D01*
X857502Y620834D01*
X852504D01*
X855836D02*
X859168Y617502D01*
X862501D02*
X865833D01*
X864167D01*
Y627498D01*
X862501Y625832D01*
X870832D02*
X872498Y627498D01*
X875830D01*
X877496Y625832D01*
Y624166D01*
X875830Y622500D01*
X877496Y620834D01*
Y619168D01*
X875830Y617502D01*
X872498D01*
X870832Y619168D01*
Y620834D01*
X872498Y622500D01*
X870832Y624166D01*
Y625832D01*
X872498Y622500D02*
X875830D01*
X842504Y537502D02*
Y547498D01*
X847502D01*
X849168Y545832D01*
Y542500D01*
X847502Y540834D01*
X842504D01*
X845836D02*
X849168Y537502D01*
X852501D02*
X855833D01*
X854167D01*
Y547498D01*
X852501Y545832D01*
X860832Y547498D02*
X867496D01*
Y545832D01*
X860832Y539168D01*
Y537502D01*
X840004Y720002D02*
Y729998D01*
X845002D01*
X846668Y728332D01*
Y725000D01*
X845002Y723334D01*
X840004D01*
X843336D02*
X846668Y720002D01*
X850001D02*
X853333D01*
X851667D01*
Y729998D01*
X850001Y728332D01*
X864996Y729998D02*
X861664Y728332D01*
X858332Y725000D01*
Y721668D01*
X859998Y720002D01*
X863330D01*
X864996Y721668D01*
Y723334D01*
X863330Y725000D01*
X858332D01*
X845004Y642502D02*
Y652498D01*
X850002D01*
X851669Y650832D01*
Y647500D01*
X850002Y645834D01*
X845004D01*
X848336D02*
X851669Y642502D01*
X855001D02*
X858333D01*
X856667D01*
Y652498D01*
X855001Y650832D01*
X869996Y652498D02*
X863332D01*
Y647500D01*
X866664Y649166D01*
X868330D01*
X869996Y647500D01*
Y644168D01*
X868330Y642502D01*
X864998D01*
X863332Y644168D01*
X660004Y100002D02*
Y109998D01*
X665002D01*
X666668Y108332D01*
Y105000D01*
X665002Y103334D01*
X660004D01*
X663336D02*
X666668Y100002D01*
X670001D02*
X673333D01*
X671667D01*
Y109998D01*
X670001Y108332D01*
X683330Y100002D02*
Y109998D01*
X678332Y105000D01*
X684996D01*
X657504Y160002D02*
Y169998D01*
X662502D01*
X664168Y168332D01*
Y165000D01*
X662502Y163334D01*
X657504D01*
X660836D02*
X664168Y160002D01*
X667501D02*
X670833D01*
X669167D01*
Y169998D01*
X667501Y168332D01*
X675832D02*
X677498Y169998D01*
X680830D01*
X682496Y168332D01*
Y166666D01*
X680830Y165000D01*
X679164D01*
X680830D01*
X682496Y163334D01*
Y161668D01*
X680830Y160002D01*
X677498D01*
X675832Y161668D01*
X880004Y867502D02*
Y877498D01*
X885002D01*
X886668Y875832D01*
Y872500D01*
X885002Y870834D01*
X880004D01*
X883336D02*
X886668Y867502D01*
X890001D02*
X893333D01*
X891667D01*
Y877498D01*
X890001Y875832D01*
X904996Y867502D02*
X898332D01*
X904996Y874166D01*
Y875832D01*
X903330Y877498D01*
X899998D01*
X898332Y875832D01*
X881670Y970002D02*
Y979998D01*
X886669D01*
X888335Y978332D01*
Y975000D01*
X886669Y973334D01*
X881670D01*
X885002D02*
X888335Y970002D01*
X891667D02*
X894999D01*
X893333D01*
Y979998D01*
X891667Y978332D01*
X899998Y970002D02*
X903330D01*
X901664D01*
Y979998D01*
X899998Y978332D01*
X850004Y907502D02*
Y917498D01*
X855002D01*
X856668Y915832D01*
Y912500D01*
X855002Y910834D01*
X850004D01*
X853336D02*
X856668Y907502D01*
X860001D02*
X863333D01*
X861667D01*
Y917498D01*
X860001Y915832D01*
X868332D02*
X869998Y917498D01*
X873330D01*
X874996Y915832D01*
Y909168D01*
X873330Y907502D01*
X869998D01*
X868332Y909168D01*
Y915832D01*
X846669Y830002D02*
Y839998D01*
X851668D01*
X853334Y838332D01*
Y835000D01*
X851668Y833334D01*
X846669D01*
X850002D02*
X853334Y830002D01*
X856666Y831668D02*
X858332Y830002D01*
X861665D01*
X863331Y831668D01*
Y838332D01*
X861665Y839998D01*
X858332D01*
X856666Y838332D01*
Y836666D01*
X858332Y835000D01*
X863331D01*
X844169Y1005002D02*
Y1014998D01*
X849168D01*
X850834Y1013332D01*
Y1010000D01*
X849168Y1008334D01*
X844169D01*
X847502D02*
X850834Y1005002D01*
X854166Y1013332D02*
X855832Y1014998D01*
X859165D01*
X860831Y1013332D01*
Y1011666D01*
X859165Y1010000D01*
X860831Y1008334D01*
Y1006668D01*
X859165Y1005002D01*
X855832D01*
X854166Y1006668D01*
Y1008334D01*
X855832Y1010000D01*
X854166Y1011666D01*
Y1013332D01*
X855832Y1010000D02*
X859165D01*
X849169Y930002D02*
Y939998D01*
X854168D01*
X855834Y938332D01*
Y935000D01*
X854168Y933334D01*
X849169D01*
X852502D02*
X855834Y930002D01*
X859166Y939998D02*
X865831D01*
Y938332D01*
X859166Y931668D01*
Y930002D01*
X186669Y1020002D02*
Y1029998D01*
X191668D01*
X193334Y1028332D01*
Y1025000D01*
X191668Y1023334D01*
X186669D01*
X190002D02*
X193334Y1020002D01*
X203331Y1029998D02*
X199998Y1028332D01*
X196666Y1025000D01*
Y1021668D01*
X198332Y1020002D01*
X201665D01*
X203331Y1021668D01*
Y1023334D01*
X201665Y1025000D01*
X196666D01*
X181669Y1075002D02*
Y1084998D01*
X186668D01*
X188334Y1083332D01*
Y1080000D01*
X186668Y1078334D01*
X181669D01*
X185002D02*
X188334Y1075002D01*
X198331Y1084998D02*
X191666D01*
Y1080000D01*
X194998Y1081666D01*
X196665D01*
X198331Y1080000D01*
Y1076668D01*
X196665Y1075002D01*
X193332D01*
X191666Y1076668D01*
X721669Y1052502D02*
Y1062498D01*
X726668D01*
X728334Y1060832D01*
Y1057500D01*
X726668Y1055834D01*
X721669D01*
X725002D02*
X728334Y1052502D01*
X736665D02*
Y1062498D01*
X731666Y1057500D01*
X738331D01*
X766669Y1082502D02*
Y1092498D01*
X771668D01*
X773334Y1090832D01*
Y1087500D01*
X771668Y1085834D01*
X766669D01*
X770002D02*
X773334Y1082502D01*
X776666Y1090832D02*
X778332Y1092498D01*
X781665D01*
X783331Y1090832D01*
Y1089166D01*
X781665Y1087500D01*
X779998D01*
X781665D01*
X783331Y1085834D01*
Y1084168D01*
X781665Y1082502D01*
X778332D01*
X776666Y1084168D01*
X1252836Y1226784D02*
Y1236781D01*
X1257834D01*
X1259501Y1235115D01*
Y1231782D01*
X1257834Y1230116D01*
X1252836D01*
X1256168D02*
X1259501Y1226784D01*
X1269497D02*
X1262833D01*
X1269497Y1233448D01*
Y1235115D01*
X1267831Y1236781D01*
X1264499D01*
X1262833Y1235115D01*
X695835Y1027502D02*
Y1037498D01*
X700834D01*
X702500Y1035832D01*
Y1032500D01*
X700834Y1030834D01*
X695835D01*
X699168D02*
X702500Y1027502D01*
X705832D02*
X709165D01*
X707498D01*
Y1037498D01*
X705832Y1035832D01*
X918379Y318368D02*
Y325033D01*
X916712Y326699D01*
X913380D01*
X911714Y325033D01*
Y318368D01*
X913380Y316702D01*
X916712D01*
X915046Y320034D02*
X918379Y316702D01*
X916712D02*
X918379Y318368D01*
X921711Y325033D02*
X923377Y326699D01*
X926709D01*
X928375Y325033D01*
Y323367D01*
X926709Y321700D01*
X928375Y320034D01*
Y318368D01*
X926709Y316702D01*
X923377D01*
X921711Y318368D01*
Y320034D01*
X923377Y321700D01*
X921711Y323367D01*
Y325033D01*
X923377Y321700D02*
X926709D01*
X918379Y459084D02*
Y465749D01*
X916712Y467415D01*
X913380D01*
X911714Y465749D01*
Y459084D01*
X913380Y457418D01*
X916712D01*
X915046Y460750D02*
X918379Y457418D01*
X916712D02*
X918379Y459084D01*
X921711Y467415D02*
X928375D01*
Y465749D01*
X921711Y459084D01*
Y457418D01*
X918379Y603356D02*
Y610021D01*
X916712Y611687D01*
X913380D01*
X911714Y610021D01*
Y603356D01*
X913380Y601690D01*
X916712D01*
X915046Y605022D02*
X918379Y601690D01*
X916712D02*
X918379Y603356D01*
X928375Y611687D02*
X925043Y610021D01*
X921711Y606688D01*
Y603356D01*
X923377Y601690D01*
X926709D01*
X928375Y603356D01*
Y605022D01*
X926709Y606688D01*
X921711D01*
X918379Y746104D02*
Y752769D01*
X916712Y754435D01*
X913380D01*
X911714Y752769D01*
Y746104D01*
X913380Y744438D01*
X916712D01*
X915046Y747770D02*
X918379Y744438D01*
X916712D02*
X918379Y746104D01*
X928375Y754435D02*
X921711D01*
Y749436D01*
X925043Y751103D01*
X926709D01*
X928375Y749436D01*
Y746104D01*
X926709Y744438D01*
X923377D01*
X921711Y746104D01*
X918379Y1033632D02*
Y1040297D01*
X916712Y1041963D01*
X913380D01*
X911714Y1040297D01*
Y1033632D01*
X913380Y1031966D01*
X916712D01*
X915046Y1035298D02*
X918379Y1031966D01*
X916712D02*
X918379Y1033632D01*
X921711Y1040297D02*
X923377Y1041963D01*
X926709D01*
X928375Y1040297D01*
Y1038631D01*
X926709Y1036964D01*
X925043D01*
X926709D01*
X928375Y1035298D01*
Y1033632D01*
X926709Y1031966D01*
X923377D01*
X921711Y1033632D01*
X1283376Y1073510D02*
Y1080175D01*
X1281710Y1081841D01*
X1278378D01*
X1276712Y1080175D01*
Y1073510D01*
X1278378Y1071844D01*
X1281710D01*
X1280044Y1075176D02*
X1283376Y1071844D01*
X1281710D02*
X1283376Y1073510D01*
X1293373Y1071844D02*
X1286709D01*
X1293373Y1078509D01*
Y1080175D01*
X1291707Y1081841D01*
X1288375D01*
X1286709Y1080175D01*
X271035Y1181002D02*
Y1190998D01*
X276034D01*
X277700Y1189332D01*
Y1186000D01*
X276034Y1184334D01*
X271035D01*
X281032Y1181002D02*
X284364D01*
X282698D01*
Y1190998D01*
X281032Y1189332D01*
X540112Y1220779D02*
Y1210782D01*
X546777D01*
X550109D02*
X553441D01*
X551775D01*
Y1220779D01*
X550109Y1219113D01*
X79998Y471666D02*
Y474998D01*
Y473332D01*
X71668D01*
X70002Y474998D01*
Y476665D01*
X71668Y478331D01*
X79998Y461669D02*
X78332Y465002D01*
X75000Y468334D01*
X71668D01*
X70002Y466668D01*
Y463335D01*
X71668Y461669D01*
X73334D01*
X75000Y463335D01*
Y468334D01*
X119998Y796666D02*
Y799998D01*
Y798332D01*
X111668D01*
X110002Y799998D01*
Y801665D01*
X111668Y803331D01*
X119998Y786669D02*
Y793334D01*
X115000D01*
X116666Y790002D01*
Y788335D01*
X115000Y786669D01*
X111668D01*
X110002Y788335D01*
Y791668D01*
X111668Y793334D01*
X13376Y656391D02*
X10044D01*
X11710D01*
Y648060D01*
X10044Y646394D01*
X8378D01*
X6712Y648060D01*
X16709Y656391D02*
X23373D01*
Y654725D01*
X16709Y648060D01*
Y646394D01*
X335834Y784998D02*
X332502D01*
X334168D01*
Y776668D01*
X332502Y775002D01*
X330835D01*
X329169Y776668D01*
X344165Y775002D02*
Y784998D01*
X339166Y780000D01*
X345831D01*
X1403334Y654998D02*
X1400002D01*
X1401668D01*
Y646668D01*
X1400002Y645002D01*
X1398336D01*
X1396669Y646668D01*
X1406666Y653332D02*
X1408332Y654998D01*
X1411664D01*
X1413331Y653332D01*
Y651666D01*
X1411664Y650000D01*
X1409998D01*
X1411664D01*
X1413331Y648334D01*
Y646668D01*
X1411664Y645002D01*
X1408332D01*
X1406666Y646668D01*
X410378Y1083365D02*
X407046D01*
X408712D01*
Y1075034D01*
X407046Y1073368D01*
X405380D01*
X403714Y1075034D01*
X420375Y1073368D02*
X413711D01*
X420375Y1080033D01*
Y1081699D01*
X418709Y1083365D01*
X415377D01*
X413711Y1081699D01*
X1383199Y863655D02*
X1379866D01*
X1381532D01*
Y855324D01*
X1379866Y853658D01*
X1378200D01*
X1376534Y855324D01*
X1386531Y853658D02*
X1389863D01*
X1388197D01*
Y863655D01*
X1386531Y861989D01*
X717502Y615004D02*
Y618336D01*
Y616670D01*
X727498D01*
Y615004D01*
Y618336D01*
X719168Y629999D02*
X717502Y628333D01*
Y625001D01*
X719168Y623335D01*
X725832D01*
X727498Y625001D01*
Y628333D01*
X725832Y629999D01*
X719168Y633331D02*
X717502Y634998D01*
Y638330D01*
X719168Y639996D01*
X720834D01*
X722500Y638330D01*
Y636664D01*
Y638330D01*
X724166Y639996D01*
X725832D01*
X727498Y638330D01*
Y634998D01*
X725832Y633331D01*
X715002Y897677D02*
Y901010D01*
Y899343D01*
X724998D01*
Y897677D01*
Y901010D01*
X716668Y912673D02*
X715002Y911006D01*
Y907674D01*
X716668Y906008D01*
X723332D01*
X724998Y907674D01*
Y911006D01*
X723332Y912673D01*
X724998Y922669D02*
Y916005D01*
X718334Y922669D01*
X716668D01*
X715002Y921003D01*
Y917671D01*
X716668Y916005D01*
X715002Y329170D02*
Y332502D01*
Y330836D01*
X724998D01*
Y329170D01*
Y332502D01*
X716668Y344165D02*
X715002Y342499D01*
Y339167D01*
X716668Y337501D01*
X723332D01*
X724998Y339167D01*
Y342499D01*
X723332Y344165D01*
X724998Y347498D02*
Y350830D01*
Y349164D01*
X715002D01*
X716668Y347498D01*
X195004Y114998D02*
Y105002D01*
X200002D01*
X201668Y106668D01*
Y113332D01*
X200002Y114998D01*
X195004D01*
X205001Y105002D02*
X208333D01*
X206667D01*
Y114998D01*
X205001Y113332D01*
X213332D02*
X214998Y114998D01*
X218330D01*
X219996Y113332D01*
Y111666D01*
X218330Y110000D01*
X219996Y108334D01*
Y106668D01*
X218330Y105002D01*
X214998D01*
X213332Y106668D01*
Y108334D01*
X214998Y110000D01*
X213332Y111666D01*
Y113332D01*
X214998Y110000D02*
X218330D01*
X112504Y114998D02*
Y105002D01*
X117502D01*
X119169Y106668D01*
Y113332D01*
X117502Y114998D01*
X112504D01*
X122501Y105002D02*
X125833D01*
X124167D01*
Y114998D01*
X122501Y113332D01*
X130831Y114998D02*
X137496D01*
Y113332D01*
X130831Y106668D01*
Y105002D01*
X150004Y114998D02*
Y105002D01*
X155002D01*
X156669Y106668D01*
Y113332D01*
X155002Y114998D01*
X150004D01*
X160001Y105002D02*
X163333D01*
X161667D01*
Y114998D01*
X160001Y113332D01*
X174996Y114998D02*
X171664Y113332D01*
X168332Y110000D01*
Y106668D01*
X169998Y105002D01*
X173330D01*
X174996Y106668D01*
Y108334D01*
X173330Y110000D01*
X168332D01*
X705004Y714998D02*
Y705002D01*
X710002D01*
X711668Y706668D01*
Y713332D01*
X710002Y714998D01*
X705004D01*
X715001Y705002D02*
X718333D01*
X716667D01*
Y714998D01*
X715001Y713332D01*
X729996Y714998D02*
X723331D01*
Y710000D01*
X726664Y711666D01*
X728330D01*
X729996Y710000D01*
Y706668D01*
X728330Y705002D01*
X724998D01*
X723331Y706668D01*
X694036Y1008689D02*
Y998692D01*
X699034D01*
X700701Y1000358D01*
Y1007023D01*
X699034Y1008689D01*
X694036D01*
X704033Y998692D02*
X707365D01*
X705699D01*
Y1008689D01*
X704033Y1007023D01*
X717362Y998692D02*
Y1008689D01*
X712363Y1003690D01*
X719028D01*
X710004Y432498D02*
Y422502D01*
X715002D01*
X716668Y424168D01*
Y430832D01*
X715002Y432498D01*
X710004D01*
X720001Y422502D02*
X723333D01*
X721667D01*
Y432498D01*
X720001Y430832D01*
X728332D02*
X729998Y432498D01*
X733330D01*
X734996Y430832D01*
Y429166D01*
X733330Y427500D01*
X731664D01*
X733330D01*
X734996Y425834D01*
Y424168D01*
X733330Y422502D01*
X729998D01*
X728332Y424168D01*
X777504Y264998D02*
Y255002D01*
X782502D01*
X784168Y256668D01*
Y263332D01*
X782502Y264998D01*
X777504D01*
X787501Y255002D02*
X790833D01*
X789167D01*
Y264998D01*
X787501Y263332D01*
X802496Y255002D02*
X795832D01*
X802496Y261666D01*
Y263332D01*
X800830Y264998D01*
X797498D01*
X795832Y263332D01*
X796652Y450905D02*
Y440908D01*
X801650D01*
X803316Y442574D01*
Y449239D01*
X801650Y450905D01*
X796652D01*
X806649Y440908D02*
X809981D01*
X808315D01*
Y450905D01*
X806649Y449239D01*
X814979Y440908D02*
X818312D01*
X816646D01*
Y450905D01*
X814979Y449239D01*
X777504Y547498D02*
Y537502D01*
X782502D01*
X784168Y539168D01*
Y545832D01*
X782502Y547498D01*
X777504D01*
X787501Y537502D02*
X790833D01*
X789167D01*
Y547498D01*
X787501Y545832D01*
X795832D02*
X797498Y547498D01*
X800830D01*
X802496Y545832D01*
Y539168D01*
X800830Y537502D01*
X797498D01*
X795832Y539168D01*
Y545832D01*
X801669Y732498D02*
Y722502D01*
X806668D01*
X808334Y724168D01*
Y730832D01*
X806668Y732498D01*
X801669D01*
X811666Y724168D02*
X813332Y722502D01*
X816665D01*
X818331Y724168D01*
Y730832D01*
X816665Y732498D01*
X813332D01*
X811666Y730832D01*
Y729166D01*
X813332Y727500D01*
X818331D01*
X784169Y837498D02*
Y827502D01*
X789168D01*
X790834Y829168D01*
Y835832D01*
X789168Y837498D01*
X784169D01*
X794166Y835832D02*
X795832Y837498D01*
X799165D01*
X800831Y835832D01*
Y834166D01*
X799165Y832500D01*
X800831Y830834D01*
Y829168D01*
X799165Y827502D01*
X795832D01*
X794166Y829168D01*
Y830834D01*
X795832Y832500D01*
X794166Y834166D01*
Y835832D01*
X795832Y832500D02*
X799165D01*
X796652Y1021135D02*
Y1011138D01*
X801650D01*
X803316Y1012804D01*
Y1019469D01*
X801650Y1021135D01*
X796652D01*
X806649D02*
X813313D01*
Y1019469D01*
X806649Y1012804D01*
Y1011138D01*
X141669Y1029998D02*
Y1020002D01*
X146668D01*
X148334Y1021668D01*
Y1028332D01*
X146668Y1029998D01*
X141669D01*
X158331D02*
X154998Y1028332D01*
X151666Y1025000D01*
Y1021668D01*
X153332Y1020002D01*
X156664D01*
X158331Y1021668D01*
Y1023334D01*
X156664Y1025000D01*
X151666D01*
X141669Y1084998D02*
Y1075002D01*
X146668D01*
X148334Y1076668D01*
Y1083332D01*
X146668Y1084998D01*
X141669D01*
X158331D02*
X151666D01*
Y1080000D01*
X154998Y1081666D01*
X156664D01*
X158331Y1080000D01*
Y1076668D01*
X156664Y1075002D01*
X153332D01*
X151666Y1076668D01*
X246669Y929998D02*
Y920002D01*
X251668D01*
X253334Y921668D01*
Y928332D01*
X251668Y929998D01*
X246669D01*
X261665Y920002D02*
Y929998D01*
X256666Y925000D01*
X263331D01*
X291669Y1009998D02*
Y1000002D01*
X296668D01*
X298334Y1001668D01*
Y1008332D01*
X296668Y1009998D01*
X291669D01*
X301666Y1008332D02*
X303332Y1009998D01*
X306665D01*
X308331Y1008332D01*
Y1006666D01*
X306665Y1005000D01*
X304998D01*
X306665D01*
X308331Y1003334D01*
Y1001668D01*
X306665Y1000002D01*
X303332D01*
X301666Y1001668D01*
X1234802Y1192077D02*
Y1182080D01*
X1239800D01*
X1241467Y1183746D01*
Y1190411D01*
X1239800Y1192077D01*
X1234802D01*
X1244799Y1182080D02*
X1248131D01*
X1246465D01*
Y1192077D01*
X1244799Y1190411D01*
X657714Y1250751D02*
Y1240754D01*
X662712D01*
X664379Y1242420D01*
Y1249085D01*
X662712Y1250751D01*
X657714D01*
X674375Y1240754D02*
X667711D01*
X674375Y1247419D01*
Y1249085D01*
X672709Y1250751D01*
X669377D01*
X667711Y1249085D01*
X211431Y510894D02*
X209075D01*
X206719Y508537D01*
Y506181D01*
X211431Y501469D01*
X213787D01*
X216144Y503825D01*
Y506181D01*
X223213Y510894D02*
X216144Y517962D01*
Y510894D01*
X220856Y515606D01*
X224391Y526209D02*
X223213Y522675D01*
Y517962D01*
X225569Y515606D01*
X227925D01*
X230281Y517962D01*
X230281Y520319D01*
X229103Y521497D01*
X226747Y521497D01*
X223213Y517962D01*
X232931Y472644D02*
X230575D01*
X228219Y470288D01*
Y467931D01*
X232931Y463219D01*
X235287D01*
X237644Y465575D01*
Y467931D01*
X244713Y472644D02*
X237644Y479712D01*
Y472644D01*
X242356Y477356D01*
X245891Y487960D02*
X241178Y483247D01*
X244713Y479712D01*
X245891Y483247D01*
X247069Y484425D01*
X249425D01*
X251781Y482069D01*
X251781Y479712D01*
X249425Y477356D01*
X247069D01*
X292644Y447069D02*
Y449425D01*
X290287Y451781D01*
X287931D01*
X283219Y447069D01*
Y444712D01*
X285575Y442356D01*
X287931D01*
X292644Y435288D02*
X299713Y442356D01*
X292644D01*
X297356Y437644D01*
X299713Y428219D02*
X306781Y435288D01*
X299713D01*
X304425Y430575D01*
X412931Y472644D02*
X410575D01*
X408219Y470288D01*
Y467931D01*
X412931Y463219D01*
X415288D01*
X417644Y465575D01*
Y467931D01*
X424712Y472644D02*
X417644Y479712D01*
Y472644D01*
X422356Y477356D01*
Y482069D02*
Y484425D01*
X424712Y486781D01*
X427069Y486781D01*
X428247Y485603D01*
Y483247D01*
X427069Y482069D01*
X428247Y483247D01*
X430603Y483247D01*
X431781Y482069D01*
X431781Y479712D01*
X429425Y477356D01*
X427069D01*
X370431Y564394D02*
X368075D01*
X365719Y562038D01*
Y559681D01*
X370431Y554969D01*
X372788D01*
X375144Y557325D01*
Y559681D01*
X382212Y564394D02*
X375144Y571463D01*
Y564394D01*
X379856Y569106D01*
X390459Y572641D02*
X385747Y567928D01*
Y577353D01*
X384569Y578531D01*
X382212Y578531D01*
X379856Y576175D01*
Y573819D01*
X336609Y610572D02*
X334253D01*
X331897Y608216D01*
Y605859D01*
X336609Y601147D01*
X338966D01*
X341322Y603503D01*
Y605859D01*
X348391Y610572D02*
X341322Y617641D01*
Y610572D01*
X346034Y615284D01*
X351925Y614106D02*
X354281Y616463D01*
X353103Y615284D01*
X346034Y622353D01*
Y619997D01*
X173335Y553332D02*
X171669Y554998D01*
X168337D01*
X166671Y553332D01*
Y546668D01*
X168337Y545002D01*
X171669D01*
X173335Y546668D01*
X181666Y545002D02*
Y554998D01*
X176668Y550000D01*
X183332D01*
X186665Y553332D02*
X188331Y554998D01*
X191663D01*
X193329Y553332D01*
Y551666D01*
X191663Y550000D01*
X193329Y548334D01*
Y546668D01*
X191663Y545002D01*
X188331D01*
X186665Y546668D01*
Y548334D01*
X188331Y550000D01*
X186665Y551666D01*
Y553332D01*
X188331Y550000D02*
X191663D01*
X198335Y613332D02*
X196669Y614998D01*
X193337D01*
X191671Y613332D01*
Y606668D01*
X193337Y605002D01*
X196669D01*
X198335Y606668D01*
X206666Y605002D02*
Y614998D01*
X201668Y610000D01*
X208332D01*
X211665Y614998D02*
X218329D01*
Y613332D01*
X211665Y606668D01*
Y605002D01*
X71668Y321836D02*
X70002Y320169D01*
Y316837D01*
X71668Y315171D01*
X78332D01*
X79998Y316837D01*
Y320169D01*
X78332Y321836D01*
X79998Y330166D02*
X70002D01*
X75000Y325168D01*
Y331832D01*
X71668Y335165D02*
X70002Y336831D01*
Y340163D01*
X71668Y341829D01*
X78332D01*
X79998Y340163D01*
Y336831D01*
X78332Y335165D01*
X71668D01*
X216668Y403335D02*
X215002Y401669D01*
Y398337D01*
X216668Y396671D01*
X223332D01*
X224998Y398337D01*
Y401669D01*
X223332Y403335D01*
X216668Y406668D02*
X215002Y408334D01*
Y411666D01*
X216668Y413332D01*
X218334D01*
X220000Y411666D01*
Y410000D01*
Y411666D01*
X221666Y413332D01*
X223332D01*
X224998Y411666D01*
Y408334D01*
X223332Y406668D01*
Y416665D02*
X224998Y418331D01*
Y421663D01*
X223332Y423329D01*
X216668D01*
X215002Y421663D01*
Y418331D01*
X216668Y416665D01*
X218334D01*
X220000Y418331D01*
Y423329D01*
X193335Y478332D02*
X191669Y479998D01*
X188337D01*
X186671Y478332D01*
Y471668D01*
X188337Y470002D01*
X191669D01*
X193335Y471668D01*
X196668Y478332D02*
X198334Y479998D01*
X201666D01*
X203332Y478332D01*
Y476666D01*
X201666Y475000D01*
X200000D01*
X201666D01*
X203332Y473334D01*
Y471668D01*
X201666Y470002D01*
X198334D01*
X196668Y471668D01*
X206665Y478332D02*
X208331Y479998D01*
X211663D01*
X213329Y478332D01*
Y476666D01*
X211663Y475000D01*
X213329Y473334D01*
Y471668D01*
X211663Y470002D01*
X208331D01*
X206665Y471668D01*
Y473334D01*
X208331Y475000D01*
X206665Y476666D01*
Y478332D01*
X208331Y475000D02*
X211663D01*
X420835Y698332D02*
X419169Y699998D01*
X415837D01*
X414171Y698332D01*
Y691668D01*
X415837Y690002D01*
X419169D01*
X420835Y691668D01*
X424168Y698332D02*
X425834Y699998D01*
X429166D01*
X430832Y698332D01*
Y696666D01*
X429166Y695000D01*
X427500D01*
X429166D01*
X430832Y693334D01*
Y691668D01*
X429166Y690002D01*
X425834D01*
X424168Y691668D01*
X434165Y699998D02*
X440829D01*
Y698332D01*
X434165Y691668D01*
Y690002D01*
X358335Y663332D02*
X356669Y664998D01*
X353337D01*
X351671Y663332D01*
Y656668D01*
X353337Y655002D01*
X356669D01*
X358335Y656668D01*
X361668Y663332D02*
X363334Y664998D01*
X366666D01*
X368332Y663332D01*
Y661666D01*
X366666Y660000D01*
X365000D01*
X366666D01*
X368332Y658334D01*
Y656668D01*
X366666Y655002D01*
X363334D01*
X361668Y656668D01*
X378329Y664998D02*
X374997Y663332D01*
X371665Y660000D01*
Y656668D01*
X373331Y655002D01*
X376663D01*
X378329Y656668D01*
Y658334D01*
X376663Y660000D01*
X371665D01*
X350835Y725832D02*
X349169Y727498D01*
X345837D01*
X344171Y725832D01*
Y719168D01*
X345837Y717502D01*
X349169D01*
X350835Y719168D01*
X354168Y725832D02*
X355834Y727498D01*
X359166D01*
X360832Y725832D01*
Y724166D01*
X359166Y722500D01*
X357500D01*
X359166D01*
X360832Y720834D01*
Y719168D01*
X359166Y717502D01*
X355834D01*
X354168Y719168D01*
X370829Y727498D02*
X364165D01*
Y722500D01*
X367497Y724166D01*
X369163D01*
X370829Y722500D01*
Y719168D01*
X369163Y717502D01*
X365831D01*
X364165Y719168D01*
X433335Y113332D02*
X431669Y114998D01*
X428337D01*
X426671Y113332D01*
Y106668D01*
X428337Y105002D01*
X431669D01*
X433335Y106668D01*
X436668Y113332D02*
X438334Y114998D01*
X441666D01*
X443332Y113332D01*
Y111666D01*
X441666Y110000D01*
X440000D01*
X441666D01*
X443332Y108334D01*
Y106668D01*
X441666Y105002D01*
X438334D01*
X436668Y106668D01*
X451663Y105002D02*
Y114998D01*
X446665Y110000D01*
X453329D01*
X218335Y318332D02*
X216669Y319998D01*
X213337D01*
X211671Y318332D01*
Y311668D01*
X213337Y310002D01*
X216669D01*
X218335Y311668D01*
X221668Y318332D02*
X223334Y319998D01*
X226666D01*
X228332Y318332D01*
Y316666D01*
X226666Y315000D01*
X225000D01*
X226666D01*
X228332Y313334D01*
Y311668D01*
X226666Y310002D01*
X223334D01*
X221668Y311668D01*
X231665Y318332D02*
X233331Y319998D01*
X236663D01*
X238329Y318332D01*
Y316666D01*
X236663Y315000D01*
X234997D01*
X236663D01*
X238329Y313334D01*
Y311668D01*
X236663Y310002D01*
X233331D01*
X231665Y311668D01*
X318335Y338332D02*
X316669Y339998D01*
X313337D01*
X311671Y338332D01*
Y331668D01*
X313337Y330002D01*
X316669D01*
X318335Y331668D01*
X321668Y338332D02*
X323334Y339998D01*
X326666D01*
X328332Y338332D01*
Y336666D01*
X326666Y335000D01*
X325000D01*
X326666D01*
X328332Y333334D01*
Y331668D01*
X326666Y330002D01*
X323334D01*
X321668Y331668D01*
X338329Y330002D02*
X331665D01*
X338329Y336666D01*
Y338332D01*
X336663Y339998D01*
X333331D01*
X331665Y338332D01*
X495002Y85832D02*
X493335Y87498D01*
X490003D01*
X488337Y85832D01*
Y79168D01*
X490003Y77502D01*
X493335D01*
X495002Y79168D01*
X498334Y85832D02*
X500000Y87498D01*
X503332D01*
X504998Y85832D01*
Y84166D01*
X503332Y82500D01*
X501666D01*
X503332D01*
X504998Y80834D01*
Y79168D01*
X503332Y77502D01*
X500000D01*
X498334Y79168D01*
X508331Y77502D02*
X511663D01*
X509997D01*
Y87498D01*
X508331Y85832D01*
X488335Y318332D02*
X486669Y319998D01*
X483337D01*
X481671Y318332D01*
Y311668D01*
X483337Y310002D01*
X486669D01*
X488335Y311668D01*
X491668Y318332D02*
X493334Y319998D01*
X496666D01*
X498332Y318332D01*
Y316666D01*
X496666Y315000D01*
X495000D01*
X496666D01*
X498332Y313334D01*
Y311668D01*
X496666Y310002D01*
X493334D01*
X491668Y311668D01*
X501665Y318332D02*
X503331Y319998D01*
X506663D01*
X508329Y318332D01*
Y311668D01*
X506663Y310002D01*
X503331D01*
X501665Y311668D01*
Y318332D01*
X431668Y278335D02*
X430002Y276669D01*
Y273337D01*
X431668Y271671D01*
X438332D01*
X439998Y273337D01*
Y276669D01*
X438332Y278335D01*
X439998Y288332D02*
Y281668D01*
X433334Y288332D01*
X431668D01*
X430002Y286666D01*
Y283334D01*
X431668Y281668D01*
X438332Y291665D02*
X439998Y293331D01*
Y296663D01*
X438332Y298329D01*
X431668D01*
X430002Y296663D01*
Y293331D01*
X431668Y291665D01*
X433334D01*
X435000Y293331D01*
Y298329D01*
X381668Y313335D02*
X380002Y311669D01*
Y308337D01*
X381668Y306671D01*
X388332D01*
X389998Y308337D01*
Y311669D01*
X388332Y313335D01*
X389998Y323332D02*
Y316668D01*
X383334Y323332D01*
X381668D01*
X380002Y321666D01*
Y318334D01*
X381668Y316668D01*
Y326665D02*
X380002Y328331D01*
Y331663D01*
X381668Y333329D01*
X383334D01*
X385000Y331663D01*
X386666Y333329D01*
X388332D01*
X389998Y331663D01*
Y328331D01*
X388332Y326665D01*
X386666D01*
X385000Y328331D01*
X383334Y326665D01*
X381668D01*
X385000Y328331D02*
Y331663D01*
X490835Y198332D02*
X489169Y199998D01*
X485837D01*
X484171Y198332D01*
Y191668D01*
X485837Y190002D01*
X489169D01*
X490835Y191668D01*
X500832Y190002D02*
X494168D01*
X500832Y196666D01*
Y198332D01*
X499166Y199998D01*
X495834D01*
X494168Y198332D01*
X504165Y199998D02*
X510829D01*
Y198332D01*
X504165Y191668D01*
Y190002D01*
X725835Y525832D02*
X724169Y527498D01*
X720837D01*
X719171Y525832D01*
Y519168D01*
X720837Y517502D01*
X724169D01*
X725835Y519168D01*
X735832Y517502D02*
X729168D01*
X735832Y524166D01*
Y525832D01*
X734166Y527498D01*
X730834D01*
X729168Y525832D01*
X745829Y527498D02*
X742497Y525832D01*
X739165Y522500D01*
Y519168D01*
X740831Y517502D01*
X744163D01*
X745829Y519168D01*
Y520834D01*
X744163Y522500D01*
X739165D01*
X829168Y623335D02*
X827502Y621669D01*
Y618337D01*
X829168Y616671D01*
X835832D01*
X837498Y618337D01*
Y621669D01*
X835832Y623335D01*
X837498Y633332D02*
Y626668D01*
X830834Y633332D01*
X829168D01*
X827502Y631666D01*
Y628334D01*
X829168Y626668D01*
X827502Y643329D02*
Y636665D01*
X832500D01*
X830834Y639997D01*
Y641663D01*
X832500Y643329D01*
X835832D01*
X837498Y641663D01*
Y638331D01*
X835832Y636665D01*
X621668Y630835D02*
X620002Y629169D01*
Y625837D01*
X621668Y624171D01*
X628332D01*
X629998Y625837D01*
Y629169D01*
X628332Y630835D01*
X629998Y640832D02*
Y634168D01*
X623334Y640832D01*
X621668D01*
X620002Y639166D01*
Y635834D01*
X621668Y634168D01*
X629998Y649163D02*
X620002D01*
X625000Y644165D01*
Y650829D01*
X728335Y813332D02*
X726669Y814998D01*
X723337D01*
X721671Y813332D01*
Y806668D01*
X723337Y805002D01*
X726669D01*
X728335Y806668D01*
X738332Y805002D02*
X731668D01*
X738332Y811666D01*
Y813332D01*
X736666Y814998D01*
X733334D01*
X731668Y813332D01*
X741665D02*
X743331Y814998D01*
X746663D01*
X748329Y813332D01*
Y811666D01*
X746663Y810000D01*
X744997D01*
X746663D01*
X748329Y808334D01*
Y806668D01*
X746663Y805002D01*
X743331D01*
X741665Y806668D01*
X826668Y920835D02*
X825002Y919169D01*
Y915837D01*
X826668Y914171D01*
X833332D01*
X834998Y915837D01*
Y919169D01*
X833332Y920835D01*
X834998Y930832D02*
Y924168D01*
X828334Y930832D01*
X826668D01*
X825002Y929166D01*
Y925834D01*
X826668Y924168D01*
X834998Y940829D02*
Y934165D01*
X828334Y940829D01*
X826668D01*
X825002Y939163D01*
Y935831D01*
X826668Y934165D01*
X732502Y238332D02*
X730835Y239998D01*
X727503D01*
X725837Y238332D01*
Y231668D01*
X727503Y230002D01*
X730835D01*
X732502Y231668D01*
X742498Y230002D02*
X735834D01*
X742498Y236666D01*
Y238332D01*
X740832Y239998D01*
X737500D01*
X735834Y238332D01*
X745831Y230002D02*
X749163D01*
X747497D01*
Y239998D01*
X745831Y238332D01*
X829168Y343335D02*
X827502Y341669D01*
Y338337D01*
X829168Y336671D01*
X835832D01*
X837498Y338337D01*
Y341669D01*
X835832Y343335D01*
X837498Y353332D02*
Y346668D01*
X830834Y353332D01*
X829168D01*
X827502Y351666D01*
Y348334D01*
X829168Y346668D01*
Y356665D02*
X827502Y358331D01*
Y361663D01*
X829168Y363329D01*
X835832D01*
X837498Y361663D01*
Y358331D01*
X835832Y356665D01*
X829168D01*
X628332Y938331D02*
X629998Y939998D01*
Y943330D01*
X628332Y944996D01*
X621668D01*
X620002Y943330D01*
Y939998D01*
X621668Y938331D01*
X620002Y934999D02*
Y931667D01*
Y933333D01*
X629998D01*
X628332Y934999D01*
X621668Y926668D02*
X620002Y925002D01*
Y921670D01*
X621668Y920004D01*
X628332D01*
X629998Y921670D01*
Y925002D01*
X628332Y926668D01*
X626666D01*
X625000Y925002D01*
Y920004D01*
X611669Y363332D02*
X610002Y364998D01*
X606670D01*
X605004Y363332D01*
Y356668D01*
X606670Y355002D01*
X610002D01*
X611669Y356668D01*
X615001Y355002D02*
X618333D01*
X616667D01*
Y364998D01*
X615001Y363332D01*
X623331D02*
X624998Y364998D01*
X628330D01*
X629996Y363332D01*
Y361666D01*
X628330Y360000D01*
X629996Y358334D01*
Y356668D01*
X628330Y355002D01*
X624998D01*
X623331Y356668D01*
Y358334D01*
X624998Y360000D01*
X623331Y361666D01*
Y363332D01*
X624998Y360000D02*
X628330D01*
X1229168Y343332D02*
X1227502Y344998D01*
X1224170D01*
X1222504Y343332D01*
Y336668D01*
X1224170Y335002D01*
X1227502D01*
X1229168Y336668D01*
X1232501Y335002D02*
X1235833D01*
X1234167D01*
Y344998D01*
X1232501Y343332D01*
X1240832Y344998D02*
X1247496D01*
Y343332D01*
X1240832Y336668D01*
Y335002D01*
X1229168Y413332D02*
X1227502Y414998D01*
X1224170D01*
X1222504Y413332D01*
Y406668D01*
X1224170Y405002D01*
X1227502D01*
X1229168Y406668D01*
X1232501Y405002D02*
X1235833D01*
X1234167D01*
Y414998D01*
X1232501Y413332D01*
X1247496Y414998D02*
X1244164Y413332D01*
X1240832Y410000D01*
Y406668D01*
X1242498Y405002D01*
X1245830D01*
X1247496Y406668D01*
Y408334D01*
X1245830Y410000D01*
X1240832D01*
X1231668Y615832D02*
X1230002Y617498D01*
X1226670D01*
X1225004Y615832D01*
Y609168D01*
X1226670Y607502D01*
X1230002D01*
X1231668Y609168D01*
X1235001Y607502D02*
X1238333D01*
X1236667D01*
Y617498D01*
X1235001Y615832D01*
X1249996Y617498D02*
X1243331D01*
Y612500D01*
X1246664Y614166D01*
X1248330D01*
X1249996Y612500D01*
Y609168D01*
X1248330Y607502D01*
X1244998D01*
X1243331Y609168D01*
X1226668Y690832D02*
X1225002Y692498D01*
X1221670D01*
X1220004Y690832D01*
Y684168D01*
X1221670Y682502D01*
X1225002D01*
X1226668Y684168D01*
X1230001Y682502D02*
X1233333D01*
X1231667D01*
Y692498D01*
X1230001Y690832D01*
X1243330Y682502D02*
Y692498D01*
X1238332Y687500D01*
X1244996D01*
X624169Y165832D02*
X622502Y167498D01*
X619170D01*
X617504Y165832D01*
Y159168D01*
X619170Y157502D01*
X622502D01*
X624169Y159168D01*
X627501Y157502D02*
X630833D01*
X629167D01*
Y167498D01*
X627501Y165832D01*
X635831D02*
X637498Y167498D01*
X640830D01*
X642496Y165832D01*
Y164166D01*
X640830Y162500D01*
X639164D01*
X640830D01*
X642496Y160834D01*
Y159168D01*
X640830Y157502D01*
X637498D01*
X635831Y159168D01*
X1224168Y940832D02*
X1222502Y942498D01*
X1219170D01*
X1217504Y940832D01*
Y934168D01*
X1219170Y932502D01*
X1222502D01*
X1224168Y934168D01*
X1227501Y932502D02*
X1230833D01*
X1229167D01*
Y942498D01*
X1227501Y940832D01*
X1242496Y932502D02*
X1235832D01*
X1242496Y939166D01*
Y940832D01*
X1240830Y942498D01*
X1237498D01*
X1235832Y940832D01*
X1230835Y855832D02*
X1229169Y857498D01*
X1225836D01*
X1224170Y855832D01*
Y849168D01*
X1225836Y847502D01*
X1229169D01*
X1230835Y849168D01*
X1234167Y847502D02*
X1237499D01*
X1235833D01*
Y857498D01*
X1234167Y855832D01*
X1242498Y847502D02*
X1245830D01*
X1244164D01*
Y857498D01*
X1242498Y855832D01*
X339169Y848332D02*
X337502Y849998D01*
X334170D01*
X332504Y848332D01*
Y841668D01*
X334170Y840002D01*
X337502D01*
X339169Y841668D01*
X342501Y840002D02*
X345833D01*
X344167D01*
Y849998D01*
X342501Y848332D01*
X350831D02*
X352498Y849998D01*
X355830D01*
X357496Y848332D01*
Y841668D01*
X355830Y840002D01*
X352498D01*
X350831Y841668D01*
Y848332D01*
X316907Y938189D02*
X315240Y939855D01*
X311908D01*
X310242Y938189D01*
Y931524D01*
X311908Y929858D01*
X315240D01*
X316907Y931524D01*
X320239D02*
X321905Y929858D01*
X325237D01*
X326903Y931524D01*
Y938189D01*
X325237Y939855D01*
X321905D01*
X320239Y938189D01*
Y936523D01*
X321905Y934856D01*
X326903D01*
X518329Y1143675D02*
X516662Y1145341D01*
X513330D01*
X511664Y1143675D01*
Y1137010D01*
X513330Y1135344D01*
X516662D01*
X518329Y1137010D01*
X521661Y1143675D02*
X523327Y1145341D01*
X526659D01*
X528325Y1143675D01*
Y1142009D01*
X526659Y1140342D01*
X528325Y1138676D01*
Y1137010D01*
X526659Y1135344D01*
X523327D01*
X521661Y1137010D01*
Y1138676D01*
X523327Y1140342D01*
X521661Y1142009D01*
Y1143675D01*
X523327Y1140342D02*
X526659D01*
X492421Y1143675D02*
X490754Y1145341D01*
X487422D01*
X485756Y1143675D01*
Y1137010D01*
X487422Y1135344D01*
X490754D01*
X492421Y1137010D01*
X495753Y1145341D02*
X502417D01*
Y1143675D01*
X495753Y1137010D01*
Y1135344D01*
X465496Y1143675D02*
X463830Y1145341D01*
X460498D01*
X458832Y1143675D01*
Y1137010D01*
X460498Y1135344D01*
X463830D01*
X465496Y1137010D01*
X475493Y1145341D02*
X472161Y1143675D01*
X468829Y1140342D01*
Y1137010D01*
X470495Y1135344D01*
X473827D01*
X475493Y1137010D01*
Y1138676D01*
X473827Y1140342D01*
X468829D01*
X656668Y1088334D02*
X655002Y1086668D01*
Y1083335D01*
X656668Y1081669D01*
X663332D01*
X664998Y1083335D01*
Y1086668D01*
X663332Y1088334D01*
X656668Y1091666D02*
X655002Y1093332D01*
Y1096665D01*
X656668Y1098331D01*
X658334D01*
X660000Y1096665D01*
Y1094998D01*
Y1096665D01*
X661666Y1098331D01*
X663332D01*
X664998Y1096665D01*
Y1093332D01*
X663332Y1091666D01*
X670834Y1033332D02*
X669168Y1034998D01*
X665835D01*
X664169Y1033332D01*
Y1026668D01*
X665835Y1025002D01*
X669168D01*
X670834Y1026668D01*
X680831Y1025002D02*
X674166D01*
X680831Y1031666D01*
Y1033332D01*
X679165Y1034998D01*
X675832D01*
X674166Y1033332D01*
X1106339Y1226733D02*
X1104672Y1228399D01*
X1101340D01*
X1099674Y1226733D01*
Y1220068D01*
X1101340Y1218402D01*
X1104672D01*
X1106339Y1220068D01*
X1116335Y1228399D02*
X1109671D01*
Y1223400D01*
X1113003Y1225067D01*
X1114669D01*
X1116335Y1223400D01*
Y1220068D01*
X1114669Y1218402D01*
X1111337D01*
X1109671Y1220068D01*
X1158409Y288711D02*
X1156742Y290377D01*
X1153410D01*
X1151744Y288711D01*
Y282046D01*
X1153410Y280380D01*
X1156742D01*
X1158409Y282046D01*
X1166739Y280380D02*
Y290377D01*
X1161741Y285378D01*
X1168405D01*
X757332Y1197500D02*
X758998Y1199166D01*
Y1202498D01*
X757332Y1204165D01*
X750668D01*
X749002Y1202498D01*
Y1199166D01*
X750668Y1197500D01*
X749002Y1194168D02*
Y1190835D01*
Y1192502D01*
X758998D01*
X757332Y1194168D01*
D15*
X966400Y771650D02*
X996250D01*
X966400D02*
Y878350D01*
X996250D01*
X329339Y461241D02*
X369644Y501546D01*
X289034D02*
X329339Y541851D01*
X369644Y501546D01*
X289034D02*
X329339Y461241D01*
X145500Y1067750D02*
X152500D01*
X145500Y1052250D02*
X152500D01*
X530750Y414000D02*
Y416000D01*
X519250Y414000D02*
Y416000D01*
X579325Y425415D02*
X581325D01*
X579325Y436915D02*
X581325D01*
X556500Y411356D02*
X566500D01*
Y403356D02*
Y411356D01*
X556500Y381356D02*
X566500D01*
Y389356D01*
X1232000Y906873D02*
X1238000D01*
X1232000Y922373D02*
X1238000D01*
X1232000Y866873D02*
X1238000D01*
X1232000Y882373D02*
X1238000D01*
X1232000Y626926D02*
X1238000D01*
X1232000Y642426D02*
X1238000D01*
X1232000Y660419D02*
X1238000D01*
X1232000Y675919D02*
X1238000D01*
X758750Y1082000D02*
Y1084000D01*
X747250Y1082000D02*
Y1084000D01*
X705250Y1056500D02*
Y1058500D01*
X693750Y1056500D02*
Y1058500D01*
X1232000Y352250D02*
X1238000D01*
X1232000Y367750D02*
X1238000D01*
X1232000Y382250D02*
X1238000D01*
X1232000Y397750D02*
X1238000D01*
X135750Y193000D02*
Y195000D01*
X124250Y193000D02*
Y195000D01*
X189250Y194000D02*
Y196000D01*
X200750Y194000D02*
Y196000D01*
X658500Y138750D02*
X660500D01*
X658500Y150250D02*
X660500D01*
X658500Y118750D02*
X660500D01*
X658500Y130250D02*
X660500D01*
X596000Y138750D02*
X598000D01*
X596000Y150250D02*
X598000D01*
X576000Y91250D02*
X578000D01*
X576000Y102750D02*
X578000D01*
X536000Y182750D02*
X538000D01*
X536000Y171250D02*
X538000D01*
X459750Y166500D02*
Y168500D01*
X471250Y166500D02*
Y168500D01*
X447250Y166500D02*
Y168500D01*
X435750Y166500D02*
Y168500D01*
X884250Y271500D02*
Y273500D01*
X895750Y271500D02*
Y273500D01*
X850000Y307500D02*
X860000D01*
X850000Y322500D02*
X860000D01*
X850000Y272500D02*
X860000D01*
X850000Y287500D02*
X860000D01*
X884250Y376500D02*
Y378500D01*
X895750Y376500D02*
Y378500D01*
X850000Y380000D02*
X860000D01*
X850000Y395000D02*
X860000D01*
X850000Y415000D02*
X860000D01*
X850000Y430000D02*
X860000D01*
X796050Y275000D02*
Y320000D01*
X822150D02*
X823950D01*
X796050D02*
X797850D01*
X823950Y275000D02*
Y320000D01*
X822150Y275000D02*
X823950D01*
X796050D02*
X797850D01*
X796800Y292750D02*
X823200D01*
X662308Y392500D02*
X672307D01*
X662308Y407500D02*
X672307D01*
X697500Y386956D02*
X742500D01*
X697500Y413056D02*
Y414856D01*
Y386956D02*
Y388756D01*
Y414856D02*
X742500D01*
Y413056D02*
Y414856D01*
Y386956D02*
Y388756D01*
X724750Y387706D02*
Y414106D01*
X757500Y273800D02*
X776750D01*
X754000Y273500D02*
Y376500D01*
X686000D02*
X754000D01*
X686000Y273500D02*
Y376500D01*
Y273500D02*
X754000D01*
X884250Y554000D02*
Y556000D01*
X895750Y554000D02*
Y556000D01*
X850000Y592500D02*
X860000D01*
X850000Y607500D02*
X860000D01*
X850000Y557500D02*
X860000D01*
X850000Y572500D02*
X860000D01*
X796050Y560000D02*
Y605000D01*
X822150D02*
X823950D01*
X796050D02*
X797850D01*
X823950Y560000D02*
Y605000D01*
X822150Y560000D02*
X823950D01*
X796050D02*
X797850D01*
X796800Y577750D02*
X823200D01*
X850000Y662500D02*
X860000D01*
X850000Y677500D02*
X860000D01*
X850000Y695000D02*
X860000D01*
X850000Y710000D02*
X860000D01*
X796050Y665000D02*
Y710000D01*
X822150D02*
X823950D01*
X796050D02*
X797850D01*
X823950Y665000D02*
Y710000D01*
X822150Y665000D02*
X823950D01*
X796050D02*
X797850D01*
X796800Y682750D02*
X823200D01*
X850000Y949500D02*
X860000D01*
X850000Y964500D02*
X860000D01*
X895750Y844000D02*
Y846000D01*
X884250Y844000D02*
Y846000D01*
X850000Y862500D02*
X860000D01*
X850000Y847500D02*
X860000D01*
X850000Y897500D02*
X860000D01*
X850000Y882500D02*
X860000D01*
X796800Y867750D02*
X823200D01*
X796050Y850000D02*
X797850D01*
X822150D02*
X823950D01*
Y895000D01*
X796050D02*
X797850D01*
X822150D02*
X823950D01*
X796050Y850000D02*
Y895000D01*
X725850Y671800D02*
Y698200D01*
X743600Y671050D02*
Y672850D01*
Y697150D02*
Y698950D01*
X698600D02*
X743600D01*
X698600Y671050D02*
Y672850D01*
Y697150D02*
Y698950D01*
Y671050D02*
X743600D01*
X660000Y692500D02*
X670000D01*
X660000Y677500D02*
X670000D01*
X686000Y559500D02*
X754000D01*
X686000D02*
Y662500D01*
X754000D01*
Y559500D02*
Y662500D01*
X757500Y559800D02*
X776750D01*
X579325Y546761D02*
X581325D01*
X579325Y558261D02*
X581325D01*
X556500Y537096D02*
X566500D01*
Y529096D02*
Y537096D01*
X556500Y507096D02*
X566500D01*
Y515096D01*
X511136Y537405D02*
X513136D01*
X511136Y525905D02*
X513136D01*
X580000Y624273D02*
X582000D01*
X580000Y635773D02*
X582000D01*
X566500Y580231D02*
Y588231D01*
X556500Y580231D02*
X566500D01*
Y602231D02*
Y610231D01*
X556500D02*
X566500D01*
X511136Y598479D02*
X513136D01*
X511136Y609979D02*
X513136D01*
X584000Y734250D02*
X586000D01*
X584000Y745750D02*
X586000D01*
X562000Y722500D02*
X572000D01*
Y714500D02*
Y722500D01*
X562000Y692500D02*
X572000D01*
Y700500D01*
X521500Y711750D02*
X523500D01*
X521500Y723250D02*
X523500D01*
X585000Y914250D02*
X587000D01*
X585000Y925750D02*
X587000D01*
X515215Y898800D02*
X517215D01*
X515215Y887300D02*
X517215D01*
X515000Y826000D02*
X517000D01*
X515000Y814500D02*
X517000D01*
X560715Y898550D02*
X570715D01*
Y890550D02*
Y898550D01*
X560715Y868550D02*
X570715D01*
Y876550D01*
X582805Y843864D02*
X584805D01*
X582805Y855364D02*
X584805D01*
X560715Y834334D02*
X570715D01*
Y826334D02*
Y834334D01*
X560715Y804334D02*
X570715D01*
Y812334D01*
X391500Y711750D02*
X393500D01*
X391500Y723250D02*
X393500D01*
X284000Y728250D02*
X286000Y728250D01*
X284000Y716750D02*
X286000D01*
X334000Y706208D02*
X336000D01*
X334000Y694707D02*
X336000D01*
X304250Y646500D02*
Y648500D01*
X315750Y646500D02*
Y648500D01*
X293707Y646500D02*
Y648500D01*
X282207Y646500D02*
Y648500D01*
X271665Y646500D02*
Y648500D01*
X260165Y646500D02*
Y648500D01*
X579325Y269500D02*
X581325D01*
X579325Y281000D02*
X581325D01*
X459000Y274622D02*
X461000D01*
X459000Y263122D02*
X461000D01*
X459000Y285165D02*
X461000D01*
X459000Y296665D02*
X461000D01*
X458750Y343000D02*
X458750Y341000D01*
X447250D02*
Y343000D01*
X410197Y273933D02*
X412197D01*
X410197Y262433D02*
X412197D01*
X410197Y306518D02*
X412197D01*
X410197Y318018D02*
X412197D01*
X409750Y342000D02*
Y344000D01*
X398250Y342000D02*
Y344000D01*
X361000Y296708D02*
X363000D01*
X361000Y285208D02*
X363000Y285208D01*
X361000Y263165D02*
X363000Y263165D01*
X361000Y274665D02*
X363000Y274665D01*
X361750Y341500D02*
Y343500D01*
X373250Y341500D02*
Y343500D01*
X309820Y295966D02*
X311820D01*
X309820Y284466D02*
X311820Y284466D01*
X310000Y262423D02*
X312000D01*
X310000Y273923D02*
X312000D01*
X295250Y342000D02*
Y344000D01*
X306750Y344000D02*
X306750Y342000D01*
X272570Y341716D02*
Y343716D01*
X284070Y341716D02*
Y343716D01*
X259820Y295966D02*
X261820D01*
X259820Y284466D02*
X261820D01*
X247570Y341716D02*
Y343716D01*
X259070Y341716D02*
Y343716D01*
X137000Y354000D02*
X181780D01*
X188000Y312730D02*
Y335270D01*
X134220Y294000D02*
X181780D01*
X128000Y312730D02*
Y335000D01*
X54250Y589000D02*
Y591000D01*
X65750Y589000D02*
Y591000D01*
X113210Y565475D02*
X126790D01*
X113210D02*
Y614525D01*
X126790D01*
Y565475D02*
Y614525D01*
X127000Y679750D02*
X129000D01*
X127000Y668250D02*
X129000D01*
X237000Y875000D02*
X283000D01*
X237000Y915000D02*
X283000D01*
X283000Y875000D02*
Y880250D01*
X237000Y875000D02*
Y880250D01*
X283000Y909750D02*
Y915000D01*
X237000Y909750D02*
Y915000D01*
X279500Y995000D02*
X325500Y995000D01*
X279500Y955000D02*
X325500Y955000D01*
X279500Y989750D02*
Y995000D01*
X325500Y989750D02*
Y995000D01*
X279500Y955000D02*
Y960250D01*
X325500Y955000D02*
Y960250D01*
X193000Y999250D02*
X195000D01*
X193000Y1010750D02*
X195000D01*
X145500Y997250D02*
X152500D01*
X145500Y1012750D02*
X152500D01*
X193000Y1054250D02*
X195000D01*
X193000Y1065750D02*
X195000D01*
X168250Y194000D02*
Y196000D01*
X156750Y194000D02*
Y196000D01*
X109000Y552933D02*
X111000D01*
X109000Y541432D02*
X111000D01*
X596000Y118750D02*
X598000D01*
X596000Y130250D02*
X598000D01*
X873000Y116000D02*
Y154000D01*
X842000Y116000D02*
Y154000D01*
X369500Y1162000D02*
Y1230000D01*
X357000D02*
X369500D01*
X357000D02*
Y1247000D01*
X290900Y1162000D02*
Y1230000D01*
X303400D01*
Y1247000D01*
X357000D01*
X290900Y1162000D02*
X369500D01*
X521000Y162000D02*
X553000D01*
X521000Y112000D02*
X553000D01*
X521000D02*
Y162000D01*
X553000Y112000D02*
Y162000D01*
X796800Y970250D02*
X823200D01*
X796050Y952500D02*
X797850D01*
X822150D02*
X823950D01*
Y997500D01*
X796050D02*
X797850D01*
X822150D02*
X823950D01*
X796050Y952500D02*
Y997500D01*
X895750Y946500D02*
Y948500D01*
X884250Y946500D02*
Y948500D01*
X850000Y997500D02*
X860000D01*
X850000Y982500D02*
X860000D01*
X686000Y848673D02*
X754000D01*
X686000D02*
Y951673D01*
X754000D01*
Y848673D02*
Y951673D01*
X757500Y848973D02*
X776750D01*
X475750Y1102000D02*
Y1108000D01*
X460250Y1102000D02*
Y1108000D01*
X502750Y1102000D02*
Y1108000D01*
X487250Y1102000D02*
Y1108000D01*
X528750Y1102000D02*
Y1108000D01*
X513250Y1102000D02*
Y1108000D01*
X658000Y1225500D02*
X658000Y1179500D01*
X698000D02*
Y1225500D01*
X658000Y1179500D02*
X663250D01*
X658000Y1225500D02*
X663250D01*
X692750Y1179500D02*
X698000D01*
X692750Y1225500D02*
X698000D01*
X733750Y1082000D02*
Y1084000D01*
X722250Y1082000D02*
Y1084000D01*
X721250Y1199500D02*
Y1205500D01*
X736750Y1199500D02*
Y1205500D01*
X687000Y1107500D02*
Y1157500D01*
X719000Y1107500D02*
Y1157500D01*
X687000D02*
X719000D01*
X687000Y1107500D02*
X719000D01*
X660000Y967500D02*
X670000D01*
X660000Y982500D02*
X670000D01*
X697500Y961050D02*
X742500D01*
X697500Y987150D02*
Y988950D01*
Y961050D02*
Y962850D01*
Y988950D02*
X742500D01*
Y987150D02*
Y988950D01*
Y961050D02*
Y962850D01*
X724750Y961800D02*
Y988200D01*
X966400Y624404D02*
X996250D01*
X966400D02*
Y731104D01*
X996250D01*
X1331400Y1076650D02*
X1361250D01*
X1331400D02*
Y1183350D01*
X1361250D01*
X519250Y326000D02*
Y328000D01*
X530750Y326000D02*
Y328000D01*
X567000Y291000D02*
Y299000D01*
X557000Y291000D02*
X567000D01*
Y313000D02*
Y321000D01*
X557000D02*
X567000D01*
X368000Y866500D02*
X407000Y866500D01*
X368000Y933500D02*
X407000D01*
X407000Y866500D01*
X368000Y866500D02*
Y933500D01*
X895750Y661500D02*
Y663500D01*
X884250Y661500D02*
Y663500D01*
X1331400Y1058350D02*
X1361250D01*
X1331400Y951650D02*
Y1058350D01*
Y951650D02*
X1361250D01*
X1235000Y1148000D02*
X1243000D01*
X1235000D02*
Y1158000D01*
X1257000Y1148000D02*
X1265000D01*
Y1158000D01*
X1254250Y1201500D02*
Y1203500D01*
X1265750Y1201500D02*
Y1203500D01*
X794500Y116000D02*
Y154000D01*
X825500Y116000D02*
Y154000D01*
X889500Y116000D02*
Y154000D01*
X920500Y116000D02*
Y154000D01*
X966400Y588350D02*
X996250D01*
X966400Y481650D02*
Y588350D01*
Y481650D02*
X996250D01*
X966400Y303350D02*
X996250D01*
X966400Y196650D02*
Y303350D01*
Y196650D02*
X996250D01*
X1128000Y1077500D02*
X1145500D01*
X1107500Y1098000D02*
X1128000Y1077500D01*
X1192000D02*
X1212500Y1098000D01*
X1174500Y1077500D02*
X1192000D01*
X1107500Y1098000D02*
Y1182500D01*
X1145500D01*
X1174500D02*
X1212500D01*
Y1098000D02*
Y1182500D01*
X1177500Y224500D02*
Y242000D01*
X1198000Y262500D01*
X1177500Y178000D02*
X1198000Y157500D01*
X1177500Y178000D02*
Y195500D01*
X1198000Y262500D02*
X1282500D01*
Y224500D02*
Y262500D01*
Y157500D02*
Y195500D01*
X1198000Y157500D02*
X1282500D01*
X966400Y443931D02*
X996250D01*
X966400Y337231D02*
Y443931D01*
Y337231D02*
X996250D01*
X966400Y1018616D02*
X996250D01*
X966400Y911916D02*
Y1018616D01*
Y911916D02*
X996250D01*
X796800Y400250D02*
X823200D01*
X796050Y382500D02*
X797850D01*
X822150D02*
X823950D01*
Y427500D01*
X796050D02*
X797850D01*
X822150D02*
X823950D01*
X796050Y382500D02*
Y427500D01*
D16*
X279000Y767740D02*
X279000Y746150D01*
X279000Y737260D02*
X279000Y765200D01*
X279000Y737260D02*
X406000D01*
X279000Y767740D02*
X406000D01*
X279000Y742340D02*
X284080Y737260D01*
X406000D02*
Y767740D01*
X4760Y505240D02*
X60640D01*
X4760Y398560D02*
Y505240D01*
Y398560D02*
X60640D01*
Y505240D01*
X4760Y500160D02*
X9840Y505240D01*
X89325Y688625D02*
X96808Y696108D01*
X87200Y773000D02*
X96878D01*
X96930Y688500D02*
Y891500D01*
X5710Y688500D02*
X96930D01*
X5710Y891500D02*
X96930Y891500D01*
X5710Y688500D02*
Y891500D01*
X18200Y699500D02*
X87200D01*
X18200D02*
Y880500D01*
X87200D01*
Y699500D02*
Y773000D01*
Y807000D02*
Y880500D01*
Y807000D02*
X96896D01*
X152500Y142500D02*
Y152500D01*
X172500Y142500D02*
Y152500D01*
X185000Y142500D02*
Y152500D01*
X205000Y142500D02*
Y152500D01*
X120000Y142500D02*
Y152500D01*
X140000Y142500D02*
Y152500D01*
X4760Y633020D02*
X9840Y638100D01*
X35240Y536500D02*
Y638100D01*
X4760Y536500D02*
X35240D01*
X4760D02*
Y638100D01*
X32700D01*
X13650D02*
X35240D01*
X401900Y1034760D02*
Y1037300D01*
Y1034760D02*
X478100D01*
Y1065240D01*
X401900Y1037300D02*
Y1065240D01*
X478100D01*
X401900Y1039840D02*
X406980Y1034760D01*
M02*
