M48
;Layer_Color=9474304
;FILE_FORMAT=4:4
METRIC,LZ
;TYPE=PLATED
T1F00S00C0.2540
T2F00S00C0.6000
T3F00S00C0.7000
T4F00S00C0.7112
T5F00S00C0.7500
T6F00S00C0.7620
T7F00S00C0.8000
T8F00S00C0.8500
T9F00S00C0.9000
T10F00S00C1.0000
T11F00S00C1.0500
T12F00S00C1.1000
T13F00S00C1.2000
T14F00S00C1.8542
T15F00S00C2.2000
T16F00S00C2.3000
T17F00S00C3.0000
%
T01
X0127Y007
X0116Y0106
X0092Y0117
X0131Y015
X0113Y0147
X0087Y0143
X0117Y012
X0194Y0165
T02
X0105Y0119
X011
X0114Y01255
Y01285
X01Y01285
Y01255
T03
X01313Y0032
X01388
X011Y0056
Y0063626
X013Y0090374
Y0098
X0137Y0122
Y0129626
X01345Y01295
X0126874
T04
X01695Y00405
X0163Y00495
X0115035Y00891352
X01115Y00891
X0116Y00945
Y0099
X018825Y013
X01425
X0127Y0142
Y0149
T05
X0159Y00515
X0163Y00515
Y00615
X0159Y00615
X0155Y00615
X015175Y00575
X0155Y00515
X014175Y00575
X0143Y0072
X01475Y00765
X01575
X0122Y0077
X0112
X0107Y0064
X0097
X0112Y0081
X0116Y0086
X010948Y010126
X010694
X01044
X010186
Y01092
X01044
X010694
X010948
X0105Y0113
X0095
X0126Y01
Y009
Y0086
X0122Y0081
X0143Y0082
X01345Y0126
X01245
X0119Y0123
Y0133
Y0137
Y0141
X0109
Y0137
X0105
X0105Y0141
X0095
X0095Y0137
Y0133
Y0123
T06
X0127353Y01125
X0131647
T07
X01759044Y0032997
X01809044
X01911485Y0033997
X01961485
X0196Y005
X0191
X01809045Y0049
X01759045
X01755Y0063
X01805
X0162Y007125
X015692
X01507705Y00670185
X01456905
X01461905Y00630185
X01487305
X01436505
X01401905Y00614385
Y00665185
X0127Y007592
X0115Y0049
Y004392
X0114Y0113
X010892
X01275Y011725
X013258
X0122Y0097
Y009192
X0127Y0081
X02Y0136
Y014108
X0192
Y0136
X01325Y0122
X012742
T08
X013119Y007673
Y007927
X013881
Y007673
X02Y011925
Y013
X0192
Y011925
X0143Y01365
X013225
T09
X0087Y0038
X0095
X0103
Y0056
X0095
X0087
X0185Y0143
X0157
X00795Y01435
X00515
Y0164
X00795
X0157Y0165
X0185
T10
X018975Y007421
Y007675
Y007929
X0124Y0153
X012146
X011892
X010504Y0153
X01025
X009996
T11
X01635Y0067
X0153724
X011Y0051776
Y0042
X0123Y0132114
Y0143
X0091
Y0132114
T12
X009323Y0072
X009577
T13
X014469Y009275
X014977
X015485
X015993
X016501
X017009
X017517
X018025
Y012315
X017517
X017009
X016501
X015993
X015485
X014977
X014469
T14
X0044975Y00345
X00545
X00640255
X01512375Y0034
X01607625
T15
X0047Y0064
X00645
X00745
X0037
Y00915
Y0119
X0047
X00645
X00745
Y00915
X00645
X0047
T16
X0194Y00643
Y00897
T17
X00915Y01595
X0131Y016
M30
