G04*
G04 #@! TF.GenerationSoftware,Altium Limited,Altium Designer,23.6.0 (18)*
G04*
G04 Layer_Color=8388736*
%FSLAX44Y44*%
%MOMM*%
G71*
G04*
G04 #@! TF.SameCoordinates,9FFC46F5-938B-46D8-84A6-C8BF988D1DB5*
G04*
G04*
G04 #@! TF.FilePolarity,Negative*
G04*
G01*
G75*
%ADD17R,3.8100X2.0800*%
%ADD18R,8.8900X11.4300*%
G04:AMPARAMS|DCode=19|XSize=0.34mm|YSize=1.64mm|CornerRadius=0mm|HoleSize=0mm|Usage=FLASHONLY|Rotation=45.000|XOffset=0mm|YOffset=0mm|HoleType=Round|Shape=Round|*
%AMOVALD19*
21,1,1.3000,0.3400,0.0000,0.0000,135.0*
1,1,0.3400,0.4596,-0.4596*
1,1,0.3400,-0.4596,0.4596*
%
%ADD19OVALD19*%

G04:AMPARAMS|DCode=20|XSize=0.34mm|YSize=1.64mm|CornerRadius=0mm|HoleSize=0mm|Usage=FLASHONLY|Rotation=135.000|XOffset=0mm|YOffset=0mm|HoleType=Round|Shape=Round|*
%AMOVALD20*
21,1,1.3000,0.3400,0.0000,0.0000,225.0*
1,1,0.3400,0.4596,0.4596*
1,1,0.3400,-0.4596,-0.4596*
%
%ADD20OVALD20*%

%ADD21R,1.3900X1.8400*%
%ADD22O,8.0900X4.0900*%
G04:AMPARAMS|DCode=23|XSize=1.49mm|YSize=1.19mm|CornerRadius=0mm|HoleSize=0mm|Usage=FLASHONLY|Rotation=315.000|XOffset=0mm|YOffset=0mm|HoleType=Round|Shape=Rectangle|*
%AMROTATEDRECTD23*
4,1,4,-0.9475,0.1061,-0.1061,0.9475,0.9475,-0.1061,0.1061,-0.9475,-0.9475,0.1061,0.0*
%
%ADD23ROTATEDRECTD23*%

%ADD24R,1.4400X1.0900*%
%ADD25R,1.0900X1.4400*%
%ADD26R,1.0900X0.6900*%
%ADD27R,1.1900X1.4900*%
%ADD28R,1.4900X1.1900*%
%ADD29R,1.0900X1.7900*%
%ADD30R,1.6800X1.7000*%
%ADD31R,1.7000X1.6800*%
%ADD32R,2.0150X0.7400*%
G04:AMPARAMS|DCode=33|XSize=1.49mm|YSize=1.19mm|CornerRadius=0mm|HoleSize=0mm|Usage=FLASHONLY|Rotation=45.000|XOffset=0mm|YOffset=0mm|HoleType=Round|Shape=Rectangle|*
%AMROTATEDRECTD33*
4,1,4,-0.1061,-0.9475,-0.9475,-0.1061,0.1061,0.9475,0.9475,0.1061,-0.1061,-0.9475,0.0*
%
%ADD33ROTATEDRECTD33*%

%ADD34R,2.7900X1.5900*%
%ADD35R,2.4692X0.6221*%
G04:AMPARAMS|DCode=36|XSize=2.4692mm|YSize=0.6221mm|CornerRadius=0.3111mm|HoleSize=0mm|Usage=FLASHONLY|Rotation=180.000|XOffset=0mm|YOffset=0mm|HoleType=Round|Shape=RoundedRectangle|*
%AMROUNDEDRECTD36*
21,1,2.4692,0.0000,0,0,180.0*
21,1,1.8470,0.6221,0,0,180.0*
1,1,0.6221,-0.9235,0.0000*
1,1,0.6221,0.9235,0.0000*
1,1,0.6221,0.9235,0.0000*
1,1,0.6221,-0.9235,0.0000*
%
%ADD36ROUNDEDRECTD36*%
%ADD37R,1.7100X2.2400*%
%ADD38R,1.5900X1.2900*%
%ADD39R,3.3900X1.3900*%
G04:AMPARAMS|DCode=40|XSize=0.64mm|YSize=1.34mm|CornerRadius=0.0945mm|HoleSize=0mm|Usage=FLASHONLY|Rotation=270.000|XOffset=0mm|YOffset=0mm|HoleType=Round|Shape=RoundedRectangle|*
%AMROUNDEDRECTD40*
21,1,0.6400,1.1510,0,0,270.0*
21,1,0.4510,1.3400,0,0,270.0*
1,1,0.1890,-0.5755,-0.2255*
1,1,0.1890,-0.5755,0.2255*
1,1,0.1890,0.5755,0.2255*
1,1,0.1890,0.5755,-0.2255*
%
%ADD40ROUNDEDRECTD40*%
%ADD41R,3.5900X3.0900*%
%ADD42R,1.8400X1.3900*%
%ADD43R,2.2400X1.7100*%
%ADD44O,1.5400X0.6900*%
%ADD45R,2.0900X3.3900*%
%ADD46R,2.0900X1.0900*%
%ADD47R,0.6900X1.0900*%
%ADD48R,7.0900X4.0900*%
%ADD49O,7.0900X4.0900*%
%ADD50R,2.0900X4.3900*%
%ADD51R,4.3900X2.0900*%
%ADD52C,3.5900*%
%ADD53O,1.7900X2.0900*%
%ADD54R,1.7900X2.0900*%
%ADD55R,1.5900X1.5900*%
%ADD56C,1.5900*%
%ADD57C,1.7032*%
%ADD58O,2.0900X1.7900*%
%ADD59R,2.0900X1.7900*%
%ADD60R,1.9900X1.7900*%
%ADD61O,1.9900X1.7900*%
%ADD62C,2.2400*%
%ADD63R,2.2400X2.2400*%
%ADD64C,0.7900*%
D17*
X930150Y850400D02*
D03*
Y799600D02*
D03*
X930150Y703154D02*
D03*
Y652354D02*
D03*
X1295150Y1155400D02*
D03*
Y1104600D02*
D03*
Y979600D02*
D03*
Y1030400D02*
D03*
X930150Y509600D02*
D03*
Y560400D02*
D03*
Y224600D02*
D03*
Y275400D02*
D03*
X930150Y365181D02*
D03*
Y415981D02*
D03*
Y939866D02*
D03*
Y990666D02*
D03*
D18*
X1044450Y825000D02*
D03*
X1044450Y677754D02*
D03*
X1409450Y1130000D02*
D03*
Y1005000D02*
D03*
X1044450Y535000D02*
D03*
Y250000D02*
D03*
X1044450Y390581D02*
D03*
Y965266D02*
D03*
D19*
X281432Y510562D02*
D03*
X284968Y514097D02*
D03*
X288503Y517633D02*
D03*
X292039Y521168D02*
D03*
X295574Y524704D02*
D03*
X299110Y528239D02*
D03*
X302646Y531775D02*
D03*
X306181Y535310D02*
D03*
X309717Y538846D02*
D03*
X313252Y542381D02*
D03*
X316788Y545917D02*
D03*
X320323Y549453D02*
D03*
X377245Y492530D02*
D03*
X373710Y488995D02*
D03*
X370174Y485459D02*
D03*
X366639Y481924D02*
D03*
X363103Y478388D02*
D03*
X359568Y474853D02*
D03*
X356032Y471317D02*
D03*
X352497Y467782D02*
D03*
X348961Y464246D02*
D03*
X345425Y460711D02*
D03*
X341890Y457175D02*
D03*
X338354Y453639D02*
D03*
D20*
Y549452D02*
D03*
X341890Y545917D02*
D03*
X345425Y542381D02*
D03*
X348961Y538846D02*
D03*
X352497Y535310D02*
D03*
X356032Y531775D02*
D03*
X359568Y528239D02*
D03*
X363103Y524704D02*
D03*
X366639Y521168D02*
D03*
X370174Y517633D02*
D03*
X373710Y514097D02*
D03*
X377245Y510562D02*
D03*
X320323Y453639D02*
D03*
X316788Y457175D02*
D03*
X313252Y460711D02*
D03*
X309717Y464246D02*
D03*
X306181Y467782D02*
D03*
X302646Y471317D02*
D03*
X299110Y474853D02*
D03*
X295574Y478388D02*
D03*
X292039Y481924D02*
D03*
X288503Y485459D02*
D03*
X284968Y488995D02*
D03*
X281432Y492530D02*
D03*
D21*
X135000Y1060000D02*
D03*
X163000D02*
D03*
X1248500Y914623D02*
D03*
X1221500D02*
D03*
X1248500Y874623D02*
D03*
X1221500D02*
D03*
X1248500Y634676D02*
D03*
X1221500D02*
D03*
X1248500Y668169D02*
D03*
X1221500D02*
D03*
X1248500Y360000D02*
D03*
X1221500D02*
D03*
X1248500Y390000D02*
D03*
X1221500D02*
D03*
X163000Y1005000D02*
D03*
X135000D02*
D03*
D22*
X1410000Y606200D02*
D03*
Y530000D02*
D03*
Y453800D02*
D03*
D23*
X404342Y485661D02*
D03*
X391614Y472933D02*
D03*
X340049Y584651D02*
D03*
X352777Y597379D02*
D03*
X355049Y569651D02*
D03*
X367777Y582379D02*
D03*
X259314Y469847D02*
D03*
X246586Y457120D02*
D03*
X254614Y521114D02*
D03*
X241886Y508386D02*
D03*
D24*
X525000Y424000D02*
D03*
Y406000D02*
D03*
X753000Y1092000D02*
D03*
Y1074000D02*
D03*
X699500Y1066500D02*
D03*
Y1048500D02*
D03*
X130000Y203000D02*
D03*
Y185000D02*
D03*
X195000Y186000D02*
D03*
Y204000D02*
D03*
X465500Y158500D02*
D03*
Y176500D02*
D03*
X441500D02*
D03*
Y158500D02*
D03*
X890000Y263500D02*
D03*
Y281500D02*
D03*
Y368500D02*
D03*
Y386500D02*
D03*
Y546000D02*
D03*
Y564000D02*
D03*
Y854000D02*
D03*
Y836000D02*
D03*
X310000Y638500D02*
D03*
Y656500D02*
D03*
X287957Y656500D02*
D03*
Y638500D02*
D03*
X265915Y656500D02*
D03*
Y638500D02*
D03*
X453000Y351000D02*
D03*
Y333000D02*
D03*
X404000Y352000D02*
D03*
Y334000D02*
D03*
X367500Y333500D02*
D03*
Y351500D02*
D03*
X301000Y334000D02*
D03*
Y352000D02*
D03*
X278320Y333716D02*
D03*
Y351716D02*
D03*
X253320Y333716D02*
D03*
Y351716D02*
D03*
X60000Y581000D02*
D03*
Y599000D02*
D03*
X162500Y204000D02*
D03*
Y186000D02*
D03*
X890000Y956500D02*
D03*
Y938500D02*
D03*
X728000Y1092000D02*
D03*
Y1074000D02*
D03*
X525000Y318000D02*
D03*
Y336000D02*
D03*
X890000Y671500D02*
D03*
Y653500D02*
D03*
X1260000Y1193500D02*
D03*
Y1211500D02*
D03*
D25*
X589325Y431165D02*
D03*
X571325D02*
D03*
X668500Y144500D02*
D03*
X650500D02*
D03*
X668500Y124500D02*
D03*
X650500D02*
D03*
X606000Y144500D02*
D03*
X588000D02*
D03*
X586000Y97000D02*
D03*
X568000D02*
D03*
X528000Y177000D02*
D03*
X546000D02*
D03*
X589325Y552511D02*
D03*
X571325D02*
D03*
X503136Y531655D02*
D03*
X521136D02*
D03*
X590000Y630023D02*
D03*
X572000D02*
D03*
X521136Y604229D02*
D03*
X503136D02*
D03*
X594000Y740000D02*
D03*
X576000D02*
D03*
X531500Y717500D02*
D03*
X513500D02*
D03*
X595000Y920000D02*
D03*
X577000D02*
D03*
X507215Y893050D02*
D03*
X525215D02*
D03*
X507000Y820250D02*
D03*
X525000D02*
D03*
X592805Y849614D02*
D03*
X574805D02*
D03*
X401500Y717500D02*
D03*
X383500D02*
D03*
X276000Y722500D02*
D03*
X294000D02*
D03*
X326000Y700458D02*
D03*
X344000D02*
D03*
X589325Y275250D02*
D03*
X571325D02*
D03*
X451000Y268872D02*
D03*
X469000D02*
D03*
Y290915D02*
D03*
X451000D02*
D03*
X402197Y268183D02*
D03*
X420197D02*
D03*
X420197Y312268D02*
D03*
X402197D02*
D03*
X353000Y290958D02*
D03*
X371000D02*
D03*
X371000Y268915D02*
D03*
X353000D02*
D03*
X301820Y290216D02*
D03*
X319820D02*
D03*
X320000Y268173D02*
D03*
X302000D02*
D03*
X251820Y290216D02*
D03*
X269820D02*
D03*
X119000Y674000D02*
D03*
X137000D02*
D03*
X203000Y1005000D02*
D03*
X185000D02*
D03*
X203000Y1060000D02*
D03*
X185000D02*
D03*
X101000Y547183D02*
D03*
X119000D02*
D03*
X606000Y124500D02*
D03*
X588000D02*
D03*
D26*
X547500Y405856D02*
D03*
Y386856D02*
D03*
X571500Y396356D02*
D03*
X547500Y531596D02*
D03*
Y512596D02*
D03*
X571500Y522096D02*
D03*
Y595231D02*
D03*
X547500Y585731D02*
D03*
Y604731D02*
D03*
X553000Y717000D02*
D03*
Y698000D02*
D03*
X577000Y707500D02*
D03*
X551715Y893050D02*
D03*
Y874050D02*
D03*
X575715Y883550D02*
D03*
X551715Y828834D02*
D03*
Y809834D02*
D03*
X575715Y819334D02*
D03*
X572000Y306000D02*
D03*
X548000Y296500D02*
D03*
Y315500D02*
D03*
D27*
X744000Y255000D02*
D03*
X726000D02*
D03*
X675500Y1087500D02*
D03*
X693500D02*
D03*
X734000Y540000D02*
D03*
X716000D02*
D03*
X556000Y740000D02*
D03*
X538000D02*
D03*
X389000Y826915D02*
D03*
X371000D02*
D03*
X401500Y695458D02*
D03*
X383500D02*
D03*
X331500Y722500D02*
D03*
X313500D02*
D03*
X361500Y678415D02*
D03*
X343500D02*
D03*
X451000Y312957D02*
D03*
X469000D02*
D03*
X402197Y290225D02*
D03*
X420197D02*
D03*
X371000Y313000D02*
D03*
X353000D02*
D03*
X319820Y312716D02*
D03*
X301820D02*
D03*
X269820Y312716D02*
D03*
X251820Y312716D02*
D03*
X371000Y848958D02*
D03*
X389000D02*
D03*
X721000Y830000D02*
D03*
X739000D02*
D03*
D28*
X674500Y1066500D02*
D03*
Y1048500D02*
D03*
X629500Y143500D02*
D03*
Y125500D02*
D03*
X489500Y99500D02*
D03*
Y117500D02*
D03*
X467000Y99500D02*
D03*
Y117500D02*
D03*
X489500Y176500D02*
D03*
Y158500D02*
D03*
X810000Y356500D02*
D03*
Y338500D02*
D03*
X645000Y344050D02*
D03*
Y362050D02*
D03*
X810000Y641500D02*
D03*
Y623500D02*
D03*
Y930977D02*
D03*
Y912977D02*
D03*
X645000Y630000D02*
D03*
Y648000D02*
D03*
X200000Y396000D02*
D03*
Y414000D02*
D03*
Y458571D02*
D03*
Y440571D02*
D03*
X205000Y594000D02*
D03*
Y576000D02*
D03*
X180000Y594000D02*
D03*
Y576000D02*
D03*
X99000Y337500D02*
D03*
Y319500D02*
D03*
X645000Y919050D02*
D03*
Y937050D02*
D03*
X317500Y896000D02*
D03*
Y914000D02*
D03*
D29*
X869000Y315000D02*
D03*
X841000D02*
D03*
X869000Y280000D02*
D03*
X841000D02*
D03*
X869000Y387500D02*
D03*
X841000D02*
D03*
X869000Y422500D02*
D03*
X841000D02*
D03*
X681308Y400000D02*
D03*
X653307D02*
D03*
X869000Y600000D02*
D03*
X841000D02*
D03*
X869000Y565000D02*
D03*
X841000D02*
D03*
X869000Y670000D02*
D03*
X841000D02*
D03*
X869000Y702500D02*
D03*
X841000D02*
D03*
X869000Y957000D02*
D03*
X841000D02*
D03*
Y855000D02*
D03*
X869000D02*
D03*
X841000Y890000D02*
D03*
X869000D02*
D03*
X651000Y685000D02*
D03*
X679000D02*
D03*
X841000Y990000D02*
D03*
X869000D02*
D03*
X679000Y975000D02*
D03*
X651000D02*
D03*
D30*
X810000Y279600D02*
D03*
Y315400D02*
D03*
Y564600D02*
D03*
Y600400D02*
D03*
Y669600D02*
D03*
Y705400D02*
D03*
Y890400D02*
D03*
Y854600D02*
D03*
Y992900D02*
D03*
Y957100D02*
D03*
Y422900D02*
D03*
Y387100D02*
D03*
D31*
X737900Y400906D02*
D03*
X702100D02*
D03*
X703200Y685000D02*
D03*
X739000D02*
D03*
X737900Y975000D02*
D03*
X702100D02*
D03*
D32*
X672880Y280550D02*
D03*
Y293250D02*
D03*
Y305950D02*
D03*
Y318650D02*
D03*
Y331350D02*
D03*
Y344050D02*
D03*
Y356750D02*
D03*
Y369450D02*
D03*
X767120D02*
D03*
Y356750D02*
D03*
Y344050D02*
D03*
Y331350D02*
D03*
Y318650D02*
D03*
Y305950D02*
D03*
Y293250D02*
D03*
Y280550D02*
D03*
Y566550D02*
D03*
Y579250D02*
D03*
Y591950D02*
D03*
Y604650D02*
D03*
Y617350D02*
D03*
Y630050D02*
D03*
Y642750D02*
D03*
Y655450D02*
D03*
X672880D02*
D03*
Y642750D02*
D03*
Y630050D02*
D03*
Y617350D02*
D03*
Y604650D02*
D03*
Y591950D02*
D03*
Y579250D02*
D03*
Y566550D02*
D03*
X767120Y855723D02*
D03*
Y868423D02*
D03*
Y881123D02*
D03*
Y893823D02*
D03*
Y906523D02*
D03*
Y919223D02*
D03*
Y931923D02*
D03*
Y944623D02*
D03*
X672880D02*
D03*
Y931923D02*
D03*
Y919223D02*
D03*
Y906523D02*
D03*
Y893823D02*
D03*
Y881123D02*
D03*
Y868423D02*
D03*
Y855723D02*
D03*
D33*
X276136Y433864D02*
D03*
X288864Y421136D02*
D03*
D34*
X170000Y415500D02*
D03*
Y434500D02*
D03*
D35*
X144136Y570950D02*
D03*
D36*
Y583650D02*
D03*
Y596350D02*
D03*
Y609050D02*
D03*
X95864D02*
D03*
Y596350D02*
D03*
Y583650D02*
D03*
Y570950D02*
D03*
D37*
X281100Y895000D02*
D03*
X238900D02*
D03*
X281400Y975000D02*
D03*
X323600D02*
D03*
D38*
X162500Y135500D02*
D03*
Y159500D02*
D03*
X195000Y135500D02*
D03*
Y159500D02*
D03*
X130000Y135500D02*
D03*
Y159500D02*
D03*
D39*
X857500Y164250D02*
D03*
Y105750D02*
D03*
X810000D02*
D03*
Y164250D02*
D03*
X905000Y105750D02*
D03*
Y164250D02*
D03*
D40*
X510750Y156050D02*
D03*
Y143350D02*
D03*
Y130650D02*
D03*
Y117950D02*
D03*
X563250Y156050D02*
D03*
Y143350D02*
D03*
Y130650D02*
D03*
Y117950D02*
D03*
D41*
X594000Y1091500D02*
D03*
Y1181500D02*
D03*
D42*
X468000Y1118500D02*
D03*
Y1091500D02*
D03*
X495000Y1118500D02*
D03*
Y1091500D02*
D03*
X521000Y1118500D02*
D03*
Y1091500D02*
D03*
X729000Y1189000D02*
D03*
Y1216000D02*
D03*
D43*
X678000Y1181400D02*
D03*
Y1223600D02*
D03*
D44*
X675750Y1151550D02*
D03*
Y1138850D02*
D03*
Y1126150D02*
D03*
Y1113450D02*
D03*
X730250Y1151550D02*
D03*
Y1138850D02*
D03*
Y1126150D02*
D03*
Y1113450D02*
D03*
D45*
X419750Y900000D02*
D03*
D46*
X355250Y877000D02*
D03*
Y900000D02*
D03*
X355250Y923000D02*
D03*
D47*
X1250000Y1143000D02*
D03*
X1240500Y1167000D02*
D03*
X1259500D02*
D03*
D48*
X1410000Y825000D02*
D03*
D49*
Y760000D02*
D03*
D50*
X1160000Y1084750D02*
D03*
Y1175250D02*
D03*
D51*
X1184750Y210000D02*
D03*
X1275250D02*
D03*
D52*
X1550000Y1220000D02*
D03*
X1380000Y300000D02*
D03*
X1000000Y1090000D02*
D03*
X740000Y470000D02*
D03*
Y750000D02*
D03*
X50000Y1210000D02*
D03*
Y50000D02*
D03*
X1560000Y40000D02*
D03*
D53*
X367900Y752500D02*
D03*
X342500D02*
D03*
X317100D02*
D03*
X393300D02*
D03*
X440000Y1050000D02*
D03*
X465400D02*
D03*
D54*
X291700Y752500D02*
D03*
X414600Y1050000D02*
D03*
D55*
X125500Y346500D02*
D03*
D56*
X190500D02*
D03*
Y301500D02*
D03*
D57*
X125500D02*
D03*
D58*
X20000Y439200D02*
D03*
X45400D02*
D03*
X20000Y413800D02*
D03*
X45400D02*
D03*
Y490000D02*
D03*
X20000Y464600D02*
D03*
X45400D02*
D03*
X20000Y600000D02*
D03*
Y574600D02*
D03*
Y549200D02*
D03*
D59*
Y490000D02*
D03*
Y625400D02*
D03*
D60*
X65400Y739200D02*
D03*
D61*
X40000Y840800D02*
D03*
Y815400D02*
D03*
Y790000D02*
D03*
Y764600D02*
D03*
Y739200D02*
D03*
X65400Y840800D02*
D03*
Y815400D02*
D03*
Y790000D02*
D03*
X65400Y764600D02*
D03*
D62*
X350000Y1210000D02*
D03*
D63*
X310400D02*
D03*
D64*
X1430000Y900000D02*
D03*
X1410000D02*
D03*
X1390000D02*
D03*
X1430000Y880000D02*
D03*
X1410000D02*
D03*
X1390000D02*
D03*
X1430000Y920000D02*
D03*
X1410000D02*
D03*
X1390000D02*
D03*
Y970000D02*
D03*
X1410000D02*
D03*
X1430000D02*
D03*
Y990000D02*
D03*
X1410000D02*
D03*
X1390000D02*
D03*
Y1010000D02*
D03*
X1410000D02*
D03*
X1430000D02*
D03*
Y1030000D02*
D03*
X1410000D02*
D03*
X1390000D02*
D03*
X1440000Y1020000D02*
D03*
Y1000000D02*
D03*
Y980000D02*
D03*
Y960000D02*
D03*
X1420000D02*
D03*
Y980000D02*
D03*
Y1000000D02*
D03*
Y1020000D02*
D03*
X1400000Y960000D02*
D03*
Y980000D02*
D03*
Y1000000D02*
D03*
Y1020000D02*
D03*
X1380000Y960000D02*
D03*
Y980000D02*
D03*
Y1000000D02*
D03*
Y1020000D02*
D03*
X1440000Y1040000D02*
D03*
X1420000D02*
D03*
X1400000D02*
D03*
X1380000D02*
D03*
X1390000Y1120000D02*
D03*
X1410000D02*
D03*
X1430000D02*
D03*
Y1100000D02*
D03*
X1410000D02*
D03*
X1390000D02*
D03*
X1400000Y1090000D02*
D03*
X1420000D02*
D03*
X1440000D02*
D03*
Y1110000D02*
D03*
X1420000D02*
D03*
X1400000D02*
D03*
X1430000Y1140000D02*
D03*
X1410000D02*
D03*
X1390000D02*
D03*
X1440000Y1130000D02*
D03*
X1420000D02*
D03*
X1400000D02*
D03*
X1430000Y1160000D02*
D03*
X1410000D02*
D03*
X1390000D02*
D03*
X1440000Y1150000D02*
D03*
X1420000D02*
D03*
X1400000D02*
D03*
X1380000Y1090000D02*
D03*
Y1110000D02*
D03*
Y1130000D02*
D03*
Y1150000D02*
D03*
X1440000Y1170000D02*
D03*
X1420000D02*
D03*
X1400000D02*
D03*
X1380000D02*
D03*
X762501Y1130001D02*
D03*
X753501D02*
D03*
X744501D02*
D03*
X330750Y527500D02*
D03*
X297000Y503000D02*
D03*
X120000Y1060000D02*
D03*
X290750Y241250D02*
D03*
X628250Y166250D02*
D03*
X478250Y1066250D02*
D03*
X590750Y391250D02*
D03*
X515750Y841250D02*
D03*
X665750Y91250D02*
D03*
X778250Y1216250D02*
D03*
X65750Y541250D02*
D03*
X215750Y991250D02*
D03*
X665750Y391250D02*
D03*
X65750Y1141250D02*
D03*
X140750Y241250D02*
D03*
X253250Y1216250D02*
D03*
X590750Y691250D02*
D03*
X140750D02*
D03*
Y1141250D02*
D03*
X515750D02*
D03*
X478250Y916250D02*
D03*
X178250D02*
D03*
X778250Y1066250D02*
D03*
X440750Y691250D02*
D03*
X65750Y241250D02*
D03*
X478250Y466250D02*
D03*
X65750Y691250D02*
D03*
X590750Y1141250D02*
D03*
X440750Y91250D02*
D03*
X290750Y841250D02*
D03*
X440750Y1141250D02*
D03*
X178250Y166250D02*
D03*
X253250Y916250D02*
D03*
X553250Y1066250D02*
D03*
X665750Y991250D02*
D03*
X215750Y241250D02*
D03*
X628250Y1066250D02*
D03*
Y1216250D02*
D03*
X815750Y1141250D02*
D03*
X553250Y766250D02*
D03*
X515750Y391250D02*
D03*
X853250Y1066250D02*
D03*
X515750Y91250D02*
D03*
X290750Y1141250D02*
D03*
X140750Y391250D02*
D03*
X853250Y1216250D02*
D03*
X478250D02*
D03*
X65750Y391250D02*
D03*
X665750Y841250D02*
D03*
X328250Y1066250D02*
D03*
X290750Y691250D02*
D03*
X215750Y91250D02*
D03*
X103250Y1216250D02*
D03*
X65750Y91250D02*
D03*
X403250Y1216250D02*
D03*
X215750Y841250D02*
D03*
X140750Y91250D02*
D03*
X440750Y241250D02*
D03*
X665750Y691250D02*
D03*
X553250Y916250D02*
D03*
Y1216250D02*
D03*
X290750Y91250D02*
D03*
X103250Y766250D02*
D03*
X253250Y166250D02*
D03*
X103250D02*
D03*
X178250Y316250D02*
D03*
X553250Y466250D02*
D03*
Y616250D02*
D03*
X215750Y1141250D02*
D03*
X178250Y1216250D02*
D03*
X665750Y541250D02*
D03*
X103250Y916250D02*
D03*
X140750Y841250D02*
D03*
X365750Y1141250D02*
D03*
X178250Y766250D02*
D03*
X65750Y991250D02*
D03*
X440750Y391250D02*
D03*
X103250Y1066250D02*
D03*
X365750Y991250D02*
D03*
X440000Y1235000D02*
D03*
X540000D02*
D03*
X600000D02*
D03*
X820000Y1225000D02*
D03*
X840000Y1240000D02*
D03*
X800000D02*
D03*
X770000D02*
D03*
X515000Y1180000D02*
D03*
X480000D02*
D03*
X1060000Y220000D02*
D03*
Y240000D02*
D03*
X1040000Y220000D02*
D03*
Y240000D02*
D03*
X1020000Y220000D02*
D03*
Y240000D02*
D03*
Y260000D02*
D03*
X1040000D02*
D03*
X1060000D02*
D03*
Y280000D02*
D03*
X1040000D02*
D03*
X1020000D02*
D03*
Y360000D02*
D03*
Y380000D02*
D03*
Y400000D02*
D03*
X1040000D02*
D03*
Y380000D02*
D03*
Y360000D02*
D03*
X1060000D02*
D03*
Y380000D02*
D03*
Y400000D02*
D03*
Y420000D02*
D03*
X1040000D02*
D03*
X1020000D02*
D03*
Y510000D02*
D03*
Y530000D02*
D03*
Y550000D02*
D03*
X1040000D02*
D03*
Y530000D02*
D03*
Y510000D02*
D03*
X1060000D02*
D03*
Y530000D02*
D03*
Y550000D02*
D03*
Y570000D02*
D03*
X1040000D02*
D03*
X1020000D02*
D03*
X1060000Y800000D02*
D03*
X1040000D02*
D03*
X1020000D02*
D03*
Y820000D02*
D03*
X1040000D02*
D03*
X1060000D02*
D03*
Y840000D02*
D03*
X1040000D02*
D03*
X1020000D02*
D03*
X1060000Y860000D02*
D03*
X1040000D02*
D03*
X1020000D02*
D03*
Y940000D02*
D03*
X1040000D02*
D03*
X1060000D02*
D03*
Y960000D02*
D03*
X1040000D02*
D03*
X1020000D02*
D03*
Y980000D02*
D03*
X1040000D02*
D03*
X1060000D02*
D03*
Y1000000D02*
D03*
X1040000D02*
D03*
X1020000D02*
D03*
X1060000Y650000D02*
D03*
X1040000D02*
D03*
X1020000D02*
D03*
Y670000D02*
D03*
X1040000D02*
D03*
X1060000D02*
D03*
Y690000D02*
D03*
X1040000D02*
D03*
X1020000D02*
D03*
X1060000Y710000D02*
D03*
X1040000D02*
D03*
X1020000D02*
D03*
X1459000Y555000D02*
D03*
X1464500Y544000D02*
D03*
X1459000Y533000D02*
D03*
X1464500Y522000D02*
D03*
X1459000Y511000D02*
D03*
X1464500Y500000D02*
D03*
X1453500Y566000D02*
D03*
X1448000Y555000D02*
D03*
X1453500Y544000D02*
D03*
Y500000D02*
D03*
X1442500Y566000D02*
D03*
Y500000D02*
D03*
X1431500Y566000D02*
D03*
Y500000D02*
D03*
X1420500Y566000D02*
D03*
Y500000D02*
D03*
X1409500Y566000D02*
D03*
Y500000D02*
D03*
X1398500Y566000D02*
D03*
Y500000D02*
D03*
X1387500Y566000D02*
D03*
Y500000D02*
D03*
X1376500Y566000D02*
D03*
X1371000Y555000D02*
D03*
Y511000D02*
D03*
X1376500Y500000D02*
D03*
X1365500Y566000D02*
D03*
X1360000Y555000D02*
D03*
X1365500Y544000D02*
D03*
X1360000Y533000D02*
D03*
Y511000D02*
D03*
X1365500Y500000D02*
D03*
X1354500Y566000D02*
D03*
X1349000Y555000D02*
D03*
X1354500Y544000D02*
D03*
X1349000Y533000D02*
D03*
X1354500Y522000D02*
D03*
X1349000Y511000D02*
D03*
X1354500Y500000D02*
D03*
X1332500Y566000D02*
D03*
Y544000D02*
D03*
Y522000D02*
D03*
Y500000D02*
D03*
X1140000Y577000D02*
D03*
Y555000D02*
D03*
Y533000D02*
D03*
Y511000D02*
D03*
Y489000D02*
D03*
X1134500Y588000D02*
D03*
Y566000D02*
D03*
Y544000D02*
D03*
Y522000D02*
D03*
Y500000D02*
D03*
X1118000Y577000D02*
D03*
X1123500Y566000D02*
D03*
X1118000Y555000D02*
D03*
X1123500Y544000D02*
D03*
X1118000Y533000D02*
D03*
X1123500Y522000D02*
D03*
X1118000Y511000D02*
D03*
X1123500Y500000D02*
D03*
X1118000Y489000D02*
D03*
X1112500Y588000D02*
D03*
X1107000Y577000D02*
D03*
X1112500Y566000D02*
D03*
X1107000Y555000D02*
D03*
X1112500Y544000D02*
D03*
X1107000Y533000D02*
D03*
X1112500Y522000D02*
D03*
X1107000Y511000D02*
D03*
X1112500Y500000D02*
D03*
X1107000Y489000D02*
D03*
X1101500Y588000D02*
D03*
X1096000Y577000D02*
D03*
X1101500Y566000D02*
D03*
X1096000Y555000D02*
D03*
X1101500Y544000D02*
D03*
X1096000Y533000D02*
D03*
X1101500Y522000D02*
D03*
X1096000Y511000D02*
D03*
X1101500Y500000D02*
D03*
X1096000Y489000D02*
D03*
X1010000Y1010000D02*
D03*
X1030000D02*
D03*
X1050000D02*
D03*
X1070000D02*
D03*
X1010000Y990000D02*
D03*
X1030000D02*
D03*
X1050000D02*
D03*
X1070000D02*
D03*
X1010000Y970000D02*
D03*
X1030000D02*
D03*
X1050000D02*
D03*
X1070000D02*
D03*
X1010000Y950000D02*
D03*
X1030000D02*
D03*
X1050000D02*
D03*
X1070000D02*
D03*
X1010000Y930000D02*
D03*
X1030000D02*
D03*
X1050000D02*
D03*
X1070000D02*
D03*
X1010000Y290000D02*
D03*
X1030000D02*
D03*
X1050000D02*
D03*
X1070000D02*
D03*
X1010000Y270000D02*
D03*
X1030000D02*
D03*
X1050000D02*
D03*
X1070000D02*
D03*
X1010000Y250000D02*
D03*
X1030000D02*
D03*
X1050000D02*
D03*
X1070000D02*
D03*
X1010000Y230000D02*
D03*
X1030000D02*
D03*
X1050000D02*
D03*
X1070000D02*
D03*
X1010000Y210000D02*
D03*
X1030000D02*
D03*
X1050000D02*
D03*
X1070000D02*
D03*
X1010000Y430000D02*
D03*
X1030000D02*
D03*
X1050000D02*
D03*
X1070000D02*
D03*
X1010000Y410000D02*
D03*
X1030000D02*
D03*
X1050000D02*
D03*
X1070000D02*
D03*
X1010000Y390000D02*
D03*
X1030000D02*
D03*
X1050000D02*
D03*
X1070000D02*
D03*
X1010000Y370000D02*
D03*
X1030000D02*
D03*
X1050000D02*
D03*
X1070000D02*
D03*
X1010000Y350000D02*
D03*
X1030000D02*
D03*
X1050000D02*
D03*
X1070000D02*
D03*
X1010000Y580000D02*
D03*
X1030000D02*
D03*
X1050000D02*
D03*
X1070000D02*
D03*
X1010000Y560000D02*
D03*
X1030000D02*
D03*
X1050000D02*
D03*
X1070000D02*
D03*
X1010000Y540000D02*
D03*
X1030000D02*
D03*
X1050000D02*
D03*
X1070000D02*
D03*
X1010000Y520000D02*
D03*
X1030000D02*
D03*
X1050000D02*
D03*
X1070000D02*
D03*
X1010000Y500000D02*
D03*
X1030000D02*
D03*
X1050000D02*
D03*
X1070000D02*
D03*
X1010000Y720000D02*
D03*
X1030000D02*
D03*
X1050000D02*
D03*
X1070000D02*
D03*
X1010000Y700000D02*
D03*
X1030000D02*
D03*
X1050000D02*
D03*
X1070000D02*
D03*
X1010000Y680000D02*
D03*
X1030000D02*
D03*
X1050000D02*
D03*
X1070000D02*
D03*
X1010000Y660000D02*
D03*
X1030000D02*
D03*
X1050000D02*
D03*
X1070000D02*
D03*
X1010000Y640000D02*
D03*
X1030000D02*
D03*
X1050000D02*
D03*
X1070000D02*
D03*
Y790000D02*
D03*
X1050000D02*
D03*
X1030000D02*
D03*
X1010000D02*
D03*
X1070000Y810000D02*
D03*
X1050000D02*
D03*
X1030000D02*
D03*
X1010000D02*
D03*
X1070000Y830000D02*
D03*
X1050000D02*
D03*
X1030000D02*
D03*
X1010000D02*
D03*
X1070000Y850000D02*
D03*
X1050000D02*
D03*
X1030000D02*
D03*
X1010000D02*
D03*
X1070000Y870000D02*
D03*
X1050000D02*
D03*
X1030000D02*
D03*
X1010000D02*
D03*
X644750Y662250D02*
D03*
X378250Y999000D02*
D03*
X710500Y1082250D02*
D03*
X709750Y1095750D02*
D03*
X609000Y980000D02*
D03*
X237000Y527250D02*
D03*
X247750Y544000D02*
D03*
X241500Y552500D02*
D03*
X257438Y538353D02*
D03*
X401750Y678000D02*
D03*
X627250Y965000D02*
D03*
X616250D02*
D03*
X605000D02*
D03*
X620000Y980000D02*
D03*
X1458001Y462000D02*
D03*
X1463501Y451000D02*
D03*
X1458001Y440000D02*
D03*
X1463501Y429000D02*
D03*
X1452501Y473000D02*
D03*
Y429000D02*
D03*
X1441501D02*
D03*
X1375501D02*
D03*
X1364501Y473000D02*
D03*
X1359001Y462000D02*
D03*
Y440000D02*
D03*
X1364501Y429000D02*
D03*
X1353501Y473000D02*
D03*
X1348001Y462000D02*
D03*
X1353501Y451000D02*
D03*
X1348001Y440000D02*
D03*
X1353501Y429000D02*
D03*
X1337001Y418000D02*
D03*
X1331501Y473000D02*
D03*
Y451000D02*
D03*
Y429000D02*
D03*
Y407000D02*
D03*
Y385000D02*
D03*
Y363000D02*
D03*
Y341000D02*
D03*
Y319000D02*
D03*
Y297000D02*
D03*
Y275000D02*
D03*
Y253000D02*
D03*
X1139000Y286000D02*
D03*
Y264000D02*
D03*
Y242000D02*
D03*
Y220000D02*
D03*
Y198000D02*
D03*
X1128000Y308000D02*
D03*
X1122501Y297000D02*
D03*
X1117001Y286000D02*
D03*
X1122501Y275000D02*
D03*
X1117001Y264000D02*
D03*
X1122501Y253000D02*
D03*
X1117001Y242000D02*
D03*
X1122501Y231000D02*
D03*
X1117001Y220000D02*
D03*
X1122501Y209000D02*
D03*
X1117001Y198000D02*
D03*
X1111500Y297000D02*
D03*
X1106001Y286000D02*
D03*
X1111500Y275000D02*
D03*
X1106001Y264000D02*
D03*
X1111500Y253000D02*
D03*
X1106001Y242000D02*
D03*
X1111500Y231000D02*
D03*
X1106001Y220000D02*
D03*
X1111500Y209000D02*
D03*
X1106001Y198000D02*
D03*
X1100500Y297000D02*
D03*
X1095001Y286000D02*
D03*
X1100500Y275000D02*
D03*
X1095001Y264000D02*
D03*
X1100500Y253000D02*
D03*
X1095001Y242000D02*
D03*
X1100500Y231000D02*
D03*
X1095001Y220000D02*
D03*
X1100500Y209000D02*
D03*
X1095001Y198000D02*
D03*
X1463501Y627000D02*
D03*
X1458001Y616000D02*
D03*
X1463501Y605000D02*
D03*
X1458001Y594000D02*
D03*
X1452501Y627000D02*
D03*
X1364501D02*
D03*
X1359001Y616000D02*
D03*
X1364501Y605000D02*
D03*
X1359001Y594000D02*
D03*
X1353501Y627000D02*
D03*
X1348001Y616000D02*
D03*
X1353501Y605000D02*
D03*
X1348001Y594000D02*
D03*
X1342501Y649000D02*
D03*
X1331501D02*
D03*
Y627000D02*
D03*
Y605000D02*
D03*
X1139000Y858000D02*
D03*
Y836000D02*
D03*
Y814000D02*
D03*
Y792000D02*
D03*
Y770000D02*
D03*
X1128000D02*
D03*
X1122501Y869000D02*
D03*
X1117001Y858000D02*
D03*
X1122501Y847000D02*
D03*
X1117001Y836000D02*
D03*
X1122501Y825000D02*
D03*
X1117001Y814000D02*
D03*
X1122501Y803000D02*
D03*
X1117001Y792000D02*
D03*
X1122501Y781000D02*
D03*
Y759000D02*
D03*
X1111500Y869000D02*
D03*
X1106001Y858000D02*
D03*
X1111500Y847000D02*
D03*
X1106001Y836000D02*
D03*
X1111500Y825000D02*
D03*
X1106001Y814000D02*
D03*
X1111500Y803000D02*
D03*
X1106001Y792000D02*
D03*
X1111500Y781000D02*
D03*
X1106001Y770000D02*
D03*
X1111500Y759000D02*
D03*
X1100500Y869000D02*
D03*
X1095001Y858000D02*
D03*
X1100500Y847000D02*
D03*
X1095001Y836000D02*
D03*
X1100500Y825000D02*
D03*
X1095001Y814000D02*
D03*
X1100500Y803000D02*
D03*
X1095001Y792000D02*
D03*
X1100500Y781000D02*
D03*
X1095001Y770000D02*
D03*
X944001Y725000D02*
D03*
Y683000D02*
D03*
Y179000D02*
D03*
X933501Y746000D02*
D03*
X923001Y725000D02*
D03*
Y683000D02*
D03*
Y599000D02*
D03*
X933501Y578000D02*
D03*
Y536000D02*
D03*
Y452000D02*
D03*
X923001Y305000D02*
D03*
X933501Y200000D02*
D03*
X923001Y179000D02*
D03*
X912501Y746000D02*
D03*
X902001Y725000D02*
D03*
Y683000D02*
D03*
Y599000D02*
D03*
X912501Y578000D02*
D03*
Y536000D02*
D03*
X902001Y515000D02*
D03*
X912501Y452000D02*
D03*
X902001Y305000D02*
D03*
Y221000D02*
D03*
X912501Y200000D02*
D03*
X902001Y179000D02*
D03*
X891501Y788000D02*
D03*
Y746000D02*
D03*
X881001Y725000D02*
D03*
Y683000D02*
D03*
X891501Y620000D02*
D03*
X881001Y599000D02*
D03*
X891501Y578000D02*
D03*
X881001Y515000D02*
D03*
X891501Y494000D02*
D03*
Y452000D02*
D03*
Y410000D02*
D03*
X881001Y347000D02*
D03*
X891501Y326000D02*
D03*
X881001Y305000D02*
D03*
Y221000D02*
D03*
X891501Y200000D02*
D03*
X881001Y179000D02*
D03*
X870501Y788000D02*
D03*
Y746000D02*
D03*
X860001Y725000D02*
D03*
Y641000D02*
D03*
X870501Y620000D02*
D03*
Y536000D02*
D03*
X860001Y515000D02*
D03*
X870501Y494000D02*
D03*
Y452000D02*
D03*
Y368000D02*
D03*
X860001Y263000D02*
D03*
Y221000D02*
D03*
X870501Y200000D02*
D03*
X860001Y179000D02*
D03*
X849501Y788000D02*
D03*
Y746000D02*
D03*
X839001Y725000D02*
D03*
Y641000D02*
D03*
X849501Y536000D02*
D03*
X839001Y515000D02*
D03*
X849501Y494000D02*
D03*
Y452000D02*
D03*
Y368000D02*
D03*
X839001Y263000D02*
D03*
Y221000D02*
D03*
X849501Y200000D02*
D03*
X839001Y179000D02*
D03*
X828501Y788000D02*
D03*
Y746000D02*
D03*
X818001Y725000D02*
D03*
X828501Y578000D02*
D03*
Y536000D02*
D03*
X818001Y515000D02*
D03*
X828501Y494000D02*
D03*
Y452000D02*
D03*
Y410000D02*
D03*
Y368000D02*
D03*
Y326000D02*
D03*
X818001Y263000D02*
D03*
Y221000D02*
D03*
X828501Y200000D02*
D03*
X818001Y179000D02*
D03*
X807501Y788000D02*
D03*
Y746000D02*
D03*
X797001Y725000D02*
D03*
Y683000D02*
D03*
X807501Y536000D02*
D03*
X797001Y515000D02*
D03*
X807501Y494000D02*
D03*
Y452000D02*
D03*
X797001Y263000D02*
D03*
Y221000D02*
D03*
X807501Y200000D02*
D03*
X797001Y179000D02*
D03*
X277000Y410000D02*
D03*
X180000Y563790D02*
D03*
X547500Y282500D02*
D03*
X450000Y100000D02*
D03*
X184441Y459059D02*
D03*
X250298Y494375D02*
D03*
X227500Y480000D02*
D03*
X645000Y952500D02*
D03*
X446861Y610639D02*
D03*
X285000Y312500D02*
D03*
X336147Y401103D02*
D03*
X382910Y459660D02*
D03*
X355250Y428000D02*
D03*
X393750Y441250D02*
D03*
X379000Y541250D02*
D03*
X357250Y553000D02*
D03*
X259500Y503500D02*
D03*
X288750Y541250D02*
D03*
X279750Y575000D02*
D03*
X270000Y560000D02*
D03*
X290000Y569000D02*
D03*
X268500Y571000D02*
D03*
X696250Y437000D02*
D03*
X358000Y849000D02*
D03*
X371000Y812000D02*
D03*
X222500Y135000D02*
D03*
X506750Y189250D02*
D03*
X562750Y166000D02*
D03*
X520250Y740000D02*
D03*
X553000Y685500D02*
D03*
X125250Y280000D02*
D03*
X104500Y674250D02*
D03*
X214250Y206000D02*
D03*
X163000Y218750D02*
D03*
X359750Y383250D02*
D03*
X129000Y226750D02*
D03*
X332000Y922750D02*
D03*
X546750Y374750D02*
D03*
X655750Y868250D02*
D03*
X654000Y293500D02*
D03*
X653500Y579250D02*
D03*
X645000Y375000D02*
D03*
X385000Y315000D02*
D03*
X120000Y1005000D02*
D03*
X440000Y820000D02*
D03*
X425000D02*
D03*
X410000D02*
D03*
X440000Y835000D02*
D03*
X425000D02*
D03*
X410000D02*
D03*
X440000Y850000D02*
D03*
X425000D02*
D03*
X410000D02*
D03*
X552000Y798000D02*
D03*
Y862000D02*
D03*
X548000Y499000D02*
D03*
X547000Y573000D02*
D03*
X84000Y438000D02*
D03*
X221000Y594000D02*
D03*
X100000Y640000D02*
D03*
X150000Y528000D02*
D03*
X133000Y547000D02*
D03*
X320000Y513000D02*
D03*
X186000Y396000D02*
D03*
X402000Y463000D02*
D03*
X320000Y245000D02*
D03*
X469000Y329000D02*
D03*
X420000Y327500D02*
D03*
X320000Y330000D02*
D03*
X318000Y599750D02*
D03*
X312000Y572000D02*
D03*
X293301Y605301D02*
D03*
X305000Y598000D02*
D03*
X618040Y344025D02*
D03*
X695000Y356000D02*
D03*
X615000Y740000D02*
D03*
X513000Y698000D02*
D03*
X447000Y646000D02*
D03*
X447044Y500000D02*
D03*
X412000Y521000D02*
D03*
X485000Y605000D02*
D03*
X378977Y590750D02*
D03*
X419000Y717000D02*
D03*
X308000Y700000D02*
D03*
X347000Y723000D02*
D03*
X362000Y696000D02*
D03*
X372500Y45000D02*
D03*
X405000Y167500D02*
D03*
X385000D02*
D03*
X372500D02*
D03*
X385000Y53040D02*
D03*
X405000Y61040D02*
D03*
X317500Y480000D02*
D03*
X1162500Y172500D02*
D03*
X332500Y625000D02*
D03*
X242500Y385000D02*
D03*
X292500Y785000D02*
D03*
X477000Y139000D02*
D03*
X475000Y205000D02*
D03*
X726000Y224000D02*
D03*
X716000Y510000D02*
D03*
X721000Y802000D02*
D03*
X617000Y850000D02*
D03*
X616000Y275000D02*
D03*
X618000Y400000D02*
D03*
X616000Y431000D02*
D03*
X617000Y552000D02*
D03*
Y630000D02*
D03*
X622000Y685000D02*
D03*
X622285Y918950D02*
D03*
M02*
