M48
;Layer_Color=9474304
;FILE_FORMAT=4:4
METRIC,LZ
;TYPE=PLATED
T1F00S00C0.3000
T2F00S00C1.0000
T3F00S00C1.1000
T4F00S00C1.6500
T5F00S00C3.1000
%
T01
X0006575Y0009125
X0014075
X0017825Y0016625
X0010325
X0025325
X002225Y00135
X0021575Y0009125
X0029075
X003725Y00045
X00385Y0005304
X00405Y0006104
X0044075Y0009125
X0045Y001
X00477Y00139
X0051575Y0009125
X0056275Y00166
X00405Y001675
X00385
X003725
X0062825Y0016625
X0066575Y0009125
X011625Y001725
X01375501Y00429
X01441501
X01452501
X01463501
X01458001Y0044
X01463501Y00451
X01458001Y00462
X01452501Y00473
X014535Y005
X014645
X01459Y00511
X014645Y00522
X01459Y00533
X014645Y00544
X014535
X01448Y00555
X01459
X014535Y00566
X014425
X014315
X014205
X014095
X013985
X013875
X013765
Y005
X013875
X013985
X014095
X014205
X014315
X014425
X013655
X013545
X01349Y00511
X0136
X01371
X013545Y00522
X01349Y00533
X0136
X013655Y00544
X013545
X01349Y00555
X0136
X01371
X013655Y00566
X013545
X013325
Y00544
Y00522
Y005
X01331501Y00473
X01353501
X01364501
X01359001Y00462
X01348001
X01353501Y00451
X01348001Y0044
X01359001
X01364501Y00429
X01353501
X01331501
X01337001Y00418
X01331501Y00407
Y00385
Y00363
Y00341
Y00319
Y00297
Y00275
Y00253
Y00451
X0114Y00489
X011345Y005
X011235
X011125
X011015
X01096Y00511
X01107
X01118
X011235Y00522
X011345
X0114Y00533
X011345Y00544
X011235
X011125
X011015
X01096Y00555
X01107
X01118
X011235Y00566
X011345
X0114Y00555
X011125Y00566
X011015
X0107Y0056
X0105
X0106Y0055
X0104
Y0053
X0106
X0105Y0054
X0107
Y0052
X0105
X0106Y0051
X0104
X0102
X0101Y0052
X0102Y0053
X0101Y0054
X0102Y0055
X0101Y0056
X0102Y0057
X0104
X0106
X0103Y0056
Y0054
Y0052
Y005
X0101
X0105
X0107
X01096Y00489
X01107
X01118
X011125Y00522
X011015
X01096Y00533
X01107
X01118
X0114Y00511
X0107Y0043
X0105
X0106Y0042
X0104
Y004
Y0038
X0106
X0105Y0039
X0106Y004
X0105Y0041
X0107
Y0039
Y0037
X0105
X0106Y0036
X0104
X0102
X0101Y0037
X0102Y0038
X0101Y0039
X0102Y004
X0101Y0041
X0102Y0042
X0101Y0043
X0103
Y0041
Y0039
Y0037
Y0035
X0101
X0105
X0107
Y0029
X0105
X0106Y0028
X0104
Y0026
Y0024
X0106
X0105Y0025
X0106Y0026
X0105Y0027
X0107
Y0025
Y0023
X0105
X0106Y0022
X0104
X0102
X0101Y0023
X0102Y0024
X0101Y0025
X0102Y0026
X0101Y0027
X0102Y0028
X0101Y0029
X0103
Y0027
Y0025
Y0023
Y0021
X0101
X0105
X0107
X011005Y00209
X011115
X01122501
X01117001Y0022
X01106001
X01095001
X011005Y00231
X011115
X01122501
X01117001Y00242
X01106001
X01095001
X011005Y00253
X011115
X01122501
X01117001Y00264
X01106001
X01095001
X011005Y00275
X011115
X01122501
X01117001Y00286
X01106001
X01095001
X011005Y00297
X011115
X01122501
X01128Y00308
X01139Y00286
Y00264
Y00242
Y0022
Y00198
X01117001
X01106001
X01095001
X00933501Y002
X00912501
X00891501
X00870501
X00849501
X00828501
X00807501
X00818001Y00221
X00839001
X00860001
X00881001
X00902001
Y00179
X00923001
X00944001
X00881001
X00860001
X00839001
X00818001
X00797001
Y00221
Y00263
X00818001
X00839001
X00860001
X00881001Y00305
X00902001
X00923001
X00891501Y00326
X00881001Y00347
X00870501Y00368
X00849501
X00828501
Y0041
Y00452
X00849501
X00870501
X00891501
X00912501
X00933501
Y00536
X00912501
X00902001Y00515
X00881001
X00860001
X00839001
X00818001
X00797001
X00807501Y00536
X00828501
X00849501
X00870501
Y00494
X00891501
X00849501
X00828501
X00807501
Y00452
X00891501Y0041
X00828501Y00326
X00695Y00356
X0066575Y0039125
X00645Y00375
X00618Y004
X00616Y00431
X0059075Y0039125
X0061804Y00344025
X00616Y00275
X00654Y002935
X00726Y00224
X0069625Y00437
X00716Y0051
X0066575Y0054125
X00617Y00552
X00547Y00573
X00548Y00499
X0055325Y0046625
X0047825
X00447044Y005
X00412Y00521
X00379Y0054125
X0035725Y00553
X0033075Y005275
X0032Y00513
X00297Y00503
X002595Y005035
X00250298Y00494375
X002275Y0048
X00237Y0052725
X0024775Y00544
X002415Y005525
X00257438Y00538353
X0028875Y0054125
X0029Y00569
X002685Y00571
X0027Y0056
X00312Y00572
X003175Y0048
X0038291Y0045966
X00402Y00463
X0039375Y0044125
X0035525Y00428
X00336147Y00401103
X0035975Y0038325
X0044075Y0039125
X0051575
X0054675Y0037475
X005475Y002825
X00469Y00329
X0042Y003275
X00385Y00315
X0032Y0033
X00285Y003125
X0029075Y0024125
X0032Y00245
X0021575Y0024125
X0021425Y00206
X002425Y00385
X00277Y0041
X00186Y00396
X00184441Y00459059
X0044075Y0024125
X00475Y00205
X0050675Y0018925
X00163Y0021875
X00129Y0022675
X0014075Y0024125
X0012525Y0028
X0017825Y0031625
X0014075Y0039125
X0006575
X00084Y00438
X0006575Y0054125
X00133Y00547
X0015Y00528
X0018Y0056379
X0006575Y0024125
X001Y0064
X001045Y0067425
X0014075Y0069125
X0006575
X0010325Y0076625
X0017825
X0014075Y0084125
X0017825Y0091625
X0010325
X0025325
X00332Y0092275
X00358Y00849
X00371Y00812
X0041Y0082
X00425
Y00835
X0041
Y0085
X00425
X0044
Y00835
Y0082
X0051575Y0084125
X00552Y00862
X0055325Y0091625
X0047825
X00552Y00798
X0055325Y0076625
X0052025Y0074
X00513Y00698
X00553Y006855
X0055325Y0061625
X00485Y00605
X00446861Y00610639
X00447Y00646
X0044075Y0069125
X00419Y00717
X0040175Y00678
X00362Y00696
X00347Y00723
X00308Y007
X0029075Y0069125
X00293301Y00605301
X00305Y00598
X00318Y0059975
X003325Y00625
X00378977Y0059075
X0027975Y00575
X00221Y00594
X0021575Y0084125
X0029075
X002925Y00785
X00615Y0074
X00622Y00685
X0059075Y0069125
X0066575
X0064475Y0066225
X00617Y0063
X006535Y0057925
X00828501Y00578
X00891501
X00912501
X00933501
X00923001Y00599
X00902001
X00881001
X00891501Y0062
X00870501
X00860001Y00641
X00839001
X00881001Y00683
X00902001
X00923001
X00944001
Y00725
X00923001
X00902001
X00881001
X00860001
X00839001
X00818001
X00797001
X00807501Y00746
X00828501
X00849501
X00870501
X00891501
X00912501
X00933501
X00891501Y00788
X00870501
X00849501
X00828501
X00807501
X00721Y00802
X0066575Y0084125
X0065575Y0086825
X00617Y0085
X00622285Y0091895
X0062725Y00965
X0061625
X00605
X00645Y009525
X00797001Y00683
X0101Y0068
X0102Y0067
Y0069
X0101Y007
X0102Y0071
X0101Y0072
X0103
X0104Y0071
X0106
X0105Y0072
X0107
Y007
X0105
X0106Y0069
Y0067
X0105Y0068
X0104Y0067
Y0069
X0103Y007
Y0068
Y0066
X0101
X0102Y0065
X0101Y0064
X0103
X0104Y0065
X0106
X0105Y0066
X0107
Y0068
Y0064
X0105
Y0058
X0107
X01096Y00577
X01107
X01118
X011125Y00588
X011015
X011345
X0114Y00577
X0103Y0058
X0101
Y0079
X0102Y008
X0101Y0081
X0102Y0082
X0101Y0083
X0102Y0084
X0101Y0085
X0102Y0086
X0101Y0087
X0103
X0104Y0086
X0106
X0105Y0085
X0106Y0084
Y0082
X0105Y0083
X0104Y0082
Y0084
X0103Y0083
Y0081
X0104Y008
X0106
X0105Y0079
X0107
Y0081
X0105
X0107Y0083
Y0085
Y0087
X0105
X0103Y0085
Y0079
X01095001Y00792
X01106001
X01117001
X01122501Y00803
X011115
X011005
X01095001Y00814
X01106001
X01117001
X01122501Y00825
X011115
X011005
X01095001Y00836
X01106001
X01117001
X01122501Y00847
X011115
X011005
X01095001Y00858
X01106001
X01117001
X01122501Y00869
X011115
X011005
X01139Y00858
Y00836
Y00814
Y00792
Y0077
X01128
X01122501Y00781
X011115
X011005
X01095001Y0077
X01106001
X011115Y00759
X01122501
X0107Y0093
X0105
X0106Y0094
X0104
X0102
X0101Y0095
X0102Y0096
X0101Y0097
X0103
X0104Y0096
X0106
X0105Y0097
X0107
Y0095
X0105
X0103
Y0093
X0101
X01331501Y00649
X01342501
X01353501Y00627
X01364501
X01359001Y00616
X01348001
X01353501Y00605
X01364501
X01359001Y00594
X01348001
X01331501Y00605
Y00627
X01452501
X01463501
X01458001Y00616
X01463501Y00605
X01458001Y00594
X0143Y0088
Y009
Y0092
X0141
Y009
X0139
Y0092
Y0088
X0141
Y0097
X0142Y0096
X0143Y0097
X0144Y0096
X014
X0139Y0097
X0138Y0096
Y0098
X0139Y0099
X0138Y01
X0139Y0101
X0138Y0102
X0139Y0103
X0138Y0104
X014
X0141Y0103
Y0101
X0142Y0102
X0143Y0101
X0144Y0102
X0143Y0103
X0144Y0104
X0142
Y01
X0144
X0143Y0099
X0144Y0098
X0142
X0141Y0099
X014Y0098
Y01
Y0102
Y0109
Y0111
X0141Y011
Y0112
X0139
Y011
X0138Y0111
Y0109
X0142
X0144
X0143Y011
X0144Y0111
X0143Y0112
X0144Y0113
X0143Y0114
Y0116
X0144Y0115
X0142
X0141Y0116
Y0114
X0139
Y0116
X0138Y0115
X014
Y0117
X0138
Y0113
X014
X0142
Y0111
Y0117
X0144
X0107Y0101
X0105
X0106Y01
X0104
Y0098
X0106
X0105Y0099
X0107
X0103
X0101
X0102Y0098
Y01
X0101Y0101
X0103
X0085325Y0106625
X0077825
X00762501Y01130001
X00753501
X00744501
X0070975Y0109575
X007105Y0108225
X0062825Y0106625
X0062Y0098
X00609
X0066575Y0099125
X0059075Y0114125
X006Y01235
X0062825Y0121625
X0077825
X0077Y0124
X008
X0082Y01225
X0084Y0124
X0085325Y0121625
X0081575Y0114125
X0051575
X00515Y0118
X0048
X0047825Y0121625
X0044Y01235
X0040325Y0121625
X0044075Y0114125
X0036575
X0029075
X0021575
X0025325Y0121625
X0032825Y0106625
X0036575Y0099125
X0037825Y00999
X0047825Y0106625
X0055325
Y0121625
X0054Y01235
X0021575Y0099125
X0012Y01005
Y0106
X0010325Y0106625
X0006575Y0114125
X0014075
X0010325Y0121625
X0017825
X0006575Y0099125
T02
X001905Y003015
Y003465
X001255
Y003015
X000454Y004138
Y004392
X0002
Y004138
Y004646
Y0049
X000454
Y004646
X0002Y005492
Y005746
Y006
Y006254
X002917Y007525
X003171
X003425
X003679
X003933
X004146Y0105
X0044
X004654
T03
X0004Y007392
Y007646
Y0079
Y008154
Y008408
X000654
Y008154
Y0079
X000654Y007646
Y007392
T04
X003104Y0121
X0035
T05
X0005Y0005
X0156Y0004
X0138Y003
X0074Y0047
Y0075
X0155Y0122
X01Y0109
X0005Y0121
M30
