G04*
G04 #@! TF.GenerationSoftware,Altium Limited,Altium Designer,23.6.0 (18)*
G04*
G04 Layer_Physical_Order=3*
G04 Layer_Color=16440176*
%FSLAX44Y44*%
%MOMM*%
G71*
G04*
G04 #@! TF.SameCoordinates,9FFC46F5-938B-46D8-84A6-C8BF988D1DB5*
G04*
G04*
G04 #@! TF.FilePolarity,Positive*
G04*
G01*
G75*
%ADD98C,3.5000*%
%ADD99O,1.7000X2.0000*%
%ADD100R,1.7000X2.0000*%
%ADD101R,1.5000X1.5000*%
%ADD102C,1.5000*%
%ADD103O,2.0000X1.7000*%
%ADD104R,2.0000X1.7000*%
%ADD105R,1.9000X1.7000*%
%ADD106O,1.9000X1.7000*%
%ADD107C,2.1500*%
%ADD108R,2.1500X2.1500*%
%ADD109C,0.7000*%
G36*
X1120000Y900000D02*
X1000000D01*
X990000Y910000D01*
Y1030000D01*
X1120000D01*
X1120000Y900000D01*
D02*
G37*
G36*
X1465000Y800000D02*
X1365000D01*
X1365000Y1195000D01*
X1465000D01*
Y800000D01*
D02*
G37*
G36*
X1105000Y605000D02*
X1000000D01*
X990000Y615000D01*
Y735000D01*
X1000000Y745000D01*
X1105000D01*
Y605000D01*
D02*
G37*
G36*
X1340000Y820000D02*
X1340000Y660000D01*
X1360000Y640000D01*
X1460000Y640000D01*
X1470000Y630000D01*
Y590000D01*
X1459923Y579923D01*
X1185001Y579999D01*
X1130000Y635000D01*
Y730000D01*
X1095000Y765000D01*
X990000Y765000D01*
Y885000D01*
X1275000D01*
X1340000Y820000D01*
D02*
G37*
G36*
X1170000Y570000D02*
X1460000Y570000D01*
X1470000Y560000D01*
Y500000D01*
X1460000Y490000D01*
X1175000D01*
X1155000Y470000D01*
X995000D01*
X990000Y475000D01*
Y585000D01*
X1000000Y595000D01*
X1145000D01*
X1170000Y570000D01*
D02*
G37*
G36*
X1470000Y470000D02*
Y430000D01*
X1460000Y420000D01*
X1360000Y420000D01*
X1340000Y400000D01*
X1340000Y250000D01*
X1280000Y190000D01*
X990000D01*
Y310000D01*
X1100000Y310000D01*
X1130000Y340000D01*
Y420000D01*
X1189967Y479967D01*
X1459959Y480041D01*
X1470000Y470000D01*
D02*
G37*
G36*
X1000000Y460000D02*
X1115000D01*
Y335000D01*
X1100000Y320000D01*
X1100000Y320000D01*
X1000000D01*
X990000Y330000D01*
Y450000D01*
X1000000Y460000D01*
X1000000Y460000D01*
D02*
G37*
G36*
X955000Y155000D02*
X785000D01*
Y815000D01*
X955000D01*
Y155000D01*
D02*
G37*
G36*
X865000Y1030000D02*
X703000D01*
Y5000D01*
X34260D01*
X29035Y6254D01*
X23891Y8385D01*
X19144Y11294D01*
X14910Y14910D01*
X11294Y19144D01*
X8385Y23891D01*
X6254Y29035D01*
X4954Y34449D01*
X4538Y39746D01*
X4588Y40000D01*
Y1220000D01*
X4538Y1220254D01*
X4954Y1225551D01*
X6254Y1230965D01*
X8385Y1236109D01*
X11294Y1240856D01*
X14910Y1245090D01*
X19144Y1248706D01*
X23891Y1251615D01*
X29035Y1253746D01*
X34260Y1255000D01*
X865000D01*
Y1030000D01*
D02*
G37*
%LPC*%
G36*
X323690Y1223290D02*
X297110D01*
Y1196710D01*
X323690D01*
Y1223290D01*
D02*
G37*
G36*
X50000Y1237084D02*
X45763Y1236750D01*
X41631Y1235758D01*
X37704Y1234132D01*
X34081Y1231911D01*
X30849Y1229151D01*
X28089Y1225919D01*
X25868Y1222296D01*
X24242Y1218369D01*
X23250Y1214237D01*
X22917Y1210000D01*
X23250Y1205763D01*
X24242Y1201631D01*
X25868Y1197704D01*
X28089Y1194081D01*
X30849Y1190849D01*
X34081Y1188089D01*
X37704Y1185868D01*
X41631Y1184242D01*
X45763Y1183250D01*
X50000Y1182916D01*
X54237Y1183250D01*
X58369Y1184242D01*
X62296Y1185868D01*
X65919Y1188089D01*
X69151Y1190849D01*
X71911Y1194081D01*
X74132Y1197704D01*
X75758Y1201631D01*
X76750Y1205763D01*
X77084Y1210000D01*
X76750Y1214237D01*
X75758Y1218369D01*
X74132Y1222296D01*
X71911Y1225919D01*
X69151Y1229151D01*
X65919Y1231911D01*
X62296Y1234132D01*
X58369Y1235758D01*
X54237Y1236750D01*
X50000Y1237084D01*
D02*
G37*
G36*
X425640Y1062540D02*
X403560D01*
Y1037460D01*
X425640D01*
Y1062540D01*
D02*
G37*
G36*
X465400Y1062635D02*
X462518Y1062256D01*
X459832Y1061143D01*
X457526Y1059374D01*
X455757Y1057068D01*
X454644Y1054382D01*
X454265Y1051500D01*
Y1048500D01*
X454644Y1045618D01*
X455757Y1042932D01*
X457526Y1040626D01*
X459832Y1038857D01*
X462518Y1037744D01*
X465400Y1037365D01*
X468282Y1037744D01*
X470968Y1038857D01*
X473274Y1040626D01*
X475043Y1042932D01*
X476156Y1045618D01*
X476535Y1048500D01*
Y1051500D01*
X476156Y1054382D01*
X475043Y1057068D01*
X473274Y1059374D01*
X470968Y1061143D01*
X468282Y1062256D01*
X465400Y1062635D01*
D02*
G37*
G36*
X440000D02*
X437118Y1062256D01*
X434432Y1061143D01*
X432126Y1059374D01*
X430357Y1057068D01*
X429244Y1054382D01*
X428865Y1051500D01*
Y1048500D01*
X429244Y1045618D01*
X430357Y1042932D01*
X432126Y1040626D01*
X434432Y1038857D01*
X437118Y1037744D01*
X440000Y1037365D01*
X442882Y1037744D01*
X445568Y1038857D01*
X447874Y1040626D01*
X449643Y1042932D01*
X450756Y1045618D01*
X451135Y1048500D01*
Y1051500D01*
X450756Y1054382D01*
X449643Y1057068D01*
X447874Y1059374D01*
X445568Y1061143D01*
X442882Y1062256D01*
X440000Y1062635D01*
D02*
G37*
G36*
X379245Y1004000D02*
X377255D01*
X375418Y1003239D01*
X374011Y1001832D01*
X373250Y999995D01*
Y998005D01*
X374011Y996168D01*
X375418Y994761D01*
X377255Y994000D01*
X379245D01*
X381082Y994761D01*
X382489Y996168D01*
X383250Y998005D01*
Y999995D01*
X382489Y1001832D01*
X381082Y1003239D01*
X379245Y1004000D01*
D02*
G37*
G36*
X620995Y985000D02*
X619005D01*
X617168Y984239D01*
X615761Y982832D01*
X615173Y981413D01*
X613827D01*
X613239Y982832D01*
X611832Y984239D01*
X609995Y985000D01*
X608005D01*
X606168Y984239D01*
X604761Y982832D01*
X604000Y980995D01*
Y979005D01*
X604761Y977168D01*
X606168Y975761D01*
X608005Y975000D01*
X609995D01*
X611832Y975761D01*
X613239Y977168D01*
X613827Y978587D01*
X615173D01*
X615761Y977168D01*
X617168Y975761D01*
X619005Y975000D01*
X620995D01*
X622832Y975761D01*
X624239Y977168D01*
X625000Y979005D01*
Y980995D01*
X624239Y982832D01*
X622832Y984239D01*
X620995Y985000D01*
D02*
G37*
G36*
X628245Y970000D02*
X626255D01*
X624418Y969239D01*
X623011Y967832D01*
X622423Y966413D01*
X621077D01*
X620489Y967832D01*
X619082Y969239D01*
X617245Y970000D01*
X615255D01*
X613418Y969239D01*
X612011Y967832D01*
X611250Y965995D01*
X610000D01*
X609239Y967832D01*
X607832Y969239D01*
X605995Y970000D01*
X604005D01*
X602168Y969239D01*
X600761Y967832D01*
X600000Y965995D01*
Y964005D01*
X600761Y962168D01*
X602168Y960761D01*
X604005Y960000D01*
X605995D01*
X607832Y960761D01*
X609239Y962168D01*
X610000Y964005D01*
X611250D01*
X612011Y962168D01*
X613418Y960761D01*
X615255Y960000D01*
X617245D01*
X619082Y960761D01*
X620489Y962168D01*
X621077Y963587D01*
X622423D01*
X623011Y962168D01*
X624418Y960761D01*
X626255Y960000D01*
X628245D01*
X630082Y960761D01*
X631489Y962168D01*
X632250Y964005D01*
Y965995D01*
X631489Y967832D01*
X630082Y969239D01*
X628245Y970000D01*
D02*
G37*
G36*
X623280Y923950D02*
X621290D01*
X619453Y923189D01*
X618046Y921782D01*
X617285Y919944D01*
Y917955D01*
X618046Y916118D01*
X619453Y914711D01*
X621290Y913950D01*
X623280D01*
X625117Y914711D01*
X626524Y916118D01*
X627285Y917955D01*
Y919944D01*
X626524Y921782D01*
X625117Y923189D01*
X623280Y923950D01*
D02*
G37*
G36*
X617995Y855000D02*
X616005D01*
X614168Y854239D01*
X612761Y852832D01*
X612000Y850995D01*
Y849005D01*
X612761Y847168D01*
X614168Y845761D01*
X616005Y845000D01*
X617995D01*
X619832Y845761D01*
X621239Y847168D01*
X622000Y849005D01*
Y850995D01*
X621239Y852832D01*
X619832Y854239D01*
X617995Y855000D01*
D02*
G37*
G36*
X440995D02*
X439005D01*
X437168Y854239D01*
X435761Y852832D01*
X435000Y850995D01*
Y849005D01*
X435761Y847168D01*
X437168Y845761D01*
X439005Y845000D01*
X440995D01*
X442832Y845761D01*
X444239Y847168D01*
X445000Y849005D01*
Y850995D01*
X444239Y852832D01*
X442832Y854239D01*
X440995Y855000D01*
D02*
G37*
G36*
X425995D02*
X424005D01*
X422168Y854239D01*
X420761Y852832D01*
X420000Y850995D01*
Y849005D01*
X420761Y847168D01*
X422168Y845761D01*
X424005Y845000D01*
X425995D01*
X427832Y845761D01*
X429239Y847168D01*
X430000Y849005D01*
Y850995D01*
X429239Y852832D01*
X427832Y854239D01*
X425995Y855000D01*
D02*
G37*
G36*
X410995D02*
X409005D01*
X407168Y854239D01*
X405761Y852832D01*
X405000Y850995D01*
Y849005D01*
X405761Y847168D01*
X407168Y845761D01*
X409005Y845000D01*
X410995D01*
X412832Y845761D01*
X414239Y847168D01*
X415000Y849005D01*
Y850995D01*
X414239Y852832D01*
X412832Y854239D01*
X410995Y855000D01*
D02*
G37*
G36*
X66400Y851935D02*
X64400D01*
X61518Y851556D01*
X58832Y850443D01*
X56526Y848674D01*
X54757Y846368D01*
X53644Y843682D01*
X53355Y841489D01*
X53340Y841375D01*
X52060D01*
X52045Y841488D01*
X51756Y843682D01*
X50643Y846368D01*
X48874Y848674D01*
X46568Y850443D01*
X43882Y851556D01*
X41000Y851935D01*
X39000D01*
X36118Y851556D01*
X33432Y850443D01*
X31126Y848674D01*
X29357Y846368D01*
X28244Y843682D01*
X27865Y840800D01*
X28244Y837918D01*
X29357Y835232D01*
X31126Y832926D01*
X33432Y831157D01*
X36118Y830044D01*
X39000Y829665D01*
X41000D01*
X43882Y830044D01*
X46568Y831157D01*
X48874Y832926D01*
X50643Y835232D01*
X51756Y837918D01*
X52045Y840111D01*
X52060Y840225D01*
X53340D01*
X53355Y840111D01*
X53644Y837918D01*
X54757Y835232D01*
X56526Y832926D01*
X58832Y831157D01*
X61518Y830044D01*
X64400Y829665D01*
X66400D01*
X69282Y830044D01*
X71968Y831157D01*
X74274Y832926D01*
X76043Y835232D01*
X77156Y837918D01*
X77535Y840800D01*
X77156Y843682D01*
X76043Y846368D01*
X74274Y848674D01*
X71968Y850443D01*
X69282Y851556D01*
X66400Y851935D01*
D02*
G37*
G36*
X440995Y840000D02*
X439005D01*
X437168Y839239D01*
X435761Y837832D01*
X435000Y835995D01*
Y834005D01*
X435761Y832168D01*
X437168Y830761D01*
X439005Y830000D01*
X440995D01*
X442832Y830761D01*
X444239Y832168D01*
X445000Y834005D01*
Y835995D01*
X444239Y837832D01*
X442832Y839239D01*
X440995Y840000D01*
D02*
G37*
G36*
X425995D02*
X424005D01*
X422168Y839239D01*
X420761Y837832D01*
X420000Y835995D01*
Y834005D01*
X420761Y832168D01*
X422168Y830761D01*
X424005Y830000D01*
X425995D01*
X427832Y830761D01*
X429239Y832168D01*
X430000Y834005D01*
Y835995D01*
X429239Y837832D01*
X427832Y839239D01*
X425995Y840000D01*
D02*
G37*
G36*
X410995D02*
X409005D01*
X407168Y839239D01*
X405761Y837832D01*
X405000Y835995D01*
Y834005D01*
X405761Y832168D01*
X407168Y830761D01*
X409005Y830000D01*
X410995D01*
X412832Y830761D01*
X414239Y832168D01*
X415000Y834005D01*
Y835995D01*
X414239Y837832D01*
X412832Y839239D01*
X410995Y840000D01*
D02*
G37*
G36*
X66400Y826535D02*
X64400D01*
X61518Y826156D01*
X58832Y825043D01*
X56526Y823274D01*
X54757Y820968D01*
X53644Y818282D01*
X53355Y816089D01*
X53340Y815975D01*
X52060D01*
X52045Y816088D01*
X51756Y818282D01*
X50643Y820968D01*
X48874Y823274D01*
X46568Y825043D01*
X43882Y826156D01*
X41000Y826535D01*
X39000D01*
X36118Y826156D01*
X33432Y825043D01*
X31126Y823274D01*
X29357Y820968D01*
X28244Y818282D01*
X27865Y815400D01*
X28244Y812518D01*
X29357Y809832D01*
X31126Y807526D01*
X33432Y805757D01*
X36118Y804644D01*
X39000Y804265D01*
X41000D01*
X43882Y804644D01*
X46568Y805757D01*
X48874Y807526D01*
X50643Y809832D01*
X51756Y812518D01*
X52045Y814712D01*
X52060Y814825D01*
X53340D01*
X53355Y814712D01*
X53644Y812518D01*
X54757Y809832D01*
X56526Y807526D01*
X58832Y805757D01*
X61518Y804644D01*
X64400Y804265D01*
X66400D01*
X69282Y804644D01*
X71968Y805757D01*
X74274Y807526D01*
X76043Y809832D01*
X77156Y812518D01*
X77535Y815400D01*
X77156Y818282D01*
X76043Y820968D01*
X74274Y823274D01*
X71968Y825043D01*
X69282Y826156D01*
X66400Y826535D01*
D02*
G37*
G36*
X440995Y825000D02*
X439005D01*
X437168Y824239D01*
X435761Y822832D01*
X435000Y820995D01*
Y819005D01*
X435761Y817168D01*
X437168Y815761D01*
X439005Y815000D01*
X440995D01*
X442832Y815761D01*
X444239Y817168D01*
X445000Y819005D01*
Y820995D01*
X444239Y822832D01*
X442832Y824239D01*
X440995Y825000D01*
D02*
G37*
G36*
X425995D02*
X424005D01*
X422168Y824239D01*
X420761Y822832D01*
X420000Y820995D01*
Y819005D01*
X420761Y817168D01*
X422168Y815761D01*
X424005Y815000D01*
X425995D01*
X427832Y815761D01*
X429239Y817168D01*
X430000Y819005D01*
Y820995D01*
X429239Y822832D01*
X427832Y824239D01*
X425995Y825000D01*
D02*
G37*
G36*
X410995D02*
X409005D01*
X407168Y824239D01*
X405761Y822832D01*
X405000Y820995D01*
Y819005D01*
X405761Y817168D01*
X407168Y815761D01*
X409005Y815000D01*
X410995D01*
X412832Y815761D01*
X414239Y817168D01*
X415000Y819005D01*
Y820995D01*
X414239Y822832D01*
X412832Y824239D01*
X410995Y825000D01*
D02*
G37*
G36*
X293495Y790000D02*
X291505D01*
X289668Y789239D01*
X288261Y787832D01*
X287500Y785995D01*
Y784005D01*
X288261Y782168D01*
X289668Y780761D01*
X291505Y780000D01*
X293495D01*
X295332Y780761D01*
X296739Y782168D01*
X297500Y784005D01*
Y785995D01*
X296739Y787832D01*
X295332Y789239D01*
X293495Y790000D01*
D02*
G37*
G36*
X66400Y775735D02*
X64400D01*
X61518Y775356D01*
X58832Y774243D01*
X56526Y772474D01*
X54757Y770168D01*
X53644Y767482D01*
X53355Y765288D01*
X53340Y765175D01*
X52059D01*
X52045Y765288D01*
X51756Y767482D01*
X50643Y770168D01*
X48874Y772474D01*
X46568Y774243D01*
X43882Y775356D01*
X41000Y775735D01*
X39000D01*
X36118Y775356D01*
X33432Y774243D01*
X31126Y772474D01*
X29357Y770168D01*
X28244Y767482D01*
X27865Y764600D01*
X28244Y761718D01*
X29357Y759032D01*
X31126Y756726D01*
X33432Y754957D01*
X36118Y753844D01*
X39000Y753465D01*
X41000D01*
X43882Y753844D01*
X46568Y754957D01*
X48874Y756726D01*
X50643Y759032D01*
X51756Y761718D01*
X52045Y763912D01*
X52060Y764025D01*
X53340D01*
X53355Y763912D01*
X53644Y761718D01*
X54757Y759032D01*
X56526Y756726D01*
X58832Y754957D01*
X61518Y753844D01*
X64400Y753465D01*
X66400D01*
X69282Y753844D01*
X71968Y754957D01*
X74274Y756726D01*
X76043Y759032D01*
X77156Y761718D01*
X77535Y764600D01*
X77156Y767482D01*
X76043Y770168D01*
X74274Y772474D01*
X71968Y774243D01*
X69282Y775356D01*
X66400Y775735D01*
D02*
G37*
G36*
X302740Y765040D02*
X280660D01*
Y739960D01*
X302740D01*
Y765040D01*
D02*
G37*
G36*
X367900Y765135D02*
X365018Y764756D01*
X362332Y763643D01*
X360026Y761874D01*
X358257Y759568D01*
X357144Y756882D01*
X356765Y754000D01*
Y751000D01*
X357144Y748118D01*
X358257Y745432D01*
X360026Y743126D01*
X362332Y741357D01*
X365018Y740244D01*
X367900Y739865D01*
X370782Y740244D01*
X373468Y741357D01*
X375774Y743126D01*
X377543Y745432D01*
X378656Y748118D01*
X379035Y751000D01*
Y754000D01*
X378656Y756882D01*
X377543Y759568D01*
X375774Y761874D01*
X373468Y763643D01*
X370782Y764756D01*
X367900Y765135D01*
D02*
G37*
G36*
X342500D02*
X339618Y764756D01*
X336932Y763643D01*
X334626Y761874D01*
X332857Y759568D01*
X331744Y756882D01*
X331365Y754000D01*
Y751000D01*
X331744Y748118D01*
X332857Y745432D01*
X334626Y743126D01*
X336932Y741357D01*
X339618Y740244D01*
X342500Y739865D01*
X345382Y740244D01*
X348068Y741357D01*
X350374Y743126D01*
X352143Y745432D01*
X353256Y748118D01*
X353635Y751000D01*
Y754000D01*
X353256Y756882D01*
X352143Y759568D01*
X350374Y761874D01*
X348068Y763643D01*
X345382Y764756D01*
X342500Y765135D01*
D02*
G37*
G36*
X317100D02*
X314218Y764756D01*
X311532Y763643D01*
X309226Y761874D01*
X307457Y759568D01*
X306344Y756882D01*
X305965Y754000D01*
Y751000D01*
X306344Y748118D01*
X307457Y745432D01*
X309226Y743126D01*
X311532Y741357D01*
X314218Y740244D01*
X317100Y739865D01*
X319982Y740244D01*
X322668Y741357D01*
X324974Y743126D01*
X326743Y745432D01*
X327856Y748118D01*
X328235Y751000D01*
Y754000D01*
X327856Y756882D01*
X326743Y759568D01*
X324974Y761874D01*
X322668Y763643D01*
X319982Y764756D01*
X317100Y765135D01*
D02*
G37*
G36*
X615995Y745000D02*
X614005D01*
X612168Y744239D01*
X610761Y742832D01*
X610000Y740995D01*
Y739006D01*
X610761Y737168D01*
X612168Y735761D01*
X614005Y735000D01*
X615995D01*
X617832Y735761D01*
X619239Y737168D01*
X620000Y739006D01*
Y740995D01*
X619239Y742832D01*
X617832Y744239D01*
X615995Y745000D01*
D02*
G37*
G36*
X41000Y750335D02*
X39000D01*
X36118Y749956D01*
X33432Y748843D01*
X31126Y747074D01*
X29357Y744768D01*
X28244Y742082D01*
X27865Y739200D01*
X28244Y736318D01*
X29357Y733632D01*
X31126Y731326D01*
X33432Y729557D01*
X36118Y728444D01*
X39000Y728065D01*
X41000D01*
X43882Y728444D01*
X46568Y729557D01*
X48874Y731326D01*
X50643Y733632D01*
X51756Y736318D01*
X52021Y738328D01*
X52090Y738856D01*
X53360Y738773D01*
Y728160D01*
X77440D01*
Y750240D01*
X53360D01*
Y739627D01*
X52090Y739544D01*
X52021Y740072D01*
X51756Y742082D01*
X50643Y744768D01*
X48874Y747074D01*
X46568Y748843D01*
X43882Y749956D01*
X41000Y750335D01*
D02*
G37*
G36*
X419995Y722000D02*
X418005D01*
X416168Y721239D01*
X414761Y719832D01*
X414000Y717995D01*
Y716005D01*
X414761Y714168D01*
X416168Y712761D01*
X418005Y712000D01*
X419995D01*
X421832Y712761D01*
X423239Y714168D01*
X424000Y716005D01*
Y717995D01*
X423239Y719832D01*
X421832Y721239D01*
X419995Y722000D01*
D02*
G37*
G36*
X308995Y705000D02*
X307005D01*
X305168Y704239D01*
X303761Y702832D01*
X303000Y700995D01*
Y699005D01*
X303761Y697168D01*
X305168Y695761D01*
X307005Y695000D01*
X308995D01*
X310832Y695761D01*
X312239Y697168D01*
X313000Y699005D01*
Y700995D01*
X312239Y702832D01*
X310832Y704239D01*
X308995Y705000D01*
D02*
G37*
G36*
X513995Y703000D02*
X512005D01*
X510168Y702239D01*
X508761Y700832D01*
X508000Y698995D01*
Y697005D01*
X508761Y695168D01*
X510168Y693761D01*
X512005Y693000D01*
X513995D01*
X515832Y693761D01*
X517239Y695168D01*
X518000Y697005D01*
Y698995D01*
X517239Y700832D01*
X515832Y702239D01*
X513995Y703000D01*
D02*
G37*
G36*
X622995Y690000D02*
X621005D01*
X619168Y689239D01*
X617761Y687832D01*
X617000Y685995D01*
Y684005D01*
X617761Y682168D01*
X619168Y680761D01*
X621005Y680000D01*
X622995D01*
X624832Y680761D01*
X626239Y682168D01*
X627000Y684005D01*
Y685995D01*
X626239Y687832D01*
X624832Y689239D01*
X622995Y690000D01*
D02*
G37*
G36*
X447995Y651000D02*
X446005D01*
X444168Y650239D01*
X442761Y648832D01*
X442000Y646995D01*
Y645005D01*
X442761Y643168D01*
X444168Y641761D01*
X446005Y641000D01*
X447995D01*
X449832Y641761D01*
X451239Y643168D01*
X452000Y645005D01*
Y646995D01*
X451239Y648832D01*
X449832Y650239D01*
X447995Y651000D01*
D02*
G37*
G36*
X100995Y645000D02*
X99005D01*
X97168Y644239D01*
X95761Y642832D01*
X95000Y640995D01*
Y639006D01*
X95761Y637168D01*
X97168Y635761D01*
X99005Y635000D01*
X100995D01*
X102832Y635761D01*
X104239Y637168D01*
X105000Y639006D01*
Y640995D01*
X104239Y642832D01*
X102832Y644239D01*
X100995Y645000D01*
D02*
G37*
G36*
X617995Y635000D02*
X616005D01*
X614168Y634239D01*
X612761Y632832D01*
X612000Y630995D01*
Y629005D01*
X612761Y627168D01*
X614168Y625761D01*
X616005Y625000D01*
X617995D01*
X619832Y625761D01*
X621239Y627168D01*
X622000Y629005D01*
Y630995D01*
X621239Y632832D01*
X619832Y634239D01*
X617995Y635000D01*
D02*
G37*
G36*
X333495Y630000D02*
X331505D01*
X329668Y629239D01*
X328261Y627832D01*
X327500Y625995D01*
Y624006D01*
X328261Y622168D01*
X329668Y620761D01*
X331505Y620000D01*
X333495D01*
X335332Y620761D01*
X336739Y622168D01*
X337500Y624006D01*
Y625995D01*
X336739Y627832D01*
X335332Y629239D01*
X333495Y630000D01*
D02*
G37*
G36*
X32540Y636440D02*
X7460D01*
Y614360D01*
X32540D01*
Y636440D01*
D02*
G37*
G36*
X447855Y615639D02*
X445866D01*
X444029Y614878D01*
X442622Y613471D01*
X441861Y611634D01*
Y609645D01*
X442622Y607807D01*
X444029Y606400D01*
X445866Y605639D01*
X447855D01*
X449693Y606400D01*
X451100Y607807D01*
X451861Y609645D01*
Y611634D01*
X451100Y613471D01*
X449693Y614878D01*
X447855Y615639D01*
D02*
G37*
G36*
X294296Y610301D02*
X292307D01*
X290469Y609540D01*
X289062Y608134D01*
X288301Y606296D01*
Y604307D01*
X289062Y602469D01*
X290469Y601063D01*
X292307Y600301D01*
X294296D01*
X296133Y601063D01*
X297540Y602469D01*
X298301Y604307D01*
Y606296D01*
X297540Y608134D01*
X296133Y609540D01*
X294296Y610301D01*
D02*
G37*
G36*
X485995Y610000D02*
X484005D01*
X482168Y609239D01*
X480761Y607832D01*
X480000Y605995D01*
Y604005D01*
X480761Y602168D01*
X482168Y600761D01*
X484005Y600000D01*
X485995D01*
X487832Y600761D01*
X489239Y602168D01*
X490000Y604005D01*
Y605995D01*
X489239Y607832D01*
X487832Y609239D01*
X485995Y610000D01*
D02*
G37*
G36*
X318995Y604750D02*
X317005D01*
X315168Y603989D01*
X313761Y602582D01*
X313000Y600745D01*
Y598755D01*
X313761Y596918D01*
X315168Y595511D01*
X317005Y594750D01*
X318995D01*
X320832Y595511D01*
X322239Y596918D01*
X323000Y598755D01*
Y600745D01*
X322239Y602582D01*
X320832Y603989D01*
X318995Y604750D01*
D02*
G37*
G36*
X305995Y603000D02*
X304005D01*
X302168Y602239D01*
X300761Y600832D01*
X300000Y598995D01*
Y597005D01*
X300761Y595168D01*
X302168Y593761D01*
X304005Y593000D01*
X305995D01*
X307832Y593761D01*
X309239Y595168D01*
X310000Y597005D01*
Y598995D01*
X309239Y600832D01*
X307832Y602239D01*
X305995Y603000D01*
D02*
G37*
G36*
X221995Y599000D02*
X220005D01*
X218168Y598239D01*
X216761Y596832D01*
X216000Y594995D01*
Y593005D01*
X216761Y591168D01*
X218168Y589761D01*
X220005Y589000D01*
X221995D01*
X223832Y589761D01*
X225239Y591168D01*
X226000Y593005D01*
Y594995D01*
X225239Y596832D01*
X223832Y598239D01*
X221995Y599000D01*
D02*
G37*
G36*
X21500Y611135D02*
X18500D01*
X15618Y610756D01*
X12932Y609643D01*
X10626Y607874D01*
X8857Y605568D01*
X7744Y602882D01*
X7365Y600000D01*
X7744Y597118D01*
X8857Y594432D01*
X10626Y592126D01*
X12932Y590357D01*
X15618Y589244D01*
X18500Y588865D01*
X21500D01*
X24382Y589244D01*
X27068Y590357D01*
X29374Y592126D01*
X31143Y594432D01*
X32256Y597118D01*
X32635Y600000D01*
X32256Y602882D01*
X31143Y605568D01*
X29374Y607874D01*
X27068Y609643D01*
X24382Y610756D01*
X21500Y611135D01*
D02*
G37*
G36*
X280745Y580000D02*
X278755D01*
X276918Y579239D01*
X275511Y577832D01*
X274750Y575995D01*
Y574005D01*
X275511Y572168D01*
X276918Y570761D01*
X278755Y570000D01*
X280745D01*
X282582Y570761D01*
X283989Y572168D01*
X284750Y574005D01*
Y575995D01*
X283989Y577832D01*
X282582Y579239D01*
X280745Y580000D01*
D02*
G37*
G36*
X312995Y577000D02*
X311005D01*
X309168Y576239D01*
X307761Y574832D01*
X307000Y572995D01*
Y571005D01*
X307761Y569168D01*
X309168Y567761D01*
X311005Y567000D01*
X312995D01*
X314832Y567761D01*
X316239Y569168D01*
X317000Y571005D01*
Y572995D01*
X316239Y574832D01*
X314832Y576239D01*
X312995Y577000D01*
D02*
G37*
G36*
X290995Y574000D02*
X289005D01*
X287168Y573239D01*
X285761Y571832D01*
X285000Y569995D01*
Y568005D01*
X285761Y566168D01*
X287168Y564761D01*
X289005Y564000D01*
X290995D01*
X292832Y564761D01*
X294239Y566168D01*
X295000Y568005D01*
Y569995D01*
X294239Y571832D01*
X292832Y573239D01*
X290995Y574000D01*
D02*
G37*
G36*
X21500Y585735D02*
X18500D01*
X15618Y585356D01*
X12932Y584243D01*
X10626Y582474D01*
X8857Y580168D01*
X7744Y577482D01*
X7365Y574600D01*
X7744Y571718D01*
X8857Y569032D01*
X10626Y566726D01*
X12932Y564957D01*
X15618Y563844D01*
X18500Y563465D01*
X21500D01*
X24382Y563844D01*
X27068Y564957D01*
X29374Y566726D01*
X31143Y569032D01*
X32256Y571718D01*
X32635Y574600D01*
X32256Y577482D01*
X31143Y580168D01*
X29374Y582474D01*
X27068Y584243D01*
X24382Y585356D01*
X21500Y585735D01*
D02*
G37*
G36*
X269495Y576000D02*
X267505D01*
X265668Y575239D01*
X264261Y573832D01*
X263500Y571995D01*
Y570005D01*
X264261Y568168D01*
X265668Y566761D01*
X267505Y566000D01*
X268101D01*
X268354Y564730D01*
X267168Y564239D01*
X265761Y562832D01*
X265000Y560995D01*
Y559005D01*
X265761Y557168D01*
X267168Y555761D01*
X269005Y555000D01*
X270995D01*
X272832Y555761D01*
X274239Y557168D01*
X275000Y559005D01*
Y560995D01*
X274239Y562832D01*
X272832Y564239D01*
X270995Y565000D01*
X270399D01*
X270146Y566270D01*
X271332Y566761D01*
X272739Y568168D01*
X273500Y570005D01*
Y571995D01*
X272739Y573832D01*
X271332Y575239D01*
X269495Y576000D01*
D02*
G37*
G36*
X617995Y557000D02*
X616005D01*
X614168Y556239D01*
X612761Y554832D01*
X612000Y552995D01*
Y551006D01*
X612761Y549168D01*
X614168Y547761D01*
X616005Y547000D01*
X617995D01*
X619832Y547761D01*
X621239Y549168D01*
X622000Y551006D01*
Y552995D01*
X621239Y554832D01*
X619832Y556239D01*
X617995Y557000D01*
D02*
G37*
G36*
X379995Y546250D02*
X378005D01*
X376168Y545489D01*
X374761Y544082D01*
X374000Y542245D01*
Y540255D01*
X374761Y538418D01*
X376168Y537011D01*
X378005Y536250D01*
X379995D01*
X381832Y537011D01*
X383239Y538418D01*
X384000Y540255D01*
Y542245D01*
X383239Y544082D01*
X381832Y545489D01*
X379995Y546250D01*
D02*
G37*
G36*
X289745D02*
X287755D01*
X285918Y545489D01*
X284511Y544082D01*
X283750Y542245D01*
Y540255D01*
X284511Y538418D01*
X285918Y537011D01*
X287755Y536250D01*
X289745D01*
X291582Y537011D01*
X292989Y538418D01*
X293750Y540255D01*
Y542245D01*
X292989Y544082D01*
X291582Y545489D01*
X289745Y546250D01*
D02*
G37*
G36*
X242495Y557500D02*
X240505D01*
X238668Y556739D01*
X237261Y555332D01*
X236500Y553495D01*
Y551506D01*
X237261Y549668D01*
X238668Y548261D01*
X240505Y547500D01*
X242495D01*
X242523Y547512D01*
X242567Y547481D01*
X243368Y546487D01*
X242750Y544995D01*
Y543005D01*
X243511Y541168D01*
X244918Y539761D01*
X246755Y539000D01*
X248745D01*
X250582Y539761D01*
X251697Y540876D01*
X252773Y540156D01*
X252439Y539347D01*
Y537358D01*
X253200Y535521D01*
X254606Y534114D01*
X256444Y533353D01*
X258433D01*
X260271Y534114D01*
X261677Y535521D01*
X262438Y537358D01*
Y539347D01*
X261677Y541185D01*
X260271Y542592D01*
X258433Y543353D01*
X256444D01*
X254606Y542592D01*
X253492Y541477D01*
X252415Y542197D01*
X252750Y543005D01*
Y544995D01*
X251989Y546832D01*
X250582Y548239D01*
X248745Y549000D01*
X246755D01*
X246727Y548988D01*
X246683Y549019D01*
X245882Y550013D01*
X246500Y551506D01*
Y553495D01*
X245739Y555332D01*
X244332Y556739D01*
X242495Y557500D01*
D02*
G37*
G36*
X150995Y533000D02*
X149005D01*
X147168Y532239D01*
X145761Y530832D01*
X145000Y528995D01*
Y527005D01*
X145761Y525168D01*
X147168Y523761D01*
X149005Y523000D01*
X150995D01*
X152832Y523761D01*
X154239Y525168D01*
X155000Y527005D01*
Y528995D01*
X154239Y530832D01*
X152832Y532239D01*
X150995Y533000D01*
D02*
G37*
G36*
X331745Y532500D02*
X329755D01*
X327918Y531739D01*
X326511Y530332D01*
X325750Y528495D01*
Y526505D01*
X326511Y524668D01*
X327918Y523261D01*
X329755Y522500D01*
X331745D01*
X333582Y523261D01*
X334989Y524668D01*
X335750Y526505D01*
Y528495D01*
X334989Y530332D01*
X333582Y531739D01*
X331745Y532500D01*
D02*
G37*
G36*
X237995Y532250D02*
X236005D01*
X234168Y531489D01*
X232761Y530082D01*
X232000Y528245D01*
Y526255D01*
X232761Y524418D01*
X234168Y523011D01*
X236005Y522250D01*
X237995D01*
X239832Y523011D01*
X241239Y524418D01*
X242000Y526255D01*
Y528245D01*
X241239Y530082D01*
X239832Y531489D01*
X237995Y532250D01*
D02*
G37*
G36*
X412995Y526000D02*
X411005D01*
X409168Y525239D01*
X407761Y523832D01*
X407000Y521995D01*
Y520005D01*
X407761Y518168D01*
X409168Y516761D01*
X411005Y516000D01*
X412995D01*
X414832Y516761D01*
X416239Y518168D01*
X417000Y520005D01*
Y521995D01*
X416239Y523832D01*
X414832Y525239D01*
X412995Y526000D01*
D02*
G37*
G36*
X320995Y518000D02*
X319005D01*
X317168Y517239D01*
X315761Y515832D01*
X315000Y513995D01*
Y512006D01*
X315761Y510168D01*
X317168Y508761D01*
X319005Y508000D01*
X320995D01*
X322832Y508761D01*
X324239Y510168D01*
X325000Y512006D01*
Y513995D01*
X324239Y515832D01*
X322832Y517239D01*
X320995Y518000D01*
D02*
G37*
G36*
X448038Y505000D02*
X446049D01*
X444212Y504239D01*
X442805Y502832D01*
X442044Y500995D01*
Y499006D01*
X442805Y497168D01*
X444212Y495761D01*
X446049Y495000D01*
X448038D01*
X449876Y495761D01*
X451283Y497168D01*
X452044Y499006D01*
Y500995D01*
X451283Y502832D01*
X449876Y504239D01*
X448038Y505000D01*
D02*
G37*
G36*
X46900Y501135D02*
X43900D01*
X41018Y500756D01*
X38332Y499643D01*
X36026Y497874D01*
X34257Y495568D01*
X33810Y494490D01*
X32540Y494742D01*
Y501040D01*
X7460D01*
Y478960D01*
X32540D01*
Y485258D01*
X33810Y485510D01*
X34257Y484432D01*
X36026Y482126D01*
X38332Y480357D01*
X41018Y479244D01*
X43900Y478865D01*
X46900D01*
X49782Y479244D01*
X52468Y480357D01*
X54774Y482126D01*
X56543Y484432D01*
X57656Y487118D01*
X58035Y490000D01*
X57656Y492882D01*
X56543Y495568D01*
X54774Y497874D01*
X52468Y499643D01*
X49782Y500756D01*
X46900Y501135D01*
D02*
G37*
G36*
X251293Y499375D02*
X249304D01*
X247466Y498614D01*
X246059Y497208D01*
X245298Y495370D01*
Y493381D01*
X246059Y491543D01*
X247466Y490136D01*
X249304Y489375D01*
X251293D01*
X253131Y490136D01*
X254537Y491543D01*
X255298Y493381D01*
Y495370D01*
X254537Y497208D01*
X253131Y498614D01*
X251293Y499375D01*
D02*
G37*
G36*
X228495Y485000D02*
X226505D01*
X224668Y484239D01*
X223261Y482832D01*
X222500Y480995D01*
Y479005D01*
X223261Y477168D01*
X224668Y475761D01*
X226505Y475000D01*
X228495D01*
X230332Y475761D01*
X231739Y477168D01*
X232500Y479005D01*
Y480995D01*
X231739Y482832D01*
X230332Y484239D01*
X228495Y485000D01*
D02*
G37*
G36*
X46900Y475735D02*
X43900D01*
X41018Y475356D01*
X38332Y474243D01*
X36026Y472474D01*
X34257Y470168D01*
X33387Y468069D01*
X32013D01*
X31143Y470168D01*
X29374Y472474D01*
X27068Y474243D01*
X24382Y475356D01*
X21500Y475735D01*
X18500D01*
X15618Y475356D01*
X12932Y474243D01*
X10626Y472474D01*
X8857Y470168D01*
X7744Y467482D01*
X7365Y464600D01*
X7744Y461718D01*
X8857Y459032D01*
X10626Y456726D01*
X12932Y454957D01*
X15618Y453844D01*
X18500Y453465D01*
X21500D01*
X24382Y453844D01*
X27068Y454957D01*
X29374Y456726D01*
X31143Y459032D01*
X32013Y461131D01*
X33387D01*
X34257Y459032D01*
X36026Y456726D01*
X38332Y454957D01*
X41018Y453844D01*
X43900Y453465D01*
X46900D01*
X49782Y453844D01*
X52468Y454957D01*
X54774Y456726D01*
X56543Y459032D01*
X57656Y461718D01*
X58035Y464600D01*
X57656Y467482D01*
X56543Y470168D01*
X54774Y472474D01*
X52468Y474243D01*
X49782Y475356D01*
X46900Y475735D01*
D02*
G37*
G36*
X383905Y464660D02*
X381916D01*
X380078Y463899D01*
X378672Y462493D01*
X377910Y460655D01*
Y458666D01*
X378672Y456828D01*
X380078Y455422D01*
X381916Y454660D01*
X383905D01*
X385743Y455422D01*
X387149Y456828D01*
X387910Y458666D01*
Y460655D01*
X387149Y462493D01*
X385743Y463899D01*
X383905Y464660D01*
D02*
G37*
G36*
X46900Y450335D02*
X43900D01*
X41018Y449956D01*
X38332Y448843D01*
X36026Y447074D01*
X34257Y444768D01*
X33387Y442669D01*
X32013D01*
X31143Y444768D01*
X29374Y447074D01*
X27068Y448843D01*
X24382Y449956D01*
X21500Y450335D01*
X18500D01*
X15618Y449956D01*
X12932Y448843D01*
X10626Y447074D01*
X8857Y444768D01*
X7744Y442082D01*
X7365Y439200D01*
X7744Y436318D01*
X8857Y433632D01*
X10626Y431326D01*
X12932Y429557D01*
X15618Y428444D01*
X18500Y428065D01*
X21500D01*
X24382Y428444D01*
X27068Y429557D01*
X29374Y431326D01*
X31143Y433632D01*
X32013Y435731D01*
X33387D01*
X34257Y433632D01*
X36026Y431326D01*
X38332Y429557D01*
X41018Y428444D01*
X43900Y428065D01*
X46900D01*
X49782Y428444D01*
X52468Y429557D01*
X54774Y431326D01*
X56543Y433632D01*
X57656Y436318D01*
X58035Y439200D01*
X57656Y442082D01*
X56543Y444768D01*
X54774Y447074D01*
X52468Y448843D01*
X49782Y449956D01*
X46900Y450335D01*
D02*
G37*
G36*
X394745Y446250D02*
X392756D01*
X390918Y445489D01*
X389511Y444082D01*
X388750Y442245D01*
Y440255D01*
X389511Y438418D01*
X390918Y437011D01*
X392756Y436250D01*
X394745D01*
X396582Y437011D01*
X397989Y438418D01*
X398750Y440255D01*
Y442245D01*
X397989Y444082D01*
X396582Y445489D01*
X394745Y446250D01*
D02*
G37*
G36*
X84995Y443000D02*
X83005D01*
X81168Y442239D01*
X79761Y440832D01*
X79000Y438995D01*
Y437006D01*
X79761Y435168D01*
X81168Y433761D01*
X83005Y433000D01*
X84995D01*
X86832Y433761D01*
X88239Y435168D01*
X89000Y437006D01*
Y438995D01*
X88239Y440832D01*
X86832Y442239D01*
X84995Y443000D01*
D02*
G37*
G36*
X697245Y442000D02*
X695255D01*
X693418Y441239D01*
X692011Y439832D01*
X691250Y437995D01*
Y436006D01*
X692011Y434168D01*
X693418Y432761D01*
X695255Y432000D01*
X697245D01*
X699082Y432761D01*
X700489Y434168D01*
X701250Y436006D01*
Y437995D01*
X700489Y439832D01*
X699082Y441239D01*
X697245Y442000D01*
D02*
G37*
G36*
X616995Y436000D02*
X615005D01*
X613168Y435239D01*
X611761Y433832D01*
X611000Y431995D01*
Y430005D01*
X611761Y428168D01*
X613168Y426761D01*
X615005Y426000D01*
X616995D01*
X618832Y426761D01*
X620239Y428168D01*
X621000Y430005D01*
Y431995D01*
X620239Y433832D01*
X618832Y435239D01*
X616995Y436000D01*
D02*
G37*
G36*
X356245Y433000D02*
X354255D01*
X352418Y432239D01*
X351011Y430832D01*
X350250Y428995D01*
Y427005D01*
X351011Y425168D01*
X352418Y423761D01*
X354255Y423000D01*
X356245D01*
X358082Y423761D01*
X359489Y425168D01*
X360250Y427005D01*
Y428995D01*
X359489Y430832D01*
X358082Y432239D01*
X356245Y433000D01*
D02*
G37*
G36*
X337141Y406103D02*
X335152D01*
X333315Y405342D01*
X331908Y403935D01*
X331147Y402098D01*
Y400108D01*
X331908Y398271D01*
X333315Y396864D01*
X335152Y396103D01*
X337141D01*
X338979Y396864D01*
X340386Y398271D01*
X341147Y400108D01*
Y402098D01*
X340386Y403935D01*
X338979Y405342D01*
X337141Y406103D01*
D02*
G37*
G36*
X618995Y405000D02*
X617005D01*
X615168Y404239D01*
X613761Y402832D01*
X613000Y400995D01*
Y399006D01*
X613761Y397168D01*
X615168Y395761D01*
X617005Y395000D01*
X618995D01*
X620832Y395761D01*
X622239Y397168D01*
X623000Y399006D01*
Y400995D01*
X622239Y402832D01*
X620832Y404239D01*
X618995Y405000D01*
D02*
G37*
G36*
X243495Y390000D02*
X241505D01*
X239668Y389239D01*
X238261Y387832D01*
X237500Y385995D01*
Y384006D01*
X238261Y382168D01*
X239668Y380761D01*
X241505Y380000D01*
X243495D01*
X245332Y380761D01*
X246739Y382168D01*
X247500Y384006D01*
Y385995D01*
X246739Y387832D01*
X245332Y389239D01*
X243495Y390000D01*
D02*
G37*
G36*
X360745Y388250D02*
X358755D01*
X356918Y387489D01*
X355511Y386082D01*
X354750Y384245D01*
Y382255D01*
X355511Y380418D01*
X356918Y379011D01*
X358755Y378250D01*
X360745D01*
X362582Y379011D01*
X363989Y380418D01*
X364750Y382255D01*
Y384245D01*
X363989Y386082D01*
X362582Y387489D01*
X360745Y388250D01*
D02*
G37*
G36*
X695995Y361000D02*
X694005D01*
X692168Y360239D01*
X690761Y358832D01*
X690000Y356995D01*
Y355005D01*
X690761Y353168D01*
X692168Y351761D01*
X694005Y351000D01*
X695995D01*
X697832Y351761D01*
X699239Y353168D01*
X700000Y355005D01*
Y356995D01*
X699239Y358832D01*
X697832Y360239D01*
X695995Y361000D01*
D02*
G37*
G36*
X619035Y349025D02*
X617046D01*
X615208Y348264D01*
X613801Y346857D01*
X613040Y345020D01*
Y343030D01*
X613801Y341193D01*
X615208Y339786D01*
X617046Y339025D01*
X619035D01*
X620872Y339786D01*
X622279Y341193D01*
X623040Y343030D01*
Y345020D01*
X622279Y346857D01*
X620872Y348264D01*
X619035Y349025D01*
D02*
G37*
G36*
X191822Y356540D02*
X189178D01*
X186625Y355856D01*
X184335Y354534D01*
X182466Y352665D01*
X181144Y350375D01*
X180460Y347822D01*
Y345178D01*
X181144Y342625D01*
X182466Y340335D01*
X184335Y338466D01*
X186625Y337144D01*
X189178Y336460D01*
X191822D01*
X194375Y337144D01*
X196665Y338466D01*
X198534Y340335D01*
X199856Y342625D01*
X200540Y345178D01*
Y347822D01*
X199856Y350375D01*
X198534Y352665D01*
X196665Y354534D01*
X194375Y355856D01*
X191822Y356540D01*
D02*
G37*
G36*
X135540D02*
X115460D01*
Y336460D01*
X135540D01*
Y356540D01*
D02*
G37*
G36*
X616995Y280000D02*
X615005D01*
X613168Y279239D01*
X611761Y277832D01*
X611000Y275995D01*
Y274005D01*
X611761Y272168D01*
X613168Y270761D01*
X615005Y270000D01*
X616995D01*
X618832Y270761D01*
X620239Y272168D01*
X621000Y274005D01*
Y275995D01*
X620239Y277832D01*
X618832Y279239D01*
X616995Y280000D01*
D02*
G37*
G36*
X320995Y250000D02*
X319005D01*
X317168Y249239D01*
X315761Y247832D01*
X315000Y245995D01*
Y244006D01*
X315761Y242168D01*
X317168Y240761D01*
X319005Y240000D01*
X320995D01*
X322832Y240761D01*
X324239Y242168D01*
X325000Y244006D01*
Y245995D01*
X324239Y247832D01*
X322832Y249239D01*
X320995Y250000D01*
D02*
G37*
G36*
X129995Y231750D02*
X128005D01*
X126168Y230989D01*
X124761Y229582D01*
X124000Y227745D01*
Y225756D01*
X124761Y223918D01*
X126168Y222511D01*
X128005Y221750D01*
X129995D01*
X131832Y222511D01*
X133239Y223918D01*
X134000Y225756D01*
Y227745D01*
X133239Y229582D01*
X131832Y230989D01*
X129995Y231750D01*
D02*
G37*
G36*
X163995Y223750D02*
X162005D01*
X160168Y222989D01*
X158761Y221582D01*
X158000Y219745D01*
Y217755D01*
X158761Y215918D01*
X160168Y214511D01*
X162005Y213750D01*
X163995D01*
X165832Y214511D01*
X167239Y215918D01*
X168000Y217755D01*
Y219745D01*
X167239Y221582D01*
X165832Y222989D01*
X163995Y223750D01*
D02*
G37*
G36*
X215245Y211000D02*
X213255D01*
X211418Y210239D01*
X210011Y208832D01*
X209250Y206995D01*
Y205005D01*
X210011Y203168D01*
X211418Y201761D01*
X213255Y201000D01*
X215245D01*
X217082Y201761D01*
X218489Y203168D01*
X219250Y205005D01*
Y206995D01*
X218489Y208832D01*
X217082Y210239D01*
X215245Y211000D01*
D02*
G37*
G36*
X475995Y210000D02*
X474005D01*
X472168Y209239D01*
X470761Y207832D01*
X470000Y205995D01*
Y204005D01*
X470761Y202168D01*
X472168Y200761D01*
X474005Y200000D01*
X475995D01*
X477832Y200761D01*
X479239Y202168D01*
X480000Y204005D01*
Y205995D01*
X479239Y207832D01*
X477832Y209239D01*
X475995Y210000D01*
D02*
G37*
G36*
X405995Y172500D02*
X404005D01*
X402168Y171739D01*
X400761Y170332D01*
X400000Y168495D01*
Y166506D01*
X400761Y164668D01*
X402168Y163261D01*
X404005Y162500D01*
X405995D01*
X407832Y163261D01*
X409239Y164668D01*
X410000Y166506D01*
Y168495D01*
X409239Y170332D01*
X407832Y171739D01*
X405995Y172500D01*
D02*
G37*
G36*
X385995D02*
X384005D01*
X382168Y171739D01*
X380761Y170332D01*
X380000Y168495D01*
Y166506D01*
X380761Y164668D01*
X382168Y163261D01*
X384005Y162500D01*
X385995D01*
X387832Y163261D01*
X389239Y164668D01*
X390000Y166506D01*
Y168495D01*
X389239Y170332D01*
X387832Y171739D01*
X385995Y172500D01*
D02*
G37*
G36*
X373495D02*
X371505D01*
X369668Y171739D01*
X368261Y170332D01*
X367500Y168495D01*
Y166506D01*
X368261Y164668D01*
X369668Y163261D01*
X371505Y162500D01*
X373495D01*
X375332Y163261D01*
X376739Y164668D01*
X377500Y166506D01*
Y168495D01*
X376739Y170332D01*
X375332Y171739D01*
X373495Y172500D01*
D02*
G37*
G36*
X477995Y144000D02*
X476005D01*
X474168Y143239D01*
X472761Y141832D01*
X472000Y139995D01*
Y138005D01*
X472761Y136168D01*
X474168Y134761D01*
X476005Y134000D01*
X477995D01*
X479832Y134761D01*
X481239Y136168D01*
X482000Y138005D01*
Y139995D01*
X481239Y141832D01*
X479832Y143239D01*
X477995Y144000D01*
D02*
G37*
G36*
X405995Y66040D02*
X404005D01*
X402168Y65279D01*
X400761Y63872D01*
X400000Y62035D01*
Y60045D01*
X400761Y58208D01*
X402168Y56801D01*
X404005Y56040D01*
X405995D01*
X407832Y56801D01*
X409239Y58208D01*
X410000Y60045D01*
Y62035D01*
X409239Y63872D01*
X407832Y65279D01*
X405995Y66040D01*
D02*
G37*
G36*
X385995Y58040D02*
X384005D01*
X382168Y57279D01*
X380761Y55872D01*
X380000Y54035D01*
Y52045D01*
X380761Y50208D01*
X382168Y48801D01*
X384005Y48040D01*
X385995D01*
X387832Y48801D01*
X389239Y50208D01*
X390000Y52045D01*
Y54035D01*
X389239Y55872D01*
X387832Y57279D01*
X385995Y58040D01*
D02*
G37*
G36*
X373495Y50000D02*
X371505D01*
X369668Y49239D01*
X368261Y47832D01*
X367500Y45995D01*
Y44005D01*
X368261Y42168D01*
X369668Y40761D01*
X371505Y40000D01*
X373495D01*
X375332Y40761D01*
X376739Y42168D01*
X377500Y44005D01*
Y45995D01*
X376739Y47832D01*
X375332Y49239D01*
X373495Y50000D01*
D02*
G37*
G36*
X50000Y77084D02*
X45763Y76750D01*
X41631Y75758D01*
X37704Y74132D01*
X34081Y71911D01*
X30849Y69151D01*
X28089Y65919D01*
X25868Y62296D01*
X24242Y58369D01*
X23250Y54237D01*
X22917Y50000D01*
X23250Y45763D01*
X24242Y41631D01*
X25868Y37704D01*
X28089Y34081D01*
X30849Y30849D01*
X34081Y28089D01*
X37704Y25868D01*
X41631Y24242D01*
X45763Y23250D01*
X50000Y22917D01*
X54237Y23250D01*
X58369Y24242D01*
X62296Y25868D01*
X65919Y28089D01*
X69151Y30849D01*
X71911Y34081D01*
X74132Y37704D01*
X75758Y41631D01*
X76750Y45763D01*
X77084Y50000D01*
X76750Y54237D01*
X75758Y58369D01*
X74132Y62296D01*
X71911Y65919D01*
X69151Y69151D01*
X65919Y71911D01*
X62296Y74132D01*
X58369Y75758D01*
X54237Y76750D01*
X50000Y77084D01*
D02*
G37*
%LPD*%
D98*
X1550000Y1220000D02*
D03*
X1380000Y300000D02*
D03*
X1000000Y1090000D02*
D03*
X740000Y470000D02*
D03*
Y750000D02*
D03*
X50000Y1210000D02*
D03*
Y50000D02*
D03*
X1560000Y40000D02*
D03*
D99*
X367900Y752500D02*
D03*
X342500D02*
D03*
X317100D02*
D03*
X393300D02*
D03*
X440000Y1050000D02*
D03*
X465400D02*
D03*
D100*
X291700Y752500D02*
D03*
X414600Y1050000D02*
D03*
D101*
X125500Y346500D02*
D03*
D102*
X190500D02*
D03*
Y301500D02*
D03*
X125500D02*
D03*
D103*
X20000Y439200D02*
D03*
X45400D02*
D03*
X20000Y413800D02*
D03*
X45400D02*
D03*
Y490000D02*
D03*
X20000Y464600D02*
D03*
X45400D02*
D03*
X20000Y600000D02*
D03*
Y574600D02*
D03*
Y549200D02*
D03*
D104*
Y490000D02*
D03*
Y625400D02*
D03*
D105*
X65400Y739200D02*
D03*
D106*
X40000Y840800D02*
D03*
Y815400D02*
D03*
Y790000D02*
D03*
Y764600D02*
D03*
Y739200D02*
D03*
X65400Y840800D02*
D03*
Y815400D02*
D03*
Y790000D02*
D03*
X65400Y764600D02*
D03*
D107*
X350000Y1210000D02*
D03*
D108*
X310400D02*
D03*
D109*
X1430000Y900000D02*
D03*
X1410000D02*
D03*
X1390000D02*
D03*
X1430000Y880000D02*
D03*
X1410000D02*
D03*
X1390000D02*
D03*
X1430000Y920000D02*
D03*
X1410000D02*
D03*
X1390000D02*
D03*
Y970000D02*
D03*
X1410000D02*
D03*
X1430000D02*
D03*
Y990000D02*
D03*
X1410000D02*
D03*
X1390000D02*
D03*
Y1010000D02*
D03*
X1410000D02*
D03*
X1430000D02*
D03*
Y1030000D02*
D03*
X1410000D02*
D03*
X1390000D02*
D03*
X1440000Y1020000D02*
D03*
Y1000000D02*
D03*
Y980000D02*
D03*
Y960000D02*
D03*
X1420000D02*
D03*
Y980000D02*
D03*
Y1000000D02*
D03*
Y1020000D02*
D03*
X1400000Y960000D02*
D03*
Y980000D02*
D03*
Y1000000D02*
D03*
Y1020000D02*
D03*
X1380000Y960000D02*
D03*
Y980000D02*
D03*
Y1000000D02*
D03*
Y1020000D02*
D03*
X1440000Y1040000D02*
D03*
X1420000D02*
D03*
X1400000D02*
D03*
X1380000D02*
D03*
X1390000Y1120000D02*
D03*
X1410000D02*
D03*
X1430000D02*
D03*
Y1100000D02*
D03*
X1410000D02*
D03*
X1390000D02*
D03*
X1400000Y1090000D02*
D03*
X1420000D02*
D03*
X1440000D02*
D03*
Y1110000D02*
D03*
X1420000D02*
D03*
X1400000D02*
D03*
X1430000Y1140000D02*
D03*
X1410000D02*
D03*
X1390000D02*
D03*
X1440000Y1130000D02*
D03*
X1420000D02*
D03*
X1400000D02*
D03*
X1430000Y1160000D02*
D03*
X1410000D02*
D03*
X1390000D02*
D03*
X1440000Y1150000D02*
D03*
X1420000D02*
D03*
X1400000D02*
D03*
X1380000Y1090000D02*
D03*
Y1110000D02*
D03*
Y1130000D02*
D03*
Y1150000D02*
D03*
X1440000Y1170000D02*
D03*
X1420000D02*
D03*
X1400000D02*
D03*
X1380000D02*
D03*
X762501Y1130001D02*
D03*
X753501D02*
D03*
X744501D02*
D03*
X330750Y527500D02*
D03*
X297000Y503000D02*
D03*
X120000Y1060000D02*
D03*
X290750Y241250D02*
D03*
X628250Y166250D02*
D03*
X478250Y1066250D02*
D03*
X590750Y391250D02*
D03*
X515750Y841250D02*
D03*
X665750Y91250D02*
D03*
X778250Y1216250D02*
D03*
X65750Y541250D02*
D03*
X215750Y991250D02*
D03*
X665750Y391250D02*
D03*
X65750Y1141250D02*
D03*
X140750Y241250D02*
D03*
X253250Y1216250D02*
D03*
X590750Y691250D02*
D03*
X140750D02*
D03*
Y1141250D02*
D03*
X515750D02*
D03*
X478250Y916250D02*
D03*
X178250D02*
D03*
X778250Y1066250D02*
D03*
X440750Y691250D02*
D03*
X65750Y241250D02*
D03*
X478250Y466250D02*
D03*
X65750Y691250D02*
D03*
X590750Y1141250D02*
D03*
X440750Y91250D02*
D03*
X290750Y841250D02*
D03*
X440750Y1141250D02*
D03*
X178250Y166250D02*
D03*
X253250Y916250D02*
D03*
X553250Y1066250D02*
D03*
X665750Y991250D02*
D03*
X215750Y241250D02*
D03*
X628250Y1066250D02*
D03*
Y1216250D02*
D03*
X815750Y1141250D02*
D03*
X553250Y766250D02*
D03*
X515750Y391250D02*
D03*
X853250Y1066250D02*
D03*
X515750Y91250D02*
D03*
X290750Y1141250D02*
D03*
X140750Y391250D02*
D03*
X853250Y1216250D02*
D03*
X478250D02*
D03*
X65750Y391250D02*
D03*
X665750Y841250D02*
D03*
X328250Y1066250D02*
D03*
X290750Y691250D02*
D03*
X215750Y91250D02*
D03*
X103250Y1216250D02*
D03*
X65750Y91250D02*
D03*
X403250Y1216250D02*
D03*
X215750Y841250D02*
D03*
X140750Y91250D02*
D03*
X440750Y241250D02*
D03*
X665750Y691250D02*
D03*
X553250Y916250D02*
D03*
Y1216250D02*
D03*
X290750Y91250D02*
D03*
X103250Y766250D02*
D03*
X253250Y166250D02*
D03*
X103250D02*
D03*
X178250Y316250D02*
D03*
X553250Y466250D02*
D03*
Y616250D02*
D03*
X215750Y1141250D02*
D03*
X178250Y1216250D02*
D03*
X665750Y541250D02*
D03*
X103250Y916250D02*
D03*
X140750Y841250D02*
D03*
X365750Y1141250D02*
D03*
X178250Y766250D02*
D03*
X65750Y991250D02*
D03*
X440750Y391250D02*
D03*
X103250Y1066250D02*
D03*
X365750Y991250D02*
D03*
X440000Y1235000D02*
D03*
X540000D02*
D03*
X600000D02*
D03*
X820000Y1225000D02*
D03*
X840000Y1240000D02*
D03*
X800000D02*
D03*
X770000D02*
D03*
X515000Y1180000D02*
D03*
X480000D02*
D03*
X1060000Y220000D02*
D03*
Y240000D02*
D03*
X1040000Y220000D02*
D03*
Y240000D02*
D03*
X1020000Y220000D02*
D03*
Y240000D02*
D03*
Y260000D02*
D03*
X1040000D02*
D03*
X1060000D02*
D03*
Y280000D02*
D03*
X1040000D02*
D03*
X1020000D02*
D03*
Y360000D02*
D03*
Y380000D02*
D03*
Y400000D02*
D03*
X1040000D02*
D03*
Y380000D02*
D03*
Y360000D02*
D03*
X1060000D02*
D03*
Y380000D02*
D03*
Y400000D02*
D03*
Y420000D02*
D03*
X1040000D02*
D03*
X1020000D02*
D03*
Y510000D02*
D03*
Y530000D02*
D03*
Y550000D02*
D03*
X1040000D02*
D03*
Y530000D02*
D03*
Y510000D02*
D03*
X1060000D02*
D03*
Y530000D02*
D03*
Y550000D02*
D03*
Y570000D02*
D03*
X1040000D02*
D03*
X1020000D02*
D03*
X1060000Y800000D02*
D03*
X1040000D02*
D03*
X1020000D02*
D03*
Y820000D02*
D03*
X1040000D02*
D03*
X1060000D02*
D03*
Y840000D02*
D03*
X1040000D02*
D03*
X1020000D02*
D03*
X1060000Y860000D02*
D03*
X1040000D02*
D03*
X1020000D02*
D03*
Y940000D02*
D03*
X1040000D02*
D03*
X1060000D02*
D03*
Y960000D02*
D03*
X1040000D02*
D03*
X1020000D02*
D03*
Y980000D02*
D03*
X1040000D02*
D03*
X1060000D02*
D03*
Y1000000D02*
D03*
X1040000D02*
D03*
X1020000D02*
D03*
X1060000Y650000D02*
D03*
X1040000D02*
D03*
X1020000D02*
D03*
Y670000D02*
D03*
X1040000D02*
D03*
X1060000D02*
D03*
Y690000D02*
D03*
X1040000D02*
D03*
X1020000D02*
D03*
X1060000Y710000D02*
D03*
X1040000D02*
D03*
X1020000D02*
D03*
X1459000Y555000D02*
D03*
X1464500Y544000D02*
D03*
X1459000Y533000D02*
D03*
X1464500Y522000D02*
D03*
X1459000Y511000D02*
D03*
X1464500Y500000D02*
D03*
X1453500Y566000D02*
D03*
X1448000Y555000D02*
D03*
X1453500Y544000D02*
D03*
Y500000D02*
D03*
X1442500Y566000D02*
D03*
Y500000D02*
D03*
X1431500Y566000D02*
D03*
Y500000D02*
D03*
X1420500Y566000D02*
D03*
Y500000D02*
D03*
X1409500Y566000D02*
D03*
Y500000D02*
D03*
X1398500Y566000D02*
D03*
Y500000D02*
D03*
X1387500Y566000D02*
D03*
Y500000D02*
D03*
X1376500Y566000D02*
D03*
X1371000Y555000D02*
D03*
Y511000D02*
D03*
X1376500Y500000D02*
D03*
X1365500Y566000D02*
D03*
X1360000Y555000D02*
D03*
X1365500Y544000D02*
D03*
X1360000Y533000D02*
D03*
Y511000D02*
D03*
X1365500Y500000D02*
D03*
X1354500Y566000D02*
D03*
X1349000Y555000D02*
D03*
X1354500Y544000D02*
D03*
X1349000Y533000D02*
D03*
X1354500Y522000D02*
D03*
X1349000Y511000D02*
D03*
X1354500Y500000D02*
D03*
X1332500Y566000D02*
D03*
Y544000D02*
D03*
Y522000D02*
D03*
Y500000D02*
D03*
X1140000Y577000D02*
D03*
Y555000D02*
D03*
Y533000D02*
D03*
Y511000D02*
D03*
Y489000D02*
D03*
X1134500Y588000D02*
D03*
Y566000D02*
D03*
Y544000D02*
D03*
Y522000D02*
D03*
Y500000D02*
D03*
X1118000Y577000D02*
D03*
X1123500Y566000D02*
D03*
X1118000Y555000D02*
D03*
X1123500Y544000D02*
D03*
X1118000Y533000D02*
D03*
X1123500Y522000D02*
D03*
X1118000Y511000D02*
D03*
X1123500Y500000D02*
D03*
X1118000Y489000D02*
D03*
X1112500Y588000D02*
D03*
X1107000Y577000D02*
D03*
X1112500Y566000D02*
D03*
X1107000Y555000D02*
D03*
X1112500Y544000D02*
D03*
X1107000Y533000D02*
D03*
X1112500Y522000D02*
D03*
X1107000Y511000D02*
D03*
X1112500Y500000D02*
D03*
X1107000Y489000D02*
D03*
X1101500Y588000D02*
D03*
X1096000Y577000D02*
D03*
X1101500Y566000D02*
D03*
X1096000Y555000D02*
D03*
X1101500Y544000D02*
D03*
X1096000Y533000D02*
D03*
X1101500Y522000D02*
D03*
X1096000Y511000D02*
D03*
X1101500Y500000D02*
D03*
X1096000Y489000D02*
D03*
X1010000Y1010000D02*
D03*
X1030000D02*
D03*
X1050000D02*
D03*
X1070000D02*
D03*
X1010000Y990000D02*
D03*
X1030000D02*
D03*
X1050000D02*
D03*
X1070000D02*
D03*
X1010000Y970000D02*
D03*
X1030000D02*
D03*
X1050000D02*
D03*
X1070000D02*
D03*
X1010000Y950000D02*
D03*
X1030000D02*
D03*
X1050000D02*
D03*
X1070000D02*
D03*
X1010000Y930000D02*
D03*
X1030000D02*
D03*
X1050000D02*
D03*
X1070000D02*
D03*
X1010000Y290000D02*
D03*
X1030000D02*
D03*
X1050000D02*
D03*
X1070000D02*
D03*
X1010000Y270000D02*
D03*
X1030000D02*
D03*
X1050000D02*
D03*
X1070000D02*
D03*
X1010000Y250000D02*
D03*
X1030000D02*
D03*
X1050000D02*
D03*
X1070000D02*
D03*
X1010000Y230000D02*
D03*
X1030000D02*
D03*
X1050000D02*
D03*
X1070000D02*
D03*
X1010000Y210000D02*
D03*
X1030000D02*
D03*
X1050000D02*
D03*
X1070000D02*
D03*
X1010000Y430000D02*
D03*
X1030000D02*
D03*
X1050000D02*
D03*
X1070000D02*
D03*
X1010000Y410000D02*
D03*
X1030000D02*
D03*
X1050000D02*
D03*
X1070000D02*
D03*
X1010000Y390000D02*
D03*
X1030000D02*
D03*
X1050000D02*
D03*
X1070000D02*
D03*
X1010000Y370000D02*
D03*
X1030000D02*
D03*
X1050000D02*
D03*
X1070000D02*
D03*
X1010000Y350000D02*
D03*
X1030000D02*
D03*
X1050000D02*
D03*
X1070000D02*
D03*
X1010000Y580000D02*
D03*
X1030000D02*
D03*
X1050000D02*
D03*
X1070000D02*
D03*
X1010000Y560000D02*
D03*
X1030000D02*
D03*
X1050000D02*
D03*
X1070000D02*
D03*
X1010000Y540000D02*
D03*
X1030000D02*
D03*
X1050000D02*
D03*
X1070000D02*
D03*
X1010000Y520000D02*
D03*
X1030000D02*
D03*
X1050000D02*
D03*
X1070000D02*
D03*
X1010000Y500000D02*
D03*
X1030000D02*
D03*
X1050000D02*
D03*
X1070000D02*
D03*
X1010000Y720000D02*
D03*
X1030000D02*
D03*
X1050000D02*
D03*
X1070000D02*
D03*
X1010000Y700000D02*
D03*
X1030000D02*
D03*
X1050000D02*
D03*
X1070000D02*
D03*
X1010000Y680000D02*
D03*
X1030000D02*
D03*
X1050000D02*
D03*
X1070000D02*
D03*
X1010000Y660000D02*
D03*
X1030000D02*
D03*
X1050000D02*
D03*
X1070000D02*
D03*
X1010000Y640000D02*
D03*
X1030000D02*
D03*
X1050000D02*
D03*
X1070000D02*
D03*
Y790000D02*
D03*
X1050000D02*
D03*
X1030000D02*
D03*
X1010000D02*
D03*
X1070000Y810000D02*
D03*
X1050000D02*
D03*
X1030000D02*
D03*
X1010000D02*
D03*
X1070000Y830000D02*
D03*
X1050000D02*
D03*
X1030000D02*
D03*
X1010000D02*
D03*
X1070000Y850000D02*
D03*
X1050000D02*
D03*
X1030000D02*
D03*
X1010000D02*
D03*
X1070000Y870000D02*
D03*
X1050000D02*
D03*
X1030000D02*
D03*
X1010000D02*
D03*
X644750Y662250D02*
D03*
X378250Y999000D02*
D03*
X710500Y1082250D02*
D03*
X709750Y1095750D02*
D03*
X609000Y980000D02*
D03*
X237000Y527250D02*
D03*
X247750Y544000D02*
D03*
X241500Y552500D02*
D03*
X257438Y538353D02*
D03*
X401750Y678000D02*
D03*
X627250Y965000D02*
D03*
X616250D02*
D03*
X605000D02*
D03*
X620000Y980000D02*
D03*
X1458001Y462000D02*
D03*
X1463501Y451000D02*
D03*
X1458001Y440000D02*
D03*
X1463501Y429000D02*
D03*
X1452501Y473000D02*
D03*
Y429000D02*
D03*
X1441501D02*
D03*
X1375501D02*
D03*
X1364501Y473000D02*
D03*
X1359001Y462000D02*
D03*
Y440000D02*
D03*
X1364501Y429000D02*
D03*
X1353501Y473000D02*
D03*
X1348001Y462000D02*
D03*
X1353501Y451000D02*
D03*
X1348001Y440000D02*
D03*
X1353501Y429000D02*
D03*
X1337001Y418000D02*
D03*
X1331501Y473000D02*
D03*
Y451000D02*
D03*
Y429000D02*
D03*
Y407000D02*
D03*
Y385000D02*
D03*
Y363000D02*
D03*
Y341000D02*
D03*
Y319000D02*
D03*
Y297000D02*
D03*
Y275000D02*
D03*
Y253000D02*
D03*
X1139000Y286000D02*
D03*
Y264000D02*
D03*
Y242000D02*
D03*
Y220000D02*
D03*
Y198000D02*
D03*
X1128000Y308000D02*
D03*
X1122501Y297000D02*
D03*
X1117001Y286000D02*
D03*
X1122501Y275000D02*
D03*
X1117001Y264000D02*
D03*
X1122501Y253000D02*
D03*
X1117001Y242000D02*
D03*
X1122501Y231000D02*
D03*
X1117001Y220000D02*
D03*
X1122501Y209000D02*
D03*
X1117001Y198000D02*
D03*
X1111500Y297000D02*
D03*
X1106001Y286000D02*
D03*
X1111500Y275000D02*
D03*
X1106001Y264000D02*
D03*
X1111500Y253000D02*
D03*
X1106001Y242000D02*
D03*
X1111500Y231000D02*
D03*
X1106001Y220000D02*
D03*
X1111500Y209000D02*
D03*
X1106001Y198000D02*
D03*
X1100500Y297000D02*
D03*
X1095001Y286000D02*
D03*
X1100500Y275000D02*
D03*
X1095001Y264000D02*
D03*
X1100500Y253000D02*
D03*
X1095001Y242000D02*
D03*
X1100500Y231000D02*
D03*
X1095001Y220000D02*
D03*
X1100500Y209000D02*
D03*
X1095001Y198000D02*
D03*
X1463501Y627000D02*
D03*
X1458001Y616000D02*
D03*
X1463501Y605000D02*
D03*
X1458001Y594000D02*
D03*
X1452501Y627000D02*
D03*
X1364501D02*
D03*
X1359001Y616000D02*
D03*
X1364501Y605000D02*
D03*
X1359001Y594000D02*
D03*
X1353501Y627000D02*
D03*
X1348001Y616000D02*
D03*
X1353501Y605000D02*
D03*
X1348001Y594000D02*
D03*
X1342501Y649000D02*
D03*
X1331501D02*
D03*
Y627000D02*
D03*
Y605000D02*
D03*
X1139000Y858000D02*
D03*
Y836000D02*
D03*
Y814000D02*
D03*
Y792000D02*
D03*
Y770000D02*
D03*
X1128000D02*
D03*
X1122501Y869000D02*
D03*
X1117001Y858000D02*
D03*
X1122501Y847000D02*
D03*
X1117001Y836000D02*
D03*
X1122501Y825000D02*
D03*
X1117001Y814000D02*
D03*
X1122501Y803000D02*
D03*
X1117001Y792000D02*
D03*
X1122501Y781000D02*
D03*
Y759000D02*
D03*
X1111500Y869000D02*
D03*
X1106001Y858000D02*
D03*
X1111500Y847000D02*
D03*
X1106001Y836000D02*
D03*
X1111500Y825000D02*
D03*
X1106001Y814000D02*
D03*
X1111500Y803000D02*
D03*
X1106001Y792000D02*
D03*
X1111500Y781000D02*
D03*
X1106001Y770000D02*
D03*
X1111500Y759000D02*
D03*
X1100500Y869000D02*
D03*
X1095001Y858000D02*
D03*
X1100500Y847000D02*
D03*
X1095001Y836000D02*
D03*
X1100500Y825000D02*
D03*
X1095001Y814000D02*
D03*
X1100500Y803000D02*
D03*
X1095001Y792000D02*
D03*
X1100500Y781000D02*
D03*
X1095001Y770000D02*
D03*
X944001Y725000D02*
D03*
Y683000D02*
D03*
Y179000D02*
D03*
X933501Y746000D02*
D03*
X923001Y725000D02*
D03*
Y683000D02*
D03*
Y599000D02*
D03*
X933501Y578000D02*
D03*
Y536000D02*
D03*
Y452000D02*
D03*
X923001Y305000D02*
D03*
X933501Y200000D02*
D03*
X923001Y179000D02*
D03*
X912501Y746000D02*
D03*
X902001Y725000D02*
D03*
Y683000D02*
D03*
Y599000D02*
D03*
X912501Y578000D02*
D03*
Y536000D02*
D03*
X902001Y515000D02*
D03*
X912501Y452000D02*
D03*
X902001Y305000D02*
D03*
Y221000D02*
D03*
X912501Y200000D02*
D03*
X902001Y179000D02*
D03*
X891501Y788000D02*
D03*
Y746000D02*
D03*
X881001Y725000D02*
D03*
Y683000D02*
D03*
X891501Y620000D02*
D03*
X881001Y599000D02*
D03*
X891501Y578000D02*
D03*
X881001Y515000D02*
D03*
X891501Y494000D02*
D03*
Y452000D02*
D03*
Y410000D02*
D03*
X881001Y347000D02*
D03*
X891501Y326000D02*
D03*
X881001Y305000D02*
D03*
Y221000D02*
D03*
X891501Y200000D02*
D03*
X881001Y179000D02*
D03*
X870501Y788000D02*
D03*
Y746000D02*
D03*
X860001Y725000D02*
D03*
Y641000D02*
D03*
X870501Y620000D02*
D03*
Y536000D02*
D03*
X860001Y515000D02*
D03*
X870501Y494000D02*
D03*
Y452000D02*
D03*
Y368000D02*
D03*
X860001Y263000D02*
D03*
Y221000D02*
D03*
X870501Y200000D02*
D03*
X860001Y179000D02*
D03*
X849501Y788000D02*
D03*
Y746000D02*
D03*
X839001Y725000D02*
D03*
Y641000D02*
D03*
X849501Y536000D02*
D03*
X839001Y515000D02*
D03*
X849501Y494000D02*
D03*
Y452000D02*
D03*
Y368000D02*
D03*
X839001Y263000D02*
D03*
Y221000D02*
D03*
X849501Y200000D02*
D03*
X839001Y179000D02*
D03*
X828501Y788000D02*
D03*
Y746000D02*
D03*
X818001Y725000D02*
D03*
X828501Y578000D02*
D03*
Y536000D02*
D03*
X818001Y515000D02*
D03*
X828501Y494000D02*
D03*
Y452000D02*
D03*
Y410000D02*
D03*
Y368000D02*
D03*
Y326000D02*
D03*
X818001Y263000D02*
D03*
Y221000D02*
D03*
X828501Y200000D02*
D03*
X818001Y179000D02*
D03*
X807501Y788000D02*
D03*
Y746000D02*
D03*
X797001Y725000D02*
D03*
Y683000D02*
D03*
X807501Y536000D02*
D03*
X797001Y515000D02*
D03*
X807501Y494000D02*
D03*
Y452000D02*
D03*
X797001Y263000D02*
D03*
Y221000D02*
D03*
X807501Y200000D02*
D03*
X797001Y179000D02*
D03*
X277000Y410000D02*
D03*
X180000Y563790D02*
D03*
X547500Y282500D02*
D03*
X450000Y100000D02*
D03*
X184441Y459059D02*
D03*
X250298Y494375D02*
D03*
X227500Y480000D02*
D03*
X645000Y952500D02*
D03*
X446861Y610639D02*
D03*
X285000Y312500D02*
D03*
X336147Y401103D02*
D03*
X382910Y459660D02*
D03*
X355250Y428000D02*
D03*
X393750Y441250D02*
D03*
X379000Y541250D02*
D03*
X357250Y553000D02*
D03*
X259500Y503500D02*
D03*
X288750Y541250D02*
D03*
X279750Y575000D02*
D03*
X270000Y560000D02*
D03*
X290000Y569000D02*
D03*
X268500Y571000D02*
D03*
X696250Y437000D02*
D03*
X358000Y849000D02*
D03*
X371000Y812000D02*
D03*
X222500Y135000D02*
D03*
X506750Y189250D02*
D03*
X562750Y166000D02*
D03*
X520250Y740000D02*
D03*
X553000Y685500D02*
D03*
X125250Y280000D02*
D03*
X104500Y674250D02*
D03*
X214250Y206000D02*
D03*
X163000Y218750D02*
D03*
X359750Y383250D02*
D03*
X129000Y226750D02*
D03*
X332000Y922750D02*
D03*
X546750Y374750D02*
D03*
X655750Y868250D02*
D03*
X654000Y293500D02*
D03*
X653500Y579250D02*
D03*
X645000Y375000D02*
D03*
X385000Y315000D02*
D03*
X120000Y1005000D02*
D03*
X440000Y820000D02*
D03*
X425000D02*
D03*
X410000D02*
D03*
X440000Y835000D02*
D03*
X425000D02*
D03*
X410000D02*
D03*
X440000Y850000D02*
D03*
X425000D02*
D03*
X410000D02*
D03*
X552000Y798000D02*
D03*
Y862000D02*
D03*
X548000Y499000D02*
D03*
X547000Y573000D02*
D03*
X84000Y438000D02*
D03*
X221000Y594000D02*
D03*
X100000Y640000D02*
D03*
X150000Y528000D02*
D03*
X133000Y547000D02*
D03*
X320000Y513000D02*
D03*
X186000Y396000D02*
D03*
X402000Y463000D02*
D03*
X320000Y245000D02*
D03*
X469000Y329000D02*
D03*
X420000Y327500D02*
D03*
X320000Y330000D02*
D03*
X318000Y599750D02*
D03*
X312000Y572000D02*
D03*
X293301Y605301D02*
D03*
X305000Y598000D02*
D03*
X618040Y344025D02*
D03*
X695000Y356000D02*
D03*
X615000Y740000D02*
D03*
X513000Y698000D02*
D03*
X447000Y646000D02*
D03*
X447044Y500000D02*
D03*
X412000Y521000D02*
D03*
X485000Y605000D02*
D03*
X378977Y590750D02*
D03*
X419000Y717000D02*
D03*
X308000Y700000D02*
D03*
X347000Y723000D02*
D03*
X362000Y696000D02*
D03*
X372500Y45000D02*
D03*
X405000Y167500D02*
D03*
X385000D02*
D03*
X372500D02*
D03*
X385000Y53040D02*
D03*
X405000Y61040D02*
D03*
X317500Y480000D02*
D03*
X1162500Y172500D02*
D03*
X332500Y625000D02*
D03*
X242500Y385000D02*
D03*
X292500Y785000D02*
D03*
X477000Y139000D02*
D03*
X475000Y205000D02*
D03*
X726000Y224000D02*
D03*
X716000Y510000D02*
D03*
X721000Y802000D02*
D03*
X617000Y850000D02*
D03*
X616000Y275000D02*
D03*
X618000Y400000D02*
D03*
X616000Y431000D02*
D03*
X617000Y552000D02*
D03*
Y630000D02*
D03*
X622000Y685000D02*
D03*
X622285Y918950D02*
D03*
M02*
