G04*
G04 #@! TF.GenerationSoftware,Altium Limited,Altium Designer,23.6.0 (18)*
G04*
G04 Layer_Color=16711935*
%FSLAX44Y44*%
%MOMM*%
G71*
G04*
G04 #@! TF.SameCoordinates,9FFC46F5-938B-46D8-84A6-C8BF988D1DB5*
G04*
G04*
G04 #@! TF.FilePolarity,Negative*
G04*
G01*
G75*
%ADD52C,3.5900*%
%ADD53O,1.7900X2.0900*%
%ADD54R,1.7900X2.0900*%
%ADD55R,1.5900X1.5900*%
%ADD56C,1.5900*%
%ADD58O,2.0900X1.7900*%
%ADD59R,2.0900X1.7900*%
%ADD60R,1.9900X1.7900*%
%ADD61O,1.9900X1.7900*%
%ADD62C,2.2400*%
%ADD63R,2.2400X2.2400*%
%ADD64C,0.7900*%
D52*
X1550000Y1220000D02*
D03*
X1380000Y300000D02*
D03*
X1000000Y1090000D02*
D03*
X740000Y470000D02*
D03*
Y750000D02*
D03*
X50000Y1210000D02*
D03*
Y50000D02*
D03*
X1560000Y40000D02*
D03*
D53*
X367900Y752500D02*
D03*
X342500D02*
D03*
X317100D02*
D03*
X393300D02*
D03*
X440000Y1050000D02*
D03*
X465400D02*
D03*
D54*
X291700Y752500D02*
D03*
X414600Y1050000D02*
D03*
D55*
X125500Y346500D02*
D03*
D56*
X190500D02*
D03*
Y301500D02*
D03*
D58*
X20000Y439200D02*
D03*
X45400D02*
D03*
X20000Y413800D02*
D03*
X45400D02*
D03*
Y490000D02*
D03*
X20000Y464600D02*
D03*
X45400D02*
D03*
X20000Y600000D02*
D03*
Y574600D02*
D03*
Y549200D02*
D03*
D59*
Y490000D02*
D03*
Y625400D02*
D03*
D60*
X65400Y739200D02*
D03*
D61*
X40000Y840800D02*
D03*
Y815400D02*
D03*
Y790000D02*
D03*
Y764600D02*
D03*
Y739200D02*
D03*
X65400Y840800D02*
D03*
Y815400D02*
D03*
Y790000D02*
D03*
X65400Y764600D02*
D03*
D62*
X350000Y1210000D02*
D03*
D63*
X310400D02*
D03*
D64*
X1430000Y900000D02*
D03*
X1410000D02*
D03*
X1390000D02*
D03*
X1430000Y880000D02*
D03*
X1410000D02*
D03*
X1390000D02*
D03*
X1430000Y920000D02*
D03*
X1410000D02*
D03*
X1390000D02*
D03*
Y970000D02*
D03*
X1410000D02*
D03*
X1430000D02*
D03*
Y990000D02*
D03*
X1410000D02*
D03*
X1390000D02*
D03*
Y1010000D02*
D03*
X1410000D02*
D03*
X1430000D02*
D03*
Y1030000D02*
D03*
X1410000D02*
D03*
X1390000D02*
D03*
X1440000Y1020000D02*
D03*
Y1000000D02*
D03*
Y980000D02*
D03*
Y960000D02*
D03*
X1420000D02*
D03*
Y980000D02*
D03*
Y1000000D02*
D03*
Y1020000D02*
D03*
X1400000Y960000D02*
D03*
Y980000D02*
D03*
Y1000000D02*
D03*
Y1020000D02*
D03*
X1380000Y960000D02*
D03*
Y980000D02*
D03*
Y1000000D02*
D03*
Y1020000D02*
D03*
X1440000Y1040000D02*
D03*
X1420000D02*
D03*
X1400000D02*
D03*
X1380000D02*
D03*
X1390000Y1120000D02*
D03*
X1410000D02*
D03*
X1430000D02*
D03*
Y1100000D02*
D03*
X1410000D02*
D03*
X1390000D02*
D03*
X1400000Y1090000D02*
D03*
X1420000D02*
D03*
X1440000D02*
D03*
Y1110000D02*
D03*
X1420000D02*
D03*
X1400000D02*
D03*
X1430000Y1140000D02*
D03*
X1410000D02*
D03*
X1390000D02*
D03*
X1440000Y1130000D02*
D03*
X1420000D02*
D03*
X1400000D02*
D03*
X1430000Y1160000D02*
D03*
X1410000D02*
D03*
X1390000D02*
D03*
X1440000Y1150000D02*
D03*
X1420000D02*
D03*
X1400000D02*
D03*
X1380000Y1090000D02*
D03*
Y1110000D02*
D03*
Y1130000D02*
D03*
Y1150000D02*
D03*
X1440000Y1170000D02*
D03*
X1420000D02*
D03*
X1400000D02*
D03*
X1380000D02*
D03*
X762501Y1130001D02*
D03*
X753501D02*
D03*
X744501D02*
D03*
X330750Y527500D02*
D03*
X297000Y503000D02*
D03*
X120000Y1060000D02*
D03*
X290750Y241250D02*
D03*
X628250Y166250D02*
D03*
X478250Y1066250D02*
D03*
X590750Y391250D02*
D03*
X515750Y841250D02*
D03*
X665750Y91250D02*
D03*
X778250Y1216250D02*
D03*
X65750Y541250D02*
D03*
X215750Y991250D02*
D03*
X665750Y391250D02*
D03*
X65750Y1141250D02*
D03*
X140750Y241250D02*
D03*
X253250Y1216250D02*
D03*
X590750Y691250D02*
D03*
X140750D02*
D03*
Y1141250D02*
D03*
X515750D02*
D03*
X478250Y916250D02*
D03*
X178250D02*
D03*
X778250Y1066250D02*
D03*
X440750Y691250D02*
D03*
X65750Y241250D02*
D03*
X478250Y466250D02*
D03*
X65750Y691250D02*
D03*
X590750Y1141250D02*
D03*
X440750Y91250D02*
D03*
X290750Y841250D02*
D03*
X440750Y1141250D02*
D03*
X178250Y166250D02*
D03*
X253250Y916250D02*
D03*
X553250Y1066250D02*
D03*
X665750Y991250D02*
D03*
X215750Y241250D02*
D03*
X628250Y1066250D02*
D03*
Y1216250D02*
D03*
X815750Y1141250D02*
D03*
X553250Y766250D02*
D03*
X515750Y391250D02*
D03*
X853250Y1066250D02*
D03*
X515750Y91250D02*
D03*
X290750Y1141250D02*
D03*
X140750Y391250D02*
D03*
X853250Y1216250D02*
D03*
X478250D02*
D03*
X65750Y391250D02*
D03*
X665750Y841250D02*
D03*
X328250Y1066250D02*
D03*
X290750Y691250D02*
D03*
X215750Y91250D02*
D03*
X103250Y1216250D02*
D03*
X65750Y91250D02*
D03*
X403250Y1216250D02*
D03*
X215750Y841250D02*
D03*
X140750Y91250D02*
D03*
X440750Y241250D02*
D03*
X665750Y691250D02*
D03*
X553250Y916250D02*
D03*
Y1216250D02*
D03*
X290750Y91250D02*
D03*
X103250Y766250D02*
D03*
X253250Y166250D02*
D03*
X103250D02*
D03*
X178250Y316250D02*
D03*
X553250Y466250D02*
D03*
Y616250D02*
D03*
X215750Y1141250D02*
D03*
X178250Y1216250D02*
D03*
X665750Y541250D02*
D03*
X103250Y916250D02*
D03*
X140750Y841250D02*
D03*
X365750Y1141250D02*
D03*
X178250Y766250D02*
D03*
X65750Y991250D02*
D03*
X440750Y391250D02*
D03*
X103250Y1066250D02*
D03*
X365750Y991250D02*
D03*
X440000Y1235000D02*
D03*
X540000D02*
D03*
X600000D02*
D03*
X820000Y1225000D02*
D03*
X840000Y1240000D02*
D03*
X800000D02*
D03*
X770000D02*
D03*
X515000Y1180000D02*
D03*
X480000D02*
D03*
X1060000Y220000D02*
D03*
Y240000D02*
D03*
X1040000Y220000D02*
D03*
Y240000D02*
D03*
X1020000Y220000D02*
D03*
Y240000D02*
D03*
Y260000D02*
D03*
X1040000D02*
D03*
X1060000D02*
D03*
Y280000D02*
D03*
X1040000D02*
D03*
X1020000D02*
D03*
Y360000D02*
D03*
Y380000D02*
D03*
Y400000D02*
D03*
X1040000D02*
D03*
Y380000D02*
D03*
Y360000D02*
D03*
X1060000D02*
D03*
Y380000D02*
D03*
Y400000D02*
D03*
Y420000D02*
D03*
X1040000D02*
D03*
X1020000D02*
D03*
Y510000D02*
D03*
Y530000D02*
D03*
Y550000D02*
D03*
X1040000D02*
D03*
Y530000D02*
D03*
Y510000D02*
D03*
X1060000D02*
D03*
Y530000D02*
D03*
Y550000D02*
D03*
Y570000D02*
D03*
X1040000D02*
D03*
X1020000D02*
D03*
X1060000Y800000D02*
D03*
X1040000D02*
D03*
X1020000D02*
D03*
Y820000D02*
D03*
X1040000D02*
D03*
X1060000D02*
D03*
Y840000D02*
D03*
X1040000D02*
D03*
X1020000D02*
D03*
X1060000Y860000D02*
D03*
X1040000D02*
D03*
X1020000D02*
D03*
Y940000D02*
D03*
X1040000D02*
D03*
X1060000D02*
D03*
Y960000D02*
D03*
X1040000D02*
D03*
X1020000D02*
D03*
Y980000D02*
D03*
X1040000D02*
D03*
X1060000D02*
D03*
Y1000000D02*
D03*
X1040000D02*
D03*
X1020000D02*
D03*
X1060000Y650000D02*
D03*
X1040000D02*
D03*
X1020000D02*
D03*
Y670000D02*
D03*
X1040000D02*
D03*
X1060000D02*
D03*
Y690000D02*
D03*
X1040000D02*
D03*
X1020000D02*
D03*
X1060000Y710000D02*
D03*
X1040000D02*
D03*
X1020000D02*
D03*
X1459000Y555000D02*
D03*
X1464500Y544000D02*
D03*
X1459000Y533000D02*
D03*
X1464500Y522000D02*
D03*
X1459000Y511000D02*
D03*
X1464500Y500000D02*
D03*
X1453500Y566000D02*
D03*
X1448000Y555000D02*
D03*
X1453500Y544000D02*
D03*
Y500000D02*
D03*
X1442500Y566000D02*
D03*
Y500000D02*
D03*
X1431500Y566000D02*
D03*
Y500000D02*
D03*
X1420500Y566000D02*
D03*
Y500000D02*
D03*
X1409500Y566000D02*
D03*
Y500000D02*
D03*
X1398500Y566000D02*
D03*
Y500000D02*
D03*
X1387500Y566000D02*
D03*
Y500000D02*
D03*
X1376500Y566000D02*
D03*
X1371000Y555000D02*
D03*
Y511000D02*
D03*
X1376500Y500000D02*
D03*
X1365500Y566000D02*
D03*
X1360000Y555000D02*
D03*
X1365500Y544000D02*
D03*
X1360000Y533000D02*
D03*
Y511000D02*
D03*
X1365500Y500000D02*
D03*
X1354500Y566000D02*
D03*
X1349000Y555000D02*
D03*
X1354500Y544000D02*
D03*
X1349000Y533000D02*
D03*
X1354500Y522000D02*
D03*
X1349000Y511000D02*
D03*
X1354500Y500000D02*
D03*
X1332500Y566000D02*
D03*
Y544000D02*
D03*
Y522000D02*
D03*
Y500000D02*
D03*
X1140000Y577000D02*
D03*
Y555000D02*
D03*
Y533000D02*
D03*
Y511000D02*
D03*
Y489000D02*
D03*
X1134500Y588000D02*
D03*
Y566000D02*
D03*
Y544000D02*
D03*
Y522000D02*
D03*
Y500000D02*
D03*
X1118000Y577000D02*
D03*
X1123500Y566000D02*
D03*
X1118000Y555000D02*
D03*
X1123500Y544000D02*
D03*
X1118000Y533000D02*
D03*
X1123500Y522000D02*
D03*
X1118000Y511000D02*
D03*
X1123500Y500000D02*
D03*
X1118000Y489000D02*
D03*
X1112500Y588000D02*
D03*
X1107000Y577000D02*
D03*
X1112500Y566000D02*
D03*
X1107000Y555000D02*
D03*
X1112500Y544000D02*
D03*
X1107000Y533000D02*
D03*
X1112500Y522000D02*
D03*
X1107000Y511000D02*
D03*
X1112500Y500000D02*
D03*
X1107000Y489000D02*
D03*
X1101500Y588000D02*
D03*
X1096000Y577000D02*
D03*
X1101500Y566000D02*
D03*
X1096000Y555000D02*
D03*
X1101500Y544000D02*
D03*
X1096000Y533000D02*
D03*
X1101500Y522000D02*
D03*
X1096000Y511000D02*
D03*
X1101500Y500000D02*
D03*
X1096000Y489000D02*
D03*
X1010000Y1010000D02*
D03*
X1030000D02*
D03*
X1050000D02*
D03*
X1070000D02*
D03*
X1010000Y990000D02*
D03*
X1030000D02*
D03*
X1050000D02*
D03*
X1070000D02*
D03*
X1010000Y970000D02*
D03*
X1030000D02*
D03*
X1050000D02*
D03*
X1070000D02*
D03*
X1010000Y950000D02*
D03*
X1030000D02*
D03*
X1050000D02*
D03*
X1070000D02*
D03*
X1010000Y930000D02*
D03*
X1030000D02*
D03*
X1050000D02*
D03*
X1070000D02*
D03*
X1010000Y290000D02*
D03*
X1030000D02*
D03*
X1050000D02*
D03*
X1070000D02*
D03*
X1010000Y270000D02*
D03*
X1030000D02*
D03*
X1050000D02*
D03*
X1070000D02*
D03*
X1010000Y250000D02*
D03*
X1030000D02*
D03*
X1050000D02*
D03*
X1070000D02*
D03*
X1010000Y230000D02*
D03*
X1030000D02*
D03*
X1050000D02*
D03*
X1070000D02*
D03*
X1010000Y210000D02*
D03*
X1030000D02*
D03*
X1050000D02*
D03*
X1070000D02*
D03*
X1010000Y430000D02*
D03*
X1030000D02*
D03*
X1050000D02*
D03*
X1070000D02*
D03*
X1010000Y410000D02*
D03*
X1030000D02*
D03*
X1050000D02*
D03*
X1070000D02*
D03*
X1010000Y390000D02*
D03*
X1030000D02*
D03*
X1050000D02*
D03*
X1070000D02*
D03*
X1010000Y370000D02*
D03*
X1030000D02*
D03*
X1050000D02*
D03*
X1070000D02*
D03*
X1010000Y350000D02*
D03*
X1030000D02*
D03*
X1050000D02*
D03*
X1070000D02*
D03*
X1010000Y580000D02*
D03*
X1030000D02*
D03*
X1050000D02*
D03*
X1070000D02*
D03*
X1010000Y560000D02*
D03*
X1030000D02*
D03*
X1050000D02*
D03*
X1070000D02*
D03*
X1010000Y540000D02*
D03*
X1030000D02*
D03*
X1050000D02*
D03*
X1070000D02*
D03*
X1010000Y520000D02*
D03*
X1030000D02*
D03*
X1050000D02*
D03*
X1070000D02*
D03*
X1010000Y500000D02*
D03*
X1030000D02*
D03*
X1050000D02*
D03*
X1070000D02*
D03*
X1010000Y720000D02*
D03*
X1030000D02*
D03*
X1050000D02*
D03*
X1070000D02*
D03*
X1010000Y700000D02*
D03*
X1030000D02*
D03*
X1050000D02*
D03*
X1070000D02*
D03*
X1010000Y680000D02*
D03*
X1030000D02*
D03*
X1050000D02*
D03*
X1070000D02*
D03*
X1010000Y660000D02*
D03*
X1030000D02*
D03*
X1050000D02*
D03*
X1070000D02*
D03*
X1010000Y640000D02*
D03*
X1030000D02*
D03*
X1050000D02*
D03*
X1070000D02*
D03*
Y790000D02*
D03*
X1050000D02*
D03*
X1030000D02*
D03*
X1010000D02*
D03*
X1070000Y810000D02*
D03*
X1050000D02*
D03*
X1030000D02*
D03*
X1010000D02*
D03*
X1070000Y830000D02*
D03*
X1050000D02*
D03*
X1030000D02*
D03*
X1010000D02*
D03*
X1070000Y850000D02*
D03*
X1050000D02*
D03*
X1030000D02*
D03*
X1010000D02*
D03*
X1070000Y870000D02*
D03*
X1050000D02*
D03*
X1030000D02*
D03*
X1010000D02*
D03*
X644750Y662250D02*
D03*
X378250Y999000D02*
D03*
X710500Y1082250D02*
D03*
X709750Y1095750D02*
D03*
X609000Y980000D02*
D03*
X237000Y527250D02*
D03*
X247750Y544000D02*
D03*
X241500Y552500D02*
D03*
X257438Y538353D02*
D03*
X401750Y678000D02*
D03*
X627250Y965000D02*
D03*
X616250D02*
D03*
X605000D02*
D03*
X620000Y980000D02*
D03*
X1458001Y462000D02*
D03*
X1463501Y451000D02*
D03*
X1458001Y440000D02*
D03*
X1463501Y429000D02*
D03*
X1452501Y473000D02*
D03*
Y429000D02*
D03*
X1441501D02*
D03*
X1375501D02*
D03*
X1364501Y473000D02*
D03*
X1359001Y462000D02*
D03*
Y440000D02*
D03*
X1364501Y429000D02*
D03*
X1353501Y473000D02*
D03*
X1348001Y462000D02*
D03*
X1353501Y451000D02*
D03*
X1348001Y440000D02*
D03*
X1353501Y429000D02*
D03*
X1337001Y418000D02*
D03*
X1331501Y473000D02*
D03*
Y451000D02*
D03*
Y429000D02*
D03*
Y407000D02*
D03*
Y385000D02*
D03*
Y363000D02*
D03*
Y341000D02*
D03*
Y319000D02*
D03*
Y297000D02*
D03*
Y275000D02*
D03*
Y253000D02*
D03*
X1139000Y286000D02*
D03*
Y264000D02*
D03*
Y242000D02*
D03*
Y220000D02*
D03*
Y198000D02*
D03*
X1128000Y308000D02*
D03*
X1122501Y297000D02*
D03*
X1117001Y286000D02*
D03*
X1122501Y275000D02*
D03*
X1117001Y264000D02*
D03*
X1122501Y253000D02*
D03*
X1117001Y242000D02*
D03*
X1122501Y231000D02*
D03*
X1117001Y220000D02*
D03*
X1122501Y209000D02*
D03*
X1117001Y198000D02*
D03*
X1111500Y297000D02*
D03*
X1106001Y286000D02*
D03*
X1111500Y275000D02*
D03*
X1106001Y264000D02*
D03*
X1111500Y253000D02*
D03*
X1106001Y242000D02*
D03*
X1111500Y231000D02*
D03*
X1106001Y220000D02*
D03*
X1111500Y209000D02*
D03*
X1106001Y198000D02*
D03*
X1100500Y297000D02*
D03*
X1095001Y286000D02*
D03*
X1100500Y275000D02*
D03*
X1095001Y264000D02*
D03*
X1100500Y253000D02*
D03*
X1095001Y242000D02*
D03*
X1100500Y231000D02*
D03*
X1095001Y220000D02*
D03*
X1100500Y209000D02*
D03*
X1095001Y198000D02*
D03*
X1463501Y627000D02*
D03*
X1458001Y616000D02*
D03*
X1463501Y605000D02*
D03*
X1458001Y594000D02*
D03*
X1452501Y627000D02*
D03*
X1364501D02*
D03*
X1359001Y616000D02*
D03*
X1364501Y605000D02*
D03*
X1359001Y594000D02*
D03*
X1353501Y627000D02*
D03*
X1348001Y616000D02*
D03*
X1353501Y605000D02*
D03*
X1348001Y594000D02*
D03*
X1342501Y649000D02*
D03*
X1331501D02*
D03*
Y627000D02*
D03*
Y605000D02*
D03*
X1139000Y858000D02*
D03*
Y836000D02*
D03*
Y814000D02*
D03*
Y792000D02*
D03*
Y770000D02*
D03*
X1128000D02*
D03*
X1122501Y869000D02*
D03*
X1117001Y858000D02*
D03*
X1122501Y847000D02*
D03*
X1117001Y836000D02*
D03*
X1122501Y825000D02*
D03*
X1117001Y814000D02*
D03*
X1122501Y803000D02*
D03*
X1117001Y792000D02*
D03*
X1122501Y781000D02*
D03*
Y759000D02*
D03*
X1111500Y869000D02*
D03*
X1106001Y858000D02*
D03*
X1111500Y847000D02*
D03*
X1106001Y836000D02*
D03*
X1111500Y825000D02*
D03*
X1106001Y814000D02*
D03*
X1111500Y803000D02*
D03*
X1106001Y792000D02*
D03*
X1111500Y781000D02*
D03*
X1106001Y770000D02*
D03*
X1111500Y759000D02*
D03*
X1100500Y869000D02*
D03*
X1095001Y858000D02*
D03*
X1100500Y847000D02*
D03*
X1095001Y836000D02*
D03*
X1100500Y825000D02*
D03*
X1095001Y814000D02*
D03*
X1100500Y803000D02*
D03*
X1095001Y792000D02*
D03*
X1100500Y781000D02*
D03*
X1095001Y770000D02*
D03*
X944001Y725000D02*
D03*
Y683000D02*
D03*
Y179000D02*
D03*
X933501Y746000D02*
D03*
X923001Y725000D02*
D03*
Y683000D02*
D03*
Y599000D02*
D03*
X933501Y578000D02*
D03*
Y536000D02*
D03*
Y452000D02*
D03*
X923001Y305000D02*
D03*
X933501Y200000D02*
D03*
X923001Y179000D02*
D03*
X912501Y746000D02*
D03*
X902001Y725000D02*
D03*
Y683000D02*
D03*
Y599000D02*
D03*
X912501Y578000D02*
D03*
Y536000D02*
D03*
X902001Y515000D02*
D03*
X912501Y452000D02*
D03*
X902001Y305000D02*
D03*
Y221000D02*
D03*
X912501Y200000D02*
D03*
X902001Y179000D02*
D03*
X891501Y788000D02*
D03*
Y746000D02*
D03*
X881001Y725000D02*
D03*
Y683000D02*
D03*
X891501Y620000D02*
D03*
X881001Y599000D02*
D03*
X891501Y578000D02*
D03*
X881001Y515000D02*
D03*
X891501Y494000D02*
D03*
Y452000D02*
D03*
Y410000D02*
D03*
X881001Y347000D02*
D03*
X891501Y326000D02*
D03*
X881001Y305000D02*
D03*
Y221000D02*
D03*
X891501Y200000D02*
D03*
X881001Y179000D02*
D03*
X870501Y788000D02*
D03*
Y746000D02*
D03*
X860001Y725000D02*
D03*
Y641000D02*
D03*
X870501Y620000D02*
D03*
Y536000D02*
D03*
X860001Y515000D02*
D03*
X870501Y494000D02*
D03*
Y452000D02*
D03*
Y368000D02*
D03*
X860001Y263000D02*
D03*
Y221000D02*
D03*
X870501Y200000D02*
D03*
X860001Y179000D02*
D03*
X849501Y788000D02*
D03*
Y746000D02*
D03*
X839001Y725000D02*
D03*
Y641000D02*
D03*
X849501Y536000D02*
D03*
X839001Y515000D02*
D03*
X849501Y494000D02*
D03*
Y452000D02*
D03*
Y368000D02*
D03*
X839001Y263000D02*
D03*
Y221000D02*
D03*
X849501Y200000D02*
D03*
X839001Y179000D02*
D03*
X828501Y788000D02*
D03*
Y746000D02*
D03*
X818001Y725000D02*
D03*
X828501Y578000D02*
D03*
Y536000D02*
D03*
X818001Y515000D02*
D03*
X828501Y494000D02*
D03*
Y452000D02*
D03*
Y410000D02*
D03*
Y368000D02*
D03*
Y326000D02*
D03*
X818001Y263000D02*
D03*
Y221000D02*
D03*
X828501Y200000D02*
D03*
X818001Y179000D02*
D03*
X807501Y788000D02*
D03*
Y746000D02*
D03*
X797001Y725000D02*
D03*
Y683000D02*
D03*
X807501Y536000D02*
D03*
X797001Y515000D02*
D03*
X807501Y494000D02*
D03*
Y452000D02*
D03*
X797001Y263000D02*
D03*
Y221000D02*
D03*
X807501Y200000D02*
D03*
X797001Y179000D02*
D03*
X277000Y410000D02*
D03*
X180000Y563790D02*
D03*
X547500Y282500D02*
D03*
X450000Y100000D02*
D03*
X184441Y459059D02*
D03*
X250298Y494375D02*
D03*
X227500Y480000D02*
D03*
X645000Y952500D02*
D03*
X446861Y610639D02*
D03*
X285000Y312500D02*
D03*
X336147Y401103D02*
D03*
X382910Y459660D02*
D03*
X355250Y428000D02*
D03*
X393750Y441250D02*
D03*
X379000Y541250D02*
D03*
X357250Y553000D02*
D03*
X259500Y503500D02*
D03*
X288750Y541250D02*
D03*
X279750Y575000D02*
D03*
X270000Y560000D02*
D03*
X290000Y569000D02*
D03*
X268500Y571000D02*
D03*
X696250Y437000D02*
D03*
X358000Y849000D02*
D03*
X371000Y812000D02*
D03*
X222500Y135000D02*
D03*
X506750Y189250D02*
D03*
X562750Y166000D02*
D03*
X520250Y740000D02*
D03*
X553000Y685500D02*
D03*
X125250Y280000D02*
D03*
X104500Y674250D02*
D03*
X214250Y206000D02*
D03*
X163000Y218750D02*
D03*
X359750Y383250D02*
D03*
X129000Y226750D02*
D03*
X332000Y922750D02*
D03*
X546750Y374750D02*
D03*
X655750Y868250D02*
D03*
X654000Y293500D02*
D03*
X653500Y579250D02*
D03*
X645000Y375000D02*
D03*
X385000Y315000D02*
D03*
X120000Y1005000D02*
D03*
X440000Y820000D02*
D03*
X425000D02*
D03*
X410000D02*
D03*
X440000Y835000D02*
D03*
X425000D02*
D03*
X410000D02*
D03*
X440000Y850000D02*
D03*
X425000D02*
D03*
X410000D02*
D03*
X552000Y798000D02*
D03*
Y862000D02*
D03*
X548000Y499000D02*
D03*
X547000Y573000D02*
D03*
X84000Y438000D02*
D03*
X221000Y594000D02*
D03*
X100000Y640000D02*
D03*
X150000Y528000D02*
D03*
X133000Y547000D02*
D03*
X320000Y513000D02*
D03*
X186000Y396000D02*
D03*
X402000Y463000D02*
D03*
X320000Y245000D02*
D03*
X469000Y329000D02*
D03*
X420000Y327500D02*
D03*
X320000Y330000D02*
D03*
X318000Y599750D02*
D03*
X312000Y572000D02*
D03*
X293301Y605301D02*
D03*
X305000Y598000D02*
D03*
X618040Y344025D02*
D03*
X695000Y356000D02*
D03*
X615000Y740000D02*
D03*
X513000Y698000D02*
D03*
X447000Y646000D02*
D03*
X447044Y500000D02*
D03*
X412000Y521000D02*
D03*
X485000Y605000D02*
D03*
X378977Y590750D02*
D03*
X419000Y717000D02*
D03*
X308000Y700000D02*
D03*
X347000Y723000D02*
D03*
X362000Y696000D02*
D03*
X372500Y45000D02*
D03*
X405000Y167500D02*
D03*
X385000D02*
D03*
X372500D02*
D03*
X385000Y53040D02*
D03*
X405000Y61040D02*
D03*
X317500Y480000D02*
D03*
X1162500Y172500D02*
D03*
X332500Y625000D02*
D03*
X242500Y385000D02*
D03*
X292500Y785000D02*
D03*
X477000Y139000D02*
D03*
X475000Y205000D02*
D03*
X726000Y224000D02*
D03*
X716000Y510000D02*
D03*
X721000Y802000D02*
D03*
X617000Y850000D02*
D03*
X616000Y275000D02*
D03*
X618000Y400000D02*
D03*
X616000Y431000D02*
D03*
X617000Y552000D02*
D03*
Y630000D02*
D03*
X622000Y685000D02*
D03*
X622285Y918950D02*
D03*
M02*
