G04*
G04 #@! TF.GenerationSoftware,Altium Limited,Altium Designer,23.6.0 (18)*
G04*
G04 Layer_Color=65535*
%FSLAX44Y44*%
%MOMM*%
G71*
G04*
G04 #@! TF.SameCoordinates,1F3C283D-9475-48EB-A570-AF6A427DC10D*
G04*
G04*
G04 #@! TF.FilePolarity,Positive*
G04*
G01*
G75*
%ADD10C,0.2500*%
%ADD11C,0.2000*%
%ADD12C,0.2540*%
%ADD13C,0.0500*%
%ADD14C,0.1000*%
G36*
X972300Y732300D02*
X963300D01*
X972300Y723300D01*
Y732300D01*
D02*
G37*
D10*
X1898750Y825000D02*
G03*
X1898750Y825000I-1250J0D01*
G01*
X968750Y1530000D02*
G03*
X968750Y1530000I-1250J0D01*
G01*
X1158350Y1530000D02*
G03*
X1158350Y1530000I-1250J0D01*
G01*
X1491405Y642435D02*
G03*
X1491405Y642435I-1250J0D01*
G01*
X1019350Y999350D02*
G03*
X1019350Y999350I-1250J0D01*
G01*
X1401750Y767300D02*
G03*
X1401750Y767300I-1250J0D01*
G01*
D11*
X1437760Y619265D02*
G03*
X1486050Y619265I24145J10920D01*
G01*
X1880000Y818500D02*
X1924000D01*
X1880000Y716500D02*
X1924000D01*
X1880000D02*
Y818500D01*
X1924000Y716500D02*
Y818500D01*
X1919000Y716500D02*
Y818500D01*
X974000Y1551500D02*
X1076000D01*
X974000Y1556500D02*
X1076000D01*
X974000Y1512500D02*
X1076000D01*
Y1556500D01*
X974000Y1512500D02*
Y1556500D01*
X1163600Y1512500D02*
Y1556500D01*
X1265600Y1512500D02*
Y1556500D01*
X1163600Y1512500D02*
X1265600D01*
X1163600Y1556500D02*
X1265600D01*
X1163600Y1551500D02*
X1265600D01*
X1537000Y531000D02*
Y599000D01*
X1563000D01*
Y531000D02*
Y599000D01*
X1537000Y531000D02*
X1563000D01*
X1550000Y525250D02*
Y531000D01*
Y599000D02*
Y604750D01*
X1439180Y643435D02*
X1484630D01*
X1005900Y1029300D02*
X1107500D01*
Y1075300D01*
X1005900D02*
X1107500D01*
X1005900Y1058871D02*
Y1075300D01*
Y1058871D02*
X1010900D01*
Y1045729D02*
Y1058871D01*
X1005900Y1045729D02*
X1010900D01*
X1005900Y1029300D02*
Y1045729D01*
X1501500Y575000D02*
X1507250D01*
X1427750D02*
X1433500D01*
Y562000D02*
Y588000D01*
Y562000D02*
X1501500D01*
Y588000D01*
X1433500D02*
X1501500D01*
X897100Y1385570D02*
X922900D01*
X896400Y1401620D02*
X923600D01*
X896400Y1349520D02*
Y1401620D01*
Y1349520D02*
X923600D01*
Y1401620D01*
X1089200Y1145900D02*
X1140000D01*
Y1114100D02*
Y1119750D01*
Y1140250D02*
Y1145900D01*
X1089200Y1114100D02*
X1140000D01*
X1089200D02*
Y1119750D01*
Y1140250D02*
Y1145900D01*
X937000Y1246000D02*
Y1314000D01*
X963000D01*
Y1246000D02*
Y1314000D01*
X937000Y1246000D02*
X963000D01*
X950000Y1240250D02*
Y1246000D01*
Y1314000D02*
Y1319750D01*
X966000Y1383000D02*
X1034000D01*
Y1357000D02*
Y1383000D01*
X966000Y1357000D02*
X1034000D01*
X966000D02*
Y1383000D01*
X960250Y1370000D02*
X966000D01*
X1034000D02*
X1039750D01*
X1569200Y728400D02*
X1620000D01*
Y696600D02*
Y702250D01*
Y722750D02*
Y728400D01*
X1569200Y696600D02*
X1620000D01*
X1569200D02*
Y702250D01*
Y722750D02*
Y728400D01*
X1430000Y730250D02*
Y736000D01*
Y804000D02*
Y809750D01*
X1417000Y804000D02*
X1443000D01*
X1417000Y736000D02*
Y804000D01*
Y736000D02*
X1443000D01*
Y804000D01*
X1100000Y434380D02*
Y448380D01*
Y489380D02*
Y503380D01*
X1088000Y478880D02*
X1112000D01*
X1087000Y489380D02*
X1113000D01*
X1087000Y448380D02*
Y489380D01*
Y448380D02*
X1113000D01*
Y489380D01*
X1160250Y490000D02*
X1165900D01*
X1134100D02*
X1139750D01*
X1134100Y439200D02*
Y490000D01*
X1160250Y439200D02*
X1165900D01*
X1134100D02*
X1139750D01*
X1165900D02*
Y490000D01*
X1100000Y571330D02*
Y575330D01*
Y620930D02*
Y624930D01*
X1091450Y613130D02*
X1108550D01*
X1090450Y620930D02*
X1109550D01*
X1090450Y575330D02*
Y620930D01*
Y575330D02*
X1109550D01*
Y620930D01*
X986000Y627000D02*
X1054000D01*
X986000D02*
Y653000D01*
X1054000D01*
Y627000D02*
Y653000D01*
Y640000D02*
X1059750D01*
X980250D02*
X986000D01*
X1254100Y759200D02*
X1259750D01*
X1280250D02*
X1285900D01*
Y810000D01*
X1254100D02*
X1259750D01*
X1280250D02*
X1285900D01*
X1254100Y759200D02*
Y810000D01*
X1375000Y754600D02*
Y805400D01*
X1325000D02*
X1375000D01*
X1325000Y754600D02*
Y805400D01*
Y754600D02*
X1342857D01*
Y759600D01*
X1357143D01*
Y754600D02*
Y759600D01*
Y754600D02*
X1375000D01*
X1130250Y810000D02*
X1136000D01*
X1204000D02*
X1209750D01*
X1204000Y797000D02*
Y823000D01*
X1136000D02*
X1204000D01*
X1136000Y797000D02*
Y823000D01*
Y797000D02*
X1204000D01*
X1136000Y757000D02*
X1204000D01*
X1136000D02*
Y783000D01*
X1204000D01*
Y757000D02*
Y783000D01*
Y770000D02*
X1209750D01*
X1130250D02*
X1136000D01*
X1176000Y873000D02*
X1244000D01*
Y847000D02*
Y873000D01*
X1176000Y847000D02*
X1244000D01*
X1176000D02*
Y873000D01*
X1170250Y860000D02*
X1176000D01*
X1244000D02*
X1249750D01*
X1360450Y1235330D02*
Y1280930D01*
X1379550D01*
Y1235330D02*
Y1280930D01*
X1360450Y1235330D02*
X1379550D01*
X1361450Y1243130D02*
X1378550D01*
X1370000Y1231330D02*
Y1235330D01*
Y1280930D02*
Y1284930D01*
X1275000Y1156600D02*
X1325800D01*
X1275000Y1182750D02*
Y1188400D01*
Y1156600D02*
Y1162250D01*
Y1188400D02*
X1325800D01*
Y1182750D02*
Y1188400D01*
Y1156600D02*
Y1162250D01*
X1274200Y1204100D02*
X1325000D01*
X1274200Y1230250D02*
Y1235900D01*
Y1204100D02*
Y1209750D01*
Y1235900D02*
X1325000D01*
Y1230250D02*
Y1235900D01*
Y1204100D02*
Y1209750D01*
X1261000Y1273000D02*
X1329000D01*
Y1247000D02*
Y1273000D01*
X1261000Y1247000D02*
X1329000D01*
X1261000D02*
Y1273000D01*
X1255250Y1260000D02*
X1261000D01*
X1329000D02*
X1334750D01*
X1413100Y1365000D02*
X1419250D01*
X1333250D02*
X1339400D01*
Y1352550D02*
Y1377450D01*
Y1352550D02*
X1413100D01*
Y1377450D01*
X1339400D02*
X1413100D01*
X1243600Y1349520D02*
Y1401620D01*
X1216400Y1349520D02*
X1243600D01*
X1216400D02*
Y1401620D01*
X1243600D01*
X1217100Y1385570D02*
X1242900D01*
X1284070Y1285450D02*
X1329670D01*
X1284070D02*
Y1304550D01*
X1329670D01*
Y1285450D02*
Y1304550D01*
X1321870Y1286450D02*
Y1303550D01*
X1329670Y1295000D02*
X1333670D01*
X1280070D02*
X1284070D01*
X1177000Y1246000D02*
Y1314000D01*
X1203000D01*
Y1246000D02*
Y1314000D01*
X1177000Y1246000D02*
X1203000D01*
X1190000Y1240250D02*
Y1246000D01*
Y1314000D02*
Y1319750D01*
X1106000Y1397000D02*
X1174000D01*
X1106000D02*
Y1423000D01*
X1174000D01*
Y1397000D02*
Y1423000D01*
Y1410000D02*
X1179750D01*
X1100250D02*
X1106000D01*
Y1357000D02*
X1174000D01*
X1106000D02*
Y1383000D01*
X1174000D01*
Y1357000D02*
Y1383000D01*
Y1370000D02*
X1179750D01*
X1100250D02*
X1106000D01*
X1204100Y919200D02*
X1209750D01*
X1230250D02*
X1235900D01*
Y970000D01*
X1204100D02*
X1209750D01*
X1230250D02*
X1235900D01*
X1204100Y919200D02*
Y970000D01*
X1273000Y916000D02*
Y984000D01*
X1247000Y916000D02*
X1273000D01*
X1247000D02*
Y984000D01*
X1273000D01*
X1260000D02*
Y989750D01*
Y910250D02*
Y916000D01*
X918000Y732700D02*
X972000D01*
X918000Y707300D02*
Y732700D01*
Y707300D02*
X972000D01*
Y732700D01*
X966000Y1117000D02*
X1034000D01*
X966000D02*
Y1143000D01*
X1034000D01*
Y1117000D02*
Y1143000D01*
Y1130000D02*
X1039750D01*
X960250D02*
X966000D01*
X1603000Y531000D02*
Y599000D01*
X1577000Y531000D02*
X1603000D01*
X1577000D02*
Y599000D01*
X1603000D01*
X1590000D02*
Y604750D01*
Y525250D02*
Y531000D01*
X1606620Y670000D02*
X1620620D01*
X1551620D02*
X1565620D01*
X1576120Y658000D02*
Y682000D01*
X1565620Y657000D02*
Y683000D01*
Y657000D02*
X1606620D01*
Y683000D01*
X1565620D02*
X1606620D01*
X1643000Y531000D02*
Y599000D01*
X1617000Y531000D02*
X1643000D01*
X1617000D02*
Y599000D01*
X1643000D01*
X1630000D02*
Y604750D01*
Y525250D02*
Y531000D01*
X1491000Y778000D02*
X1559000D01*
Y752000D02*
Y778000D01*
X1491000Y752000D02*
X1559000D01*
X1491000D02*
Y778000D01*
X1485250Y765000D02*
X1491000D01*
X1559000D02*
X1564750D01*
X1412155Y665185D02*
X1417805D01*
X1386005D02*
X1391655D01*
X1386005Y614385D02*
Y665185D01*
X1412155Y614385D02*
X1417805D01*
X1386005D02*
X1391655D01*
X1417805D02*
Y665185D01*
X1456905Y680435D02*
Y686085D01*
Y654285D02*
Y659935D01*
Y654285D02*
X1507705D01*
Y680435D02*
Y686085D01*
Y654285D02*
Y659935D01*
X1456905Y686085D02*
X1507705D01*
X1984100Y1360000D02*
Y1410800D01*
X2010250D02*
X2015900D01*
X1984100D02*
X1989750D01*
X2015900Y1360000D02*
Y1410800D01*
X2010250Y1360000D02*
X2015900D01*
X1984100D02*
X1989750D01*
X497375Y275000D02*
Y415000D01*
X394375Y266000D02*
Y424000D01*
X695630D01*
Y266000D02*
Y424000D01*
X394375Y266000D02*
X695630D01*
X592625Y275000D02*
Y415000D01*
X1560000Y270000D02*
Y410000D01*
X1457000Y261000D02*
Y419000D01*
X1663000D01*
Y261000D02*
Y419000D01*
X1457000Y261000D02*
X1663000D01*
X960250Y1410000D02*
X966000D01*
X1034000D02*
X1039750D01*
X1034000Y1397000D02*
Y1423000D01*
X966000D02*
X1034000D01*
X966000Y1397000D02*
Y1423000D01*
Y1397000D02*
X1034000D01*
X1920000Y1203250D02*
Y1209400D01*
Y1283100D02*
Y1289250D01*
X1907550Y1283100D02*
X1932450D01*
X1907550Y1209400D02*
Y1283100D01*
Y1209400D02*
X1932450D01*
Y1283100D01*
X2000000D02*
Y1289250D01*
Y1203250D02*
Y1209400D01*
X1987550D02*
X2012450D01*
Y1283100D01*
X1987550D02*
X2012450D01*
X1987550Y1209400D02*
Y1283100D01*
X1904100Y1360000D02*
Y1410800D01*
X1930250D02*
X1935900D01*
X1904100D02*
X1909750D01*
X1935900Y1360000D02*
Y1410800D01*
X1930250Y1360000D02*
X1935900D01*
X1904100D02*
X1909750D01*
X1290450Y919070D02*
Y964670D01*
X1309550D01*
Y919070D02*
Y964670D01*
X1290450Y919070D02*
X1309550D01*
X1291450Y926870D02*
X1308550D01*
X1300000Y915070D02*
Y919070D01*
Y964670D02*
Y968670D01*
D12*
X545000Y640000D02*
G03*
X545000Y640000I-125000J0D01*
G01*
Y915000D02*
G03*
X545000Y915000I-125000J0D01*
G01*
X820000Y640000D02*
G03*
X820000Y640000I-125000J0D01*
G01*
Y915000D02*
G03*
X820000Y915000I-125000J0D01*
G01*
X545000Y1190000D02*
G03*
X545000Y1190000I-125000J0D01*
G01*
X820000D02*
G03*
X820000Y1190000I-125000J0D01*
G01*
X1997500Y500000D02*
G03*
X1997500Y500000I-62500J0D01*
G01*
X1846544Y329970D02*
G03*
X1846544Y329970I-62500J0D01*
G01*
X1842500Y630000D02*
G03*
X1842500Y630000I-62500J0D01*
G01*
X1998985Y339970D02*
G03*
X1998985Y339970I-62500J0D01*
G01*
X1846545Y490000D02*
G03*
X1846545Y490000I-62500J0D01*
G01*
X1100000Y1270000D02*
G03*
X1100000Y1270000I-30000J0D01*
G01*
X1120000D02*
G03*
X1120000Y1270000I-50000J0D01*
G01*
X862500Y1510000D02*
Y1812500D01*
X1362500D01*
Y1510000D02*
Y1812500D01*
X862500Y1510000D02*
X1362500D01*
X1055000Y395000D02*
Y545000D01*
X1005000Y395000D02*
Y545000D01*
X1055000D01*
X1005000Y395000D02*
X1055000D01*
X925000D02*
X975000D01*
X925000Y545000D02*
X975000D01*
X925000Y395000D02*
Y545000D01*
X975000Y395000D02*
Y545000D01*
X895000Y395000D02*
Y545000D01*
X845000Y395000D02*
Y545000D01*
X895000D01*
X845000Y395000D02*
X895000D01*
X815000Y1550000D02*
Y1730000D01*
X495000Y1550000D02*
Y1730000D01*
Y1550000D02*
X815000D01*
X495000Y1730000D02*
X815000D01*
Y1345000D02*
Y1525000D01*
X495000Y1345000D02*
Y1525000D01*
Y1345000D02*
X815000D01*
X495000Y1525000D02*
X815000D01*
X1550000Y1340000D02*
Y1520000D01*
X1870000Y1340000D02*
Y1520000D01*
X1550000D02*
X1870000D01*
X1550000Y1340000D02*
X1870000D01*
X1550000Y1560000D02*
Y1740000D01*
X1870000Y1560000D02*
Y1740000D01*
X1550000D02*
X1870000D01*
X1550000Y1560000D02*
X1870000D01*
X510000Y610000D02*
Y630000D01*
X500000Y620000D02*
X520000D01*
X500000Y895000D02*
X520000D01*
X510000Y885000D02*
Y905000D01*
X785000Y610000D02*
Y630000D01*
X775000Y620000D02*
X795000D01*
X775000Y895000D02*
X795000D01*
X785000Y885000D02*
Y905000D01*
X510000Y1160000D02*
Y1180000D01*
X500000Y1170000D02*
X520000D01*
X775000D02*
X795000D01*
X785000Y1160000D02*
Y1180000D01*
X1970000Y485000D02*
X1980000D01*
X1975000Y480000D02*
Y490000D01*
X1744044Y339970D02*
Y349970D01*
X1739044Y344970D02*
X1749044D01*
X1735000Y645000D02*
X1745000D01*
X1740000Y640000D02*
Y650000D01*
X1976485Y319970D02*
Y329970D01*
X1971485Y324970D02*
X1981485D01*
X1739045Y505000D02*
X1749045D01*
X1744045Y500000D02*
Y510000D01*
X1822500Y1211500D02*
Y1251500D01*
X1426900Y1211500D02*
X1822500D01*
X1426900D02*
Y1251500D01*
X1822500D01*
X1702000Y948500D02*
Y1211500D01*
X1553000Y948500D02*
Y1211500D01*
X1426900Y947500D02*
X1822500Y947500D01*
Y907500D02*
Y947500D01*
X1426900Y907500D02*
Y947500D01*
Y907500D02*
X1822500Y907500D01*
X1298000Y305000D02*
Y335000D01*
X1403000Y305000D02*
Y335000D01*
X1298000D02*
X1403000D01*
X1298000Y305000D02*
X1403000D01*
X1261980Y1112300D02*
Y1137700D01*
X1328020Y1112300D02*
Y1137700D01*
X1261980D02*
X1328020D01*
X1261980Y1112300D02*
X1328020D01*
X1530956Y632383D02*
Y647617D01*
X1538574D01*
X1541113Y645078D01*
Y640000D01*
X1538574Y637461D01*
X1530956D01*
X1536035D02*
X1541113Y632383D01*
X1546191D02*
X1551270D01*
X1548730D01*
Y647617D01*
X1546191Y645078D01*
X1558887Y647617D02*
X1569044D01*
Y645078D01*
X1558887Y634922D01*
Y632383D01*
X1502304Y622617D02*
Y609922D01*
X1504843Y607383D01*
X1509922D01*
X1512461Y609922D01*
Y622617D01*
X1525157Y607383D02*
Y622617D01*
X1517539Y615000D01*
X1527696D01*
X912226Y1552617D02*
Y1537383D01*
Y1545000D01*
X922383D01*
Y1552617D01*
Y1537383D01*
X937618Y1550078D02*
X935078Y1552617D01*
X930000D01*
X927461Y1550078D01*
Y1547539D01*
X930000Y1545000D01*
X935078D01*
X937618Y1542461D01*
Y1539922D01*
X935078Y1537383D01*
X930000D01*
X927461Y1539922D01*
X942696Y1537383D02*
X947774D01*
X945235D01*
Y1552617D01*
X942696Y1550078D01*
X1877304Y1097617D02*
X1887461D01*
X1882383D01*
Y1082383D01*
X1902696D02*
X1892539D01*
X1902696Y1092539D01*
Y1095078D01*
X1900157Y1097617D01*
X1895078D01*
X1892539Y1095078D01*
X1304541Y361692D02*
X1302001Y364231D01*
X1296923D01*
X1294384Y361692D01*
Y351535D01*
X1296923Y348996D01*
X1302001D01*
X1304541Y351535D01*
X1309619Y361692D02*
X1312158Y364231D01*
X1317237D01*
X1319776Y361692D01*
Y359153D01*
X1317237Y356614D01*
X1314697D01*
X1317237D01*
X1319776Y354074D01*
Y351535D01*
X1317237Y348996D01*
X1312158D01*
X1309619Y351535D01*
X1335011Y348996D02*
X1324854D01*
X1335011Y359153D01*
Y361692D01*
X1332472Y364231D01*
X1327393D01*
X1324854Y361692D01*
X1878584Y967735D02*
Y952500D01*
Y960117D01*
X1888741D01*
Y967735D01*
Y952500D01*
X1903976Y965196D02*
X1901437Y967735D01*
X1896358D01*
X1893819Y965196D01*
Y962657D01*
X1896358Y960117D01*
X1901437D01*
X1903976Y957578D01*
Y955039D01*
X1901437Y952500D01*
X1896358D01*
X1893819Y955039D01*
X1919211Y952500D02*
X1909054D01*
X1919211Y962657D01*
Y965196D01*
X1916672Y967735D01*
X1911593D01*
X1909054Y965196D01*
X1120383Y586843D02*
X1135618D01*
Y594461D01*
X1133078Y597000D01*
X1122922D01*
X1120383Y594461D01*
Y586843D01*
X1135618Y602078D02*
Y607157D01*
Y604618D01*
X1120383D01*
X1122922Y602078D01*
X585461Y1303078D02*
X582922Y1305618D01*
X577843D01*
X575304Y1303078D01*
Y1292922D01*
X577843Y1290383D01*
X582922D01*
X585461Y1292922D01*
X600696Y1305618D02*
X595617Y1303078D01*
X590539Y1298000D01*
Y1292922D01*
X593078Y1290383D01*
X598157D01*
X600696Y1292922D01*
Y1295461D01*
X598157Y1298000D01*
X590539D01*
X967304Y1110117D02*
Y1097422D01*
X969843Y1094883D01*
X974922D01*
X977461Y1097422D01*
Y1110117D01*
X992696D02*
X982539D01*
Y1102500D01*
X987617Y1105039D01*
X990157D01*
X992696Y1102500D01*
Y1097422D01*
X990157Y1094883D01*
X985078D01*
X982539Y1097422D01*
X1064882Y484843D02*
X1077578D01*
X1080117Y487383D01*
Y492461D01*
X1077578Y495000D01*
X1064882D01*
X1080117Y500078D02*
Y505157D01*
Y502617D01*
X1064882D01*
X1067422Y500078D01*
X1336304Y827617D02*
Y814922D01*
X1338843Y812383D01*
X1343922D01*
X1346461Y814922D01*
Y827617D01*
X1351539Y825078D02*
X1354078Y827617D01*
X1359157D01*
X1361696Y825078D01*
Y822539D01*
X1359157Y820000D01*
X1356617D01*
X1359157D01*
X1361696Y817461D01*
Y814922D01*
X1359157Y812383D01*
X1354078D01*
X1351539Y814922D01*
X1529842Y707893D02*
Y695197D01*
X1532381Y692658D01*
X1537460D01*
X1539999Y695197D01*
Y707893D01*
X1555234Y692658D02*
X1545077D01*
X1555234Y702815D01*
Y705354D01*
X1552695Y707893D01*
X1547616D01*
X1545077Y705354D01*
X1166114Y1229101D02*
X1176271D01*
X1171192D01*
Y1213866D01*
X1181349D02*
Y1229101D01*
X1188967D01*
X1191506Y1226562D01*
Y1221484D01*
X1188967Y1218944D01*
X1181349D01*
X1196584Y1226562D02*
X1199123Y1229101D01*
X1204202D01*
X1206741Y1226562D01*
Y1224023D01*
X1204202Y1221484D01*
X1206741Y1218944D01*
Y1216405D01*
X1204202Y1213866D01*
X1199123D01*
X1196584Y1216405D01*
Y1218944D01*
X1199123Y1221484D01*
X1196584Y1224023D01*
Y1226562D01*
X1199123Y1221484D02*
X1204202D01*
X1126236Y1499103D02*
X1136393D01*
X1131314D01*
Y1483868D01*
X1141471D02*
Y1499103D01*
X1149089D01*
X1151628Y1496564D01*
Y1491485D01*
X1149089Y1488946D01*
X1141471D01*
X1156706Y1499103D02*
X1166863D01*
Y1496564D01*
X1156706Y1486407D01*
Y1483868D01*
X1289687Y1482617D02*
X1299843D01*
X1294765D01*
Y1467383D01*
X1304922D02*
Y1482617D01*
X1312539D01*
X1315078Y1480078D01*
Y1475000D01*
X1312539Y1472461D01*
X1304922D01*
X1330313Y1482617D02*
X1325235Y1480078D01*
X1320157Y1475000D01*
Y1469922D01*
X1322696Y1467383D01*
X1327774D01*
X1330313Y1469922D01*
Y1472461D01*
X1327774Y1475000D01*
X1320157D01*
X834687Y1462617D02*
X844843D01*
X839765D01*
Y1447383D01*
X849922D02*
Y1462617D01*
X857539D01*
X860078Y1460078D01*
Y1455000D01*
X857539Y1452461D01*
X849922D01*
X872774Y1447383D02*
Y1462617D01*
X865157Y1455000D01*
X875313D01*
X916178Y1199129D02*
X926335D01*
X921256D01*
Y1183894D01*
X931413D02*
Y1199129D01*
X939031D01*
X941570Y1196590D01*
Y1191512D01*
X939031Y1188972D01*
X931413D01*
X956805Y1199129D02*
X946648D01*
Y1191512D01*
X951727Y1194051D01*
X954266D01*
X956805Y1191512D01*
Y1186433D01*
X954266Y1183894D01*
X949187D01*
X946648Y1186433D01*
X1936242Y1679189D02*
X1946399D01*
X1941320D01*
Y1663954D01*
X1951477D02*
Y1679189D01*
X1959095D01*
X1961634Y1676650D01*
Y1671572D01*
X1959095Y1669032D01*
X1951477D01*
X1966712Y1663954D02*
X1971790D01*
X1969251D01*
Y1679189D01*
X1966712Y1676650D01*
X1287187Y710117D02*
X1297343D01*
X1292265D01*
Y694883D01*
X1302422D02*
Y710117D01*
X1310039D01*
X1312578Y707578D01*
Y702500D01*
X1310039Y699961D01*
X1302422D01*
X1317657Y707578D02*
X1320196Y710117D01*
X1325274D01*
X1327813Y707578D01*
Y705039D01*
X1325274Y702500D01*
X1322735D01*
X1325274D01*
X1327813Y699961D01*
Y697422D01*
X1325274Y694883D01*
X1320196D01*
X1317657Y697422D01*
X1156208Y1089147D02*
X1166365D01*
X1161286D01*
Y1073912D01*
X1171443D02*
Y1089147D01*
X1179061D01*
X1181600Y1086608D01*
Y1081529D01*
X1179061Y1078990D01*
X1171443D01*
X1196835Y1073912D02*
X1186678D01*
X1196835Y1084069D01*
Y1086608D01*
X1194296Y1089147D01*
X1189217D01*
X1186678Y1086608D01*
X999804Y1217617D02*
X1009961D01*
X1004883D01*
Y1202383D01*
X1015039Y1215078D02*
X1017578Y1217617D01*
X1022657D01*
X1025196Y1215078D01*
Y1212539D01*
X1022657Y1210000D01*
X1020117D01*
X1022657D01*
X1025196Y1207461D01*
Y1204922D01*
X1022657Y1202383D01*
X1017578D01*
X1015039Y1204922D01*
X1344804Y1332383D02*
Y1347617D01*
X1352422D01*
X1354961Y1345078D01*
Y1340000D01*
X1352422Y1337461D01*
X1344804D01*
X1349883D02*
X1354961Y1332383D01*
X1360039Y1345078D02*
X1362578Y1347617D01*
X1367657D01*
X1370196Y1345078D01*
Y1342539D01*
X1367657Y1340000D01*
X1365117D01*
X1367657D01*
X1370196Y1337461D01*
Y1334922D01*
X1367657Y1332383D01*
X1362578D01*
X1360039Y1334922D01*
X1109687Y1432383D02*
Y1447617D01*
X1117304D01*
X1119843Y1445078D01*
Y1440000D01*
X1117304Y1437461D01*
X1109687D01*
X1114765D02*
X1119843Y1432383D01*
X1135078D02*
X1124922D01*
X1135078Y1442539D01*
Y1445078D01*
X1132539Y1447617D01*
X1127461D01*
X1124922Y1445078D01*
X1147774Y1432383D02*
Y1447617D01*
X1140157Y1440000D01*
X1150313D01*
X1085687Y1335383D02*
Y1350618D01*
X1093304D01*
X1095843Y1348078D01*
Y1343000D01*
X1093304Y1340461D01*
X1085687D01*
X1090765D02*
X1095843Y1335383D01*
X1111078D02*
X1100922D01*
X1111078Y1345539D01*
Y1348078D01*
X1108539Y1350618D01*
X1103461D01*
X1100922Y1348078D01*
X1116157D02*
X1118696Y1350618D01*
X1123774D01*
X1126313Y1348078D01*
Y1345539D01*
X1123774Y1343000D01*
X1121235D01*
X1123774D01*
X1126313Y1340461D01*
Y1337922D01*
X1123774Y1335383D01*
X1118696D01*
X1116157Y1337922D01*
X1225618Y1255686D02*
X1210382D01*
Y1263304D01*
X1212922Y1265843D01*
X1218000D01*
X1220539Y1263304D01*
Y1255686D01*
Y1260765D02*
X1225618Y1265843D01*
Y1281078D02*
Y1270922D01*
X1215461Y1281078D01*
X1212922D01*
X1210382Y1278539D01*
Y1273461D01*
X1212922Y1270922D01*
X1225618Y1296313D02*
Y1286157D01*
X1215461Y1296313D01*
X1212922D01*
X1210382Y1293774D01*
Y1288696D01*
X1212922Y1286157D01*
X944372Y1152652D02*
Y1167887D01*
X951990D01*
X954529Y1165348D01*
Y1160269D01*
X951990Y1157730D01*
X944372D01*
X949450D02*
X954529Y1152652D01*
X969764D02*
X959607D01*
X969764Y1162809D01*
Y1165348D01*
X967225Y1167887D01*
X962146D01*
X959607Y1165348D01*
X974842Y1152652D02*
X979921D01*
X977381D01*
Y1167887D01*
X974842Y1165348D01*
X944372Y1432560D02*
Y1447795D01*
X951990D01*
X954529Y1445256D01*
Y1440177D01*
X951990Y1437638D01*
X944372D01*
X949450D02*
X954529Y1432560D01*
X969764D02*
X959607D01*
X969764Y1442717D01*
Y1445256D01*
X967225Y1447795D01*
X962146D01*
X959607Y1445256D01*
X974842D02*
X977381Y1447795D01*
X982460D01*
X984999Y1445256D01*
Y1435099D01*
X982460Y1432560D01*
X977381D01*
X974842Y1435099D01*
Y1445256D01*
X983456Y1324883D02*
Y1340117D01*
X991074D01*
X993613Y1337578D01*
Y1332500D01*
X991074Y1329961D01*
X983456D01*
X988534D02*
X993613Y1324883D01*
X998691D02*
X1003770D01*
X1001230D01*
Y1340117D01*
X998691Y1337578D01*
X1011387Y1327422D02*
X1013926Y1324883D01*
X1019005D01*
X1021544Y1327422D01*
Y1337578D01*
X1019005Y1340117D01*
X1013926D01*
X1011387Y1337578D01*
Y1335039D01*
X1013926Y1332500D01*
X1021544D01*
X925117Y1260956D02*
X909882D01*
Y1268574D01*
X912422Y1271113D01*
X917500D01*
X920039Y1268574D01*
Y1260956D01*
Y1266034D02*
X925117Y1271113D01*
Y1276191D02*
Y1281270D01*
Y1278730D01*
X909882D01*
X912422Y1276191D01*
Y1288887D02*
X909882Y1291426D01*
Y1296505D01*
X912422Y1299044D01*
X914961D01*
X917500Y1296505D01*
X920039Y1299044D01*
X922578D01*
X925117Y1296505D01*
Y1291426D01*
X922578Y1288887D01*
X920039D01*
X917500Y1291426D01*
X914961Y1288887D01*
X912422D01*
X917500Y1291426D02*
Y1296505D01*
X1438456Y537383D02*
Y552617D01*
X1446074D01*
X1448613Y550078D01*
Y545000D01*
X1446074Y542461D01*
X1438456D01*
X1443535D02*
X1448613Y537383D01*
X1453691D02*
X1458770D01*
X1456230D01*
Y552617D01*
X1453691Y550078D01*
X1476544Y552617D02*
X1471465Y550078D01*
X1466387Y545000D01*
Y539922D01*
X1468926Y537383D01*
X1474005D01*
X1476544Y539922D01*
Y542461D01*
X1474005Y545000D01*
X1466387D01*
X1108456Y832383D02*
Y847617D01*
X1116074D01*
X1118613Y845078D01*
Y840000D01*
X1116074Y837461D01*
X1108456D01*
X1113534D02*
X1118613Y832383D01*
X1123691D02*
X1128770D01*
X1126230D01*
Y847617D01*
X1123691Y845078D01*
X1146544Y847617D02*
X1136387D01*
Y840000D01*
X1141466Y842539D01*
X1144005D01*
X1146544Y840000D01*
Y834922D01*
X1144005Y832383D01*
X1138926D01*
X1136387Y834922D01*
X1363456Y834883D02*
Y850117D01*
X1371074D01*
X1373613Y847578D01*
Y842500D01*
X1371074Y839961D01*
X1363456D01*
X1368535D02*
X1373613Y834883D01*
X1378691D02*
X1383770D01*
X1381230D01*
Y850117D01*
X1378691Y847578D01*
X1399005Y834883D02*
Y850117D01*
X1391387Y842500D01*
X1401544D01*
X1146956Y736383D02*
Y751618D01*
X1154574D01*
X1157113Y749078D01*
Y744000D01*
X1154574Y741461D01*
X1146956D01*
X1152035D02*
X1157113Y736383D01*
X1162191D02*
X1167270D01*
X1164730D01*
Y751618D01*
X1162191Y749078D01*
X1185044Y736383D02*
X1174887D01*
X1185044Y746539D01*
Y749078D01*
X1182505Y751618D01*
X1177426D01*
X1174887Y749078D01*
X1210196Y897617D02*
Y882382D01*
X1202578D01*
X1200039Y884922D01*
Y890000D01*
X1202578Y892539D01*
X1210196D01*
X1205117D02*
X1200039Y897617D01*
X1184804Y882382D02*
X1189883Y884922D01*
X1194961Y890000D01*
Y895078D01*
X1192422Y897617D01*
X1187343D01*
X1184804Y895078D01*
Y892539D01*
X1187343Y890000D01*
X1194961D01*
X1033696Y617617D02*
Y602382D01*
X1026078D01*
X1023539Y604922D01*
Y610000D01*
X1026078Y612539D01*
X1033696D01*
X1028617D02*
X1023539Y617617D01*
X1008304Y602382D02*
X1018461D01*
Y610000D01*
X1013382Y607461D01*
X1010843D01*
X1008304Y610000D01*
Y615078D01*
X1010843Y617617D01*
X1015922D01*
X1018461Y615078D01*
X819883Y592696D02*
X835117D01*
Y585078D01*
X832578Y582539D01*
X827500D01*
X824961Y585078D01*
Y592696D01*
Y587617D02*
X819883Y582539D01*
Y569843D02*
X835117D01*
X827500Y577461D01*
Y567304D01*
X981383Y582696D02*
X996618D01*
Y575078D01*
X994078Y572539D01*
X989000D01*
X986461Y575078D01*
Y582696D01*
Y577617D02*
X981383Y572539D01*
Y557304D02*
Y567461D01*
X991539Y557304D01*
X994078D01*
X996618Y559843D01*
Y564922D01*
X994078Y567461D01*
X1617472Y630936D02*
Y646171D01*
X1625090D01*
X1627629Y643632D01*
Y638554D01*
X1625090Y636014D01*
X1617472D01*
X1622550D02*
X1627629Y630936D01*
X1632707Y633475D02*
X1635246Y630936D01*
X1640325D01*
X1642864Y633475D01*
Y643632D01*
X1640325Y646171D01*
X1635246D01*
X1632707Y643632D01*
Y641093D01*
X1635246Y638554D01*
X1642864D01*
X1469390Y787654D02*
Y802889D01*
X1477007D01*
X1479547Y800350D01*
Y795272D01*
X1477007Y792732D01*
X1469390D01*
X1474468D02*
X1479547Y787654D01*
X1484625Y800350D02*
X1487164Y802889D01*
X1492243D01*
X1494782Y800350D01*
Y797811D01*
X1492243Y795272D01*
X1494782Y792732D01*
Y790193D01*
X1492243Y787654D01*
X1487164D01*
X1484625Y790193D01*
Y792732D01*
X1487164Y795272D01*
X1484625Y797811D01*
Y800350D01*
X1487164Y795272D02*
X1492243D01*
X1062383Y576157D02*
X1077617D01*
Y568539D01*
X1075078Y566000D01*
X1070000D01*
X1067461Y568539D01*
Y576157D01*
Y571078D02*
X1062383Y566000D01*
Y560922D02*
Y555843D01*
Y558382D01*
X1077617D01*
X1075078Y560922D01*
X1274956Y1252383D02*
Y1267617D01*
X1282574D01*
X1285113Y1265078D01*
Y1260000D01*
X1282574Y1257461D01*
X1274956D01*
X1280034D02*
X1285113Y1252383D01*
X1290191D02*
X1295270D01*
X1292730D01*
Y1267617D01*
X1290191Y1265078D01*
X1302887D02*
X1305426Y1267617D01*
X1310505D01*
X1313044Y1265078D01*
Y1262539D01*
X1310505Y1260000D01*
X1307966D01*
X1310505D01*
X1313044Y1257461D01*
Y1254922D01*
X1310505Y1252383D01*
X1305426D01*
X1302887Y1254922D01*
X1577594Y630936D02*
Y646171D01*
X1585211D01*
X1587751Y643632D01*
Y638554D01*
X1585211Y636014D01*
X1577594D01*
X1582672D02*
X1587751Y630936D01*
X1592829Y646171D02*
X1602986D01*
Y643632D01*
X1592829Y633475D01*
Y630936D01*
X1988058Y1316482D02*
Y1331717D01*
X1995676D01*
X1998215Y1329178D01*
Y1324099D01*
X1995676Y1321560D01*
X1988058D01*
X1993136D02*
X1998215Y1316482D01*
X2003293D02*
X2008371D01*
X2005832D01*
Y1331717D01*
X2003293Y1329178D01*
X2015989Y1316482D02*
X2021067D01*
X2018528D01*
Y1331717D01*
X2015989Y1329178D01*
X1908048Y1316482D02*
Y1331717D01*
X1915665D01*
X1918205Y1329178D01*
Y1324099D01*
X1915665Y1321560D01*
X1908048D01*
X1913126D02*
X1918205Y1316482D01*
X1923283D02*
X1928361D01*
X1925822D01*
Y1331717D01*
X1923283Y1329178D01*
X1935979D02*
X1938518Y1331717D01*
X1943596D01*
X1946136Y1329178D01*
Y1319021D01*
X1943596Y1316482D01*
X1938518D01*
X1935979Y1319021D01*
Y1329178D01*
X1167381Y1569465D02*
Y1579622D01*
X1164842Y1582161D01*
X1159763D01*
X1157224Y1579622D01*
Y1569465D01*
X1159763Y1566926D01*
X1164842D01*
X1162302Y1572004D02*
X1167381Y1566926D01*
X1164842D02*
X1167381Y1569465D01*
X1182616Y1566926D02*
X1172459D01*
X1182616Y1577083D01*
Y1579622D01*
X1180077Y1582161D01*
X1174998D01*
X1172459Y1579622D01*
X977643Y1569465D02*
Y1579622D01*
X975104Y1582161D01*
X970025D01*
X967486Y1579622D01*
Y1569465D01*
X970025Y1566926D01*
X975104D01*
X972564Y1572004D02*
X977643Y1566926D01*
X975104D02*
X977643Y1569465D01*
X982721Y1566926D02*
X987799D01*
X985260D01*
Y1582161D01*
X982721Y1579622D01*
X1277226Y1087383D02*
Y1102617D01*
X1287383Y1087383D01*
Y1102617D01*
X1292461D02*
X1302618D01*
X1297539D01*
Y1087383D01*
X1307696D02*
X1312774D01*
X1310235D01*
Y1102617D01*
X1307696Y1100078D01*
X1247648Y1030981D02*
Y1015746D01*
X1257805D01*
X1262883D02*
X1267961D01*
X1265422D01*
Y1030981D01*
X1262883Y1028442D01*
X1459227Y451353D02*
X1454148D01*
X1456687D01*
Y438657D01*
X1454148Y436118D01*
X1451609D01*
X1449070Y438657D01*
X1464305Y448814D02*
X1466844Y451353D01*
X1471923D01*
X1474462Y448814D01*
Y446275D01*
X1471923Y443736D01*
X1469383D01*
X1471923D01*
X1474462Y441196D01*
Y438657D01*
X1471923Y436118D01*
X1466844D01*
X1464305Y438657D01*
X396491Y456433D02*
X391412D01*
X393951D01*
Y443737D01*
X391412Y441198D01*
X388873D01*
X386334Y443737D01*
X411726Y441198D02*
X401569D01*
X411726Y451355D01*
Y453894D01*
X409187Y456433D01*
X404108D01*
X401569Y453894D01*
X926589Y759963D02*
X921510D01*
X924050D01*
Y747267D01*
X921510Y744728D01*
X918971D01*
X916432Y747267D01*
X931667Y744728D02*
X936745D01*
X934206D01*
Y759963D01*
X931667Y757424D01*
X1253382Y1356304D02*
X1268617D01*
Y1363922D01*
X1266078Y1366461D01*
X1255922D01*
X1253382Y1363922D01*
Y1356304D01*
Y1371539D02*
Y1381696D01*
X1255922D01*
X1266078Y1371539D01*
X1268617D01*
X869882Y1362304D02*
X885117D01*
Y1369922D01*
X882578Y1372461D01*
X872422D01*
X869882Y1369922D01*
Y1362304D01*
Y1387696D02*
X872422Y1382617D01*
X877500Y1377539D01*
X882578D01*
X885117Y1380078D01*
Y1385157D01*
X882578Y1387696D01*
X880039D01*
X877500Y1385157D01*
Y1377539D01*
X1291082Y1010915D02*
Y995680D01*
X1298699D01*
X1301239Y998219D01*
Y1008376D01*
X1298699Y1010915D01*
X1291082D01*
X1316474Y995680D02*
X1306317D01*
X1316474Y1005837D01*
Y1008376D01*
X1313935Y1010915D01*
X1308856D01*
X1306317Y1008376D01*
X1287304Y1330618D02*
Y1315383D01*
X1294922D01*
X1297461Y1317922D01*
Y1328078D01*
X1294922Y1330618D01*
X1287304D01*
X1312696D02*
X1302539D01*
Y1323000D01*
X1307617Y1325539D01*
X1310157D01*
X1312696Y1323000D01*
Y1317922D01*
X1310157Y1315383D01*
X1305078D01*
X1302539Y1317922D01*
X1359882Y1174804D02*
X1375117D01*
Y1182422D01*
X1372578Y1184961D01*
X1362422D01*
X1359882Y1182422D01*
Y1174804D01*
X1375117Y1197657D02*
X1359882D01*
X1367500Y1190039D01*
Y1200196D01*
X1852382Y762304D02*
X1867617D01*
Y769922D01*
X1865078Y772461D01*
X1854922D01*
X1852382Y769922D01*
Y762304D01*
X1854922Y777539D02*
X1852382Y780078D01*
Y785157D01*
X1854922Y787696D01*
X1857461D01*
X1860000Y785157D01*
Y782617D01*
Y785157D01*
X1862539Y787696D01*
X1865078D01*
X1867617Y785157D01*
Y780078D01*
X1865078Y777539D01*
X1089843Y1167578D02*
X1087304Y1170117D01*
X1082226D01*
X1079687Y1167578D01*
Y1157422D01*
X1082226Y1154883D01*
X1087304D01*
X1089843Y1157422D01*
X1105078Y1154883D02*
X1094922D01*
X1105078Y1165039D01*
Y1167578D01*
X1102539Y1170117D01*
X1097461D01*
X1094922Y1167578D01*
X1110157Y1157422D02*
X1112696Y1154883D01*
X1117774D01*
X1120313Y1157422D01*
Y1167578D01*
X1117774Y1170117D01*
X1112696D01*
X1110157Y1167578D01*
Y1165039D01*
X1112696Y1162500D01*
X1120313D01*
X1396743Y693924D02*
X1394203Y696463D01*
X1389125D01*
X1386586Y693924D01*
Y683767D01*
X1389125Y681228D01*
X1394203D01*
X1396743Y683767D01*
X1411978Y681228D02*
X1401821D01*
X1411978Y691385D01*
Y693924D01*
X1409439Y696463D01*
X1404360D01*
X1401821Y693924D01*
X1427213Y696463D02*
X1417056D01*
Y688846D01*
X1422135Y691385D01*
X1424674D01*
X1427213Y688846D01*
Y683767D01*
X1424674Y681228D01*
X1419595D01*
X1417056Y683767D01*
X1461005Y708402D02*
X1458466Y710941D01*
X1453387D01*
X1450848Y708402D01*
Y698245D01*
X1453387Y695706D01*
X1458466D01*
X1461005Y698245D01*
X1476240Y695706D02*
X1466083D01*
X1476240Y705863D01*
Y708402D01*
X1473701Y710941D01*
X1468622D01*
X1466083Y708402D01*
X1488936Y695706D02*
Y710941D01*
X1481318Y703324D01*
X1491475D01*
X1177922Y465461D02*
X1175383Y462922D01*
Y457843D01*
X1177922Y455304D01*
X1188078D01*
X1190618Y457843D01*
Y462922D01*
X1188078Y465461D01*
X1177922Y470539D02*
X1175383Y473078D01*
Y478157D01*
X1177922Y480696D01*
X1180461D01*
X1183000Y478157D01*
X1185539Y480696D01*
X1188078D01*
X1190618Y478157D01*
Y473078D01*
X1188078Y470539D01*
X1185539D01*
X1183000Y473078D01*
X1180461Y470539D01*
X1177922D01*
X1183000Y473078D02*
Y478157D01*
X1274157Y730922D02*
X1276696Y728382D01*
X1281774D01*
X1284313Y730922D01*
Y741078D01*
X1281774Y743617D01*
X1276696D01*
X1274157Y741078D01*
X1258922Y743617D02*
X1269078D01*
X1258922Y733461D01*
Y730922D01*
X1261461Y728382D01*
X1266539D01*
X1269078Y730922D01*
X1253843D02*
X1251304Y728382D01*
X1246226D01*
X1243687Y730922D01*
Y733461D01*
X1246226Y736000D01*
X1248765D01*
X1246226D01*
X1243687Y738539D01*
Y741078D01*
X1246226Y743617D01*
X1251304D01*
X1253843Y741078D01*
X1214879Y998724D02*
X1212339Y1001263D01*
X1207261D01*
X1204722Y998724D01*
Y988567D01*
X1207261Y986028D01*
X1212339D01*
X1214879Y988567D01*
X1219957Y1001263D02*
X1230114D01*
Y998724D01*
X1219957Y988567D01*
Y986028D01*
X1598613Y752578D02*
X1596074Y755117D01*
X1590995D01*
X1588456Y752578D01*
Y742422D01*
X1590995Y739883D01*
X1596074D01*
X1598613Y742422D01*
X1603691Y739883D02*
X1608770D01*
X1606230D01*
Y755117D01*
X1603691Y752578D01*
X1616387Y755117D02*
X1626544D01*
Y752578D01*
X1616387Y742422D01*
Y739883D01*
X1240078Y1227657D02*
X1242618Y1230196D01*
Y1235274D01*
X1240078Y1237813D01*
X1229922D01*
X1227383Y1235274D01*
Y1230196D01*
X1229922Y1227657D01*
X1227383Y1212422D02*
Y1222578D01*
X1237539Y1212422D01*
X1240078D01*
X1242618Y1214961D01*
Y1220039D01*
X1240078Y1222578D01*
X1227383Y1197187D02*
Y1207343D01*
X1237539Y1197187D01*
X1240078D01*
X1242618Y1199726D01*
Y1204804D01*
X1240078Y1207343D01*
X1256078Y1178118D02*
X1258617Y1180657D01*
Y1185735D01*
X1256078Y1188274D01*
X1245922D01*
X1243382Y1185735D01*
Y1180657D01*
X1245922Y1178118D01*
X1243382Y1162882D02*
Y1173039D01*
X1253539Y1162882D01*
X1256078D01*
X1258617Y1165422D01*
Y1170500D01*
X1256078Y1173039D01*
X1243382Y1157804D02*
Y1152726D01*
Y1155265D01*
X1258617D01*
X1256078Y1157804D01*
X1914903Y1439668D02*
X1912363Y1442207D01*
X1907285D01*
X1904746Y1439668D01*
Y1429511D01*
X1907285Y1426972D01*
X1912363D01*
X1914903Y1429511D01*
X1930138Y1426972D02*
X1919981D01*
X1930138Y1437129D01*
Y1439668D01*
X1927599Y1442207D01*
X1922520D01*
X1919981Y1439668D01*
X1935216D02*
X1937755Y1442207D01*
X1942834D01*
X1945373Y1439668D01*
Y1429511D01*
X1942834Y1426972D01*
X1937755D01*
X1935216Y1429511D01*
Y1439668D01*
X1994913D02*
X1992374Y1442207D01*
X1987295D01*
X1984756Y1439668D01*
Y1429511D01*
X1987295Y1426972D01*
X1992374D01*
X1994913Y1429511D01*
X1999991Y1426972D02*
X2005069D01*
X2002530D01*
Y1442207D01*
X1999991Y1439668D01*
X2012687Y1429511D02*
X2015226Y1426972D01*
X2020305D01*
X2022844Y1429511D01*
Y1439668D01*
X2020305Y1442207D01*
X2015226D01*
X2012687Y1439668D01*
Y1437129D01*
X2015226Y1434590D01*
X2022844D01*
X1551429Y1771646D02*
X1548889Y1774185D01*
X1543811D01*
X1541272Y1771646D01*
Y1761489D01*
X1543811Y1758950D01*
X1548889D01*
X1551429Y1761489D01*
X1556507Y1758950D02*
X1561585D01*
X1559046D01*
Y1774185D01*
X1556507Y1771646D01*
X1569203D02*
X1571742Y1774185D01*
X1576821D01*
X1579360Y1771646D01*
Y1769107D01*
X1576821Y1766568D01*
X1579360Y1764028D01*
Y1761489D01*
X1576821Y1758950D01*
X1571742D01*
X1569203Y1761489D01*
Y1764028D01*
X1571742Y1766568D01*
X1569203Y1769107D01*
Y1771646D01*
X1571742Y1766568D02*
X1576821D01*
X1551429Y1551682D02*
X1548889Y1554221D01*
X1543811D01*
X1541272Y1551682D01*
Y1541525D01*
X1543811Y1538986D01*
X1548889D01*
X1551429Y1541525D01*
X1556507Y1538986D02*
X1561585D01*
X1559046D01*
Y1554221D01*
X1556507Y1551682D01*
X1579360Y1554221D02*
X1574281Y1551682D01*
X1569203Y1546604D01*
Y1541525D01*
X1571742Y1538986D01*
X1576821D01*
X1579360Y1541525D01*
Y1544064D01*
X1576821Y1546604D01*
X1569203D01*
X1708613Y560078D02*
X1706074Y562617D01*
X1700995D01*
X1698456Y560078D01*
Y549922D01*
X1700995Y547383D01*
X1706074D01*
X1708613Y549922D01*
X1713691Y547383D02*
X1718770D01*
X1716230D01*
Y562617D01*
X1713691Y560078D01*
X1736544Y562617D02*
X1726387D01*
Y555000D01*
X1731465Y557539D01*
X1734005D01*
X1736544Y555000D01*
Y549922D01*
X1734005Y547383D01*
X1728926D01*
X1726387Y549922D01*
X1881113Y417578D02*
X1878574Y420117D01*
X1873495D01*
X1870956Y417578D01*
Y407422D01*
X1873495Y404883D01*
X1878574D01*
X1881113Y407422D01*
X1886191Y404883D02*
X1891270D01*
X1888730D01*
Y420117D01*
X1886191Y417578D01*
X1906505Y404883D02*
Y420117D01*
X1898887Y412500D01*
X1909044D01*
X1723895Y719070D02*
X1721355Y721609D01*
X1716277D01*
X1713738Y719070D01*
Y708913D01*
X1716277Y706374D01*
X1721355D01*
X1723895Y708913D01*
X1728973Y706374D02*
X1734051D01*
X1731512D01*
Y721609D01*
X1728973Y719070D01*
X1741669D02*
X1744208Y721609D01*
X1749286D01*
X1751826Y719070D01*
Y716531D01*
X1749286Y713991D01*
X1746747D01*
X1749286D01*
X1751826Y711452D01*
Y708913D01*
X1749286Y706374D01*
X1744208D01*
X1741669Y708913D01*
X1728613Y412578D02*
X1726074Y415117D01*
X1720995D01*
X1718456Y412578D01*
Y402422D01*
X1720995Y399883D01*
X1726074D01*
X1728613Y402422D01*
X1733691Y399883D02*
X1738770D01*
X1736230D01*
Y415117D01*
X1733691Y412578D01*
X1756544Y399883D02*
X1746387D01*
X1756544Y410039D01*
Y412578D01*
X1754005Y415117D01*
X1748926D01*
X1746387Y412578D01*
X1868652Y575078D02*
X1866113Y577617D01*
X1861035D01*
X1858495Y575078D01*
Y564922D01*
X1861035Y562383D01*
X1866113D01*
X1868652Y564922D01*
X1873730Y562383D02*
X1878809D01*
X1876270D01*
Y577617D01*
X1873730Y575078D01*
X1886426Y562383D02*
X1891505D01*
X1888965D01*
Y577617D01*
X1886426Y575078D01*
X312113Y1466078D02*
X309574Y1468618D01*
X304495D01*
X301956Y1466078D01*
Y1455922D01*
X304495Y1453383D01*
X309574D01*
X312113Y1455922D01*
X317191Y1453383D02*
X322270D01*
X319730D01*
Y1468618D01*
X317191Y1466078D01*
X329887D02*
X332426Y1468618D01*
X337505D01*
X340044Y1466078D01*
Y1455922D01*
X337505Y1453383D01*
X332426D01*
X329887Y1455922D01*
Y1466078D01*
X496313Y1761486D02*
X493773Y1764025D01*
X488695D01*
X486156Y1761486D01*
Y1751329D01*
X488695Y1748790D01*
X493773D01*
X496313Y1751329D01*
X501391D02*
X503930Y1748790D01*
X509009D01*
X511548Y1751329D01*
Y1761486D01*
X509009Y1764025D01*
X503930D01*
X501391Y1761486D01*
Y1758947D01*
X503930Y1756407D01*
X511548D01*
X305461Y1315078D02*
X302922Y1317617D01*
X297843D01*
X295304Y1315078D01*
Y1304922D01*
X297843Y1302383D01*
X302922D01*
X305461Y1304922D01*
X320696Y1317617D02*
X310539D01*
Y1310000D01*
X315618Y1312539D01*
X318157D01*
X320696Y1310000D01*
Y1304922D01*
X318157Y1302383D01*
X313078D01*
X310539Y1304922D01*
X576323Y1066542D02*
X573783Y1069081D01*
X568705D01*
X566166Y1066542D01*
Y1056385D01*
X568705Y1053846D01*
X573783D01*
X576323Y1056385D01*
X589019Y1053846D02*
Y1069081D01*
X581401Y1061463D01*
X591558D01*
X576323Y791460D02*
X573783Y793999D01*
X568705D01*
X566166Y791460D01*
Y781303D01*
X568705Y778764D01*
X573783D01*
X576323Y781303D01*
X581401Y791460D02*
X583940Y793999D01*
X589019D01*
X591558Y791460D01*
Y788921D01*
X589019Y786382D01*
X586479D01*
X589019D01*
X591558Y783842D01*
Y781303D01*
X589019Y778764D01*
X583940D01*
X581401Y781303D01*
X301495Y1066542D02*
X298955Y1069081D01*
X293877D01*
X291338Y1066542D01*
Y1056385D01*
X293877Y1053846D01*
X298955D01*
X301495Y1056385D01*
X316730Y1053846D02*
X306573D01*
X316730Y1064003D01*
Y1066542D01*
X314191Y1069081D01*
X309112D01*
X306573Y1066542D01*
X301495Y791460D02*
X298955Y793999D01*
X293877D01*
X291338Y791460D01*
Y781303D01*
X293877Y778764D01*
X298955D01*
X301495Y781303D01*
X306573Y778764D02*
X311651D01*
X309112D01*
Y793999D01*
X306573Y791460D01*
D13*
X1316083Y1500000D02*
G03*
X1316083Y1500000I-6083J0D01*
G01*
X1276083Y700000D02*
G03*
X1276083Y700000I-6083J0D01*
G01*
X876083Y1430000D02*
G03*
X876083Y1430000I-6083J0D01*
G01*
X1176083Y1200000D02*
G03*
X1176083Y1200000I-6083J0D01*
G01*
X1946083Y1650000D02*
G03*
X1946083Y1650000I-6083J0D01*
G01*
X1136083Y1470000D02*
G03*
X1136083Y1470000I-6083J0D01*
G01*
X926083Y1170000D02*
G03*
X926083Y1170000I-6083J0D01*
G01*
X1166083Y1060000D02*
G03*
X1166083Y1060000I-6083J0D01*
G01*
D14*
X1932500Y690500D02*
Y849500D01*
X1947500Y690500D02*
Y849500D01*
X1876500Y690500D02*
X2003500D01*
X1876500Y849500D02*
X2003500D01*
X1876500Y944500D02*
X2003500D01*
X1876500Y595500D02*
X2003500D01*
X1927500Y786000D02*
X1932500D01*
X1927500Y754000D02*
X1932500D01*
X1927500D02*
Y786000D01*
X1876500Y849500D02*
Y944500D01*
Y595500D02*
Y690500D01*
X2003500Y595500D02*
Y690500D01*
Y849500D02*
Y944500D01*
M02*
