G04*
G04 #@! TF.GenerationSoftware,Altium Limited,Altium Designer,23.6.0 (18)*
G04*
G04 Layer_Physical_Order=1*
G04 Layer_Color=255*
%FSLAX44Y44*%
%MOMM*%
G71*
G04*
G04 #@! TF.SameCoordinates,1F3C283D-9475-48EB-A570-AF6A427DC10D*
G04*
G04*
G04 #@! TF.FilePolarity,Positive*
G04*
G01*
G75*
%ADD21C,1.2500*%
%ADD22R,1.2500X1.2500*%
%ADD30R,1.6000X1.8000*%
%ADD31O,1.6000X1.8000*%
%ADD32R,1.2500X1.2500*%
%ADD33C,1.6000*%
%ADD34R,1.6000X1.6000*%
%ADD35R,1.3000X1.3000*%
%ADD36C,1.3000*%
%ADD41R,1.8000X1.8000*%
%ADD42C,1.8000*%
%ADD43R,1.3000X1.3000*%
%ADD44C,1.2000*%
%ADD45R,1.2000X1.2000*%
%ADD46R,1.3500X1.3500*%
%ADD47C,1.3500*%
%ADD48R,1.2000X1.2000*%
%ADD50R,1.8000X1.8000*%
%ADD52R,1.3500X1.3500*%
%ADD54C,0.6000*%
%ADD55R,3.5400X0.5080*%
%ADD56C,2.5000*%
%ADD57R,1.6000X1.6000*%
%ADD58C,3.2000*%
G04:AMPARAMS|DCode=59|XSize=1.4mm|YSize=1.4mm|CornerRadius=0.049mm|HoleSize=0mm|Usage=FLASHONLY|Rotation=270.000|XOffset=0mm|YOffset=0mm|HoleType=Round|Shape=RoundedRectangle|*
%AMROUNDEDRECTD59*
21,1,1.4000,1.3020,0,0,270.0*
21,1,1.3020,1.4000,0,0,270.0*
1,1,0.0980,-0.6510,-0.6510*
1,1,0.0980,-0.6510,0.6510*
1,1,0.0980,0.6510,0.6510*
1,1,0.0980,0.6510,-0.6510*
%
%ADD59ROUNDEDRECTD59*%
%ADD60C,1.4000*%
%ADD61R,2.0000X2.0000*%
%ADD62C,2.0000*%
%ADD63C,3.5000*%
%ADD64R,3.5000X3.5000*%
%ADD65C,1.0000*%
%ADD66R,1.5000X1.5000*%
%ADD67C,1.5000*%
%ADD68R,1.5000X1.5000*%
%ADD69R,2.5000X2.5000*%
G04:AMPARAMS|DCode=70|XSize=1.524mm|YSize=1.524mm|CornerRadius=0.381mm|HoleSize=0mm|Usage=FLASHONLY|Rotation=0.000|XOffset=0mm|YOffset=0mm|HoleType=Round|Shape=RoundedRectangle|*
%AMROUNDEDRECTD70*
21,1,1.5240,0.7620,0,0,0.0*
21,1,0.7620,1.5240,0,0,0.0*
1,1,0.7620,0.3810,-0.3810*
1,1,0.7620,-0.3810,-0.3810*
1,1,0.7620,-0.3810,0.3810*
1,1,0.7620,0.3810,0.3810*
%
%ADD70ROUNDEDRECTD70*%
%ADD71O,4.0000X5.0000*%
%ADD72C,1.2700*%
D21*
X1550000Y615000D02*
D03*
X1517500Y575000D02*
D03*
X950000Y1330000D02*
D03*
X1050000Y1370000D02*
D03*
X1430000Y720000D02*
D03*
X970000Y640000D02*
D03*
X1120000Y810000D02*
D03*
Y770000D02*
D03*
X1260000Y860000D02*
D03*
X1345000Y1260000D02*
D03*
X1190000Y1330000D02*
D03*
X1090000Y1410000D02*
D03*
Y1370000D02*
D03*
X1260000Y900000D02*
D03*
X950000Y1130000D02*
D03*
X1590000Y515000D02*
D03*
X1630000Y515000D02*
D03*
X1575000Y765000D02*
D03*
X950000Y1410000D02*
D03*
D22*
X1550000Y515000D02*
D03*
X950000Y1230000D02*
D03*
X1430000Y820000D02*
D03*
X1190000Y1230000D02*
D03*
X1260000Y1000000D02*
D03*
X1590000Y615000D02*
D03*
X1630000Y615000D02*
D03*
D30*
X1018600Y1012600D02*
D03*
D31*
X1044000D02*
D03*
X1069400D02*
D03*
X1094800D02*
D03*
Y1092000D02*
D03*
X1069400D02*
D03*
X1044000D02*
D03*
X1018600D02*
D03*
D32*
X1417500Y575000D02*
D03*
X950000Y1370000D02*
D03*
X1070000Y640000D02*
D03*
X1220000Y810000D02*
D03*
Y770000D02*
D03*
X1160000Y860000D02*
D03*
X1245000Y1260000D02*
D03*
X1190000Y1410000D02*
D03*
Y1370000D02*
D03*
X1050000Y1130000D02*
D03*
X1475000Y765000D02*
D03*
X1050000Y1410000D02*
D03*
D33*
X1897500Y767500D02*
D03*
Y742100D02*
D03*
X1050400Y1530000D02*
D03*
X1025000D02*
D03*
X1214600Y1530000D02*
D03*
X1240000D02*
D03*
X910000Y1321140D02*
D03*
X1230000D02*
D03*
D34*
X999600Y1530000D02*
D03*
X1189200Y1530000D02*
D03*
X910000Y1430000D02*
D03*
X1230000D02*
D03*
D35*
X1089200Y1130000D02*
D03*
X1569200Y712500D02*
D03*
X1325800Y1172500D02*
D03*
X1325000Y1220000D02*
D03*
X1456905Y670185D02*
D03*
D36*
X1140000Y1130000D02*
D03*
X1620000Y712500D02*
D03*
X1150000Y439200D02*
D03*
X1270000Y810000D02*
D03*
X1275000Y1172500D02*
D03*
X1274200Y1220000D02*
D03*
X1220000Y970000D02*
D03*
X1401905Y614385D02*
D03*
X1507705Y670185D02*
D03*
X2000000Y1410800D02*
D03*
X1920000D02*
D03*
D41*
X1100000Y517760D02*
D03*
D42*
X1030000Y560000D02*
D03*
Y380000D02*
D03*
X950000D02*
D03*
Y560000D02*
D03*
X870000D02*
D03*
Y380000D02*
D03*
X1960000Y500000D02*
D03*
X1910000D02*
D03*
X1809044Y329970D02*
D03*
X1759044D02*
D03*
X1755000Y630000D02*
D03*
X1805000D02*
D03*
X1911485Y339970D02*
D03*
X1961485D02*
D03*
X1759045Y490000D02*
D03*
X1809045D02*
D03*
X1100000Y420000D02*
D03*
X1635000Y670000D02*
D03*
D43*
X1150000Y490000D02*
D03*
X1270000Y759200D02*
D03*
X1220000Y919200D02*
D03*
X1401905Y665185D02*
D03*
X2000000Y1360000D02*
D03*
X1920000D02*
D03*
D44*
X1100000Y560000D02*
D03*
X1370000Y1296260D02*
D03*
X1268740Y1295000D02*
D03*
X1300000Y980000D02*
D03*
D45*
X1100000Y636260D02*
D03*
X1370000Y1220000D02*
D03*
X1300000Y903740D02*
D03*
D46*
X1388100Y767300D02*
D03*
X1322500Y1365000D02*
D03*
D47*
X1388100Y792700D02*
D03*
X1311900D02*
D03*
Y767300D02*
D03*
X1430000Y1365000D02*
D03*
X1920000Y1192500D02*
D03*
X2000000Y1300000D02*
D03*
D48*
X1345000Y1295000D02*
D03*
D50*
X1537240Y670000D02*
D03*
D52*
X1920000Y1300000D02*
D03*
X2000000Y1192500D02*
D03*
D54*
X1425000Y1300000D02*
X1882500D01*
X1630000Y495000D02*
X1695000Y430000D01*
Y405000D02*
Y430000D01*
X1149906Y891352D02*
X1150350D01*
X1115000Y891000D02*
X1149000D01*
X1160000Y945000D02*
Y990000D01*
X1270000Y1420000D02*
Y1490000D01*
D55*
X1296230Y1125000D02*
D03*
D56*
X1940000Y643000D02*
D03*
Y897000D02*
D03*
X1802500Y927500D02*
D03*
X1751700D02*
D03*
X1700900D02*
D03*
X1650100D02*
D03*
X1599300D02*
D03*
X1548500D02*
D03*
X1497700D02*
D03*
X1446900D02*
D03*
Y1231500D02*
D03*
X1497700D02*
D03*
X1548500D02*
D03*
X1599300D02*
D03*
X1650100D02*
D03*
X1700900D02*
D03*
X1751700D02*
D03*
D57*
X1897500Y792900D02*
D03*
D58*
X1310000Y1600000D02*
D03*
X915000Y1595000D02*
D03*
D59*
X1487305Y630185D02*
D03*
D60*
X1436505D02*
D03*
X1461905D02*
D03*
D61*
X795000Y1640000D02*
D03*
Y1435000D02*
D03*
X1570000Y1430000D02*
D03*
Y1650000D02*
D03*
D62*
X515000Y1640000D02*
D03*
Y1435000D02*
D03*
X1850000Y1430000D02*
D03*
Y1650000D02*
D03*
X932300Y720000D02*
D03*
X957700D02*
D03*
D63*
X370000Y640000D02*
D03*
Y915000D02*
D03*
X645000Y640000D02*
D03*
Y915000D02*
D03*
X370000Y1190000D02*
D03*
X645000D02*
D03*
D64*
X470000Y640000D02*
D03*
Y915000D02*
D03*
X745000Y640000D02*
D03*
Y915000D02*
D03*
X470000Y1190000D02*
D03*
X745000D02*
D03*
D65*
X1310000Y1500000D02*
D03*
X1270000Y700000D02*
D03*
X870000Y1430000D02*
D03*
X1170000Y1200000D02*
D03*
X1940000Y1650000D02*
D03*
X1130000Y1470000D02*
D03*
X920000Y1170000D02*
D03*
X1160000Y1060000D02*
D03*
D66*
X1050000Y1190000D02*
D03*
D67*
X1100000D02*
D03*
X1000000Y1285000D02*
D03*
X1140000Y1255000D02*
D03*
X1313000Y320000D02*
D03*
X1388000D02*
D03*
D68*
X1000000Y1255000D02*
D03*
X1140000Y1285000D02*
D03*
D69*
X1802500Y1231500D02*
D03*
D70*
X1273530Y1125000D02*
D03*
X1316470D02*
D03*
D71*
X1607625Y340000D02*
D03*
X1512375D02*
D03*
X640255Y345000D02*
D03*
X449750D02*
D03*
X545000D02*
D03*
D72*
X1425000Y1300000D02*
D03*
X1882500D02*
D03*
X1695000Y405000D02*
D03*
X1630000Y495000D02*
D03*
X1150350Y891352D02*
D03*
X1115000Y891000D02*
D03*
X1160000Y945000D02*
D03*
Y990000D02*
D03*
X1270000Y1420000D02*
D03*
Y1490000D02*
D03*
M02*
