G04*
G04 #@! TF.GenerationSoftware,Altium Limited,Altium Designer,23.6.0 (18)*
G04*
G04 Layer_Color=32768*
%FSLAX44Y44*%
%MOMM*%
G71*
G04*
G04 #@! TF.SameCoordinates,1F3C283D-9475-48EB-A570-AF6A427DC10D*
G04*
G04*
G04 #@! TF.FilePolarity,Positive*
G04*
G01*
G75*
%ADD11C,0.2000*%
%ADD12C,0.2540*%
%ADD13C,0.0500*%
%ADD14C,0.1000*%
D11*
X1536000Y507750D02*
Y622250D01*
X1564000D01*
Y507750D02*
Y622250D01*
X1536000Y507750D02*
X1564000D01*
X1004900Y1005350D02*
Y1099250D01*
X1108500D01*
Y1005350D02*
Y1099250D01*
X1004900Y1005350D02*
X1108500D01*
X1410250Y561000D02*
Y589000D01*
Y561000D02*
X1524750D01*
Y589000D01*
X1410250D02*
X1524750D01*
X895400Y1439000D02*
X924600D01*
X895400Y1312140D02*
Y1439000D01*
Y1312140D02*
X924600D01*
Y1439000D01*
X1081700Y1146900D02*
X1147500D01*
Y1113100D02*
Y1146900D01*
X1081700Y1113100D02*
X1147500D01*
X1081700D02*
Y1146900D01*
X936000Y1222750D02*
Y1337250D01*
X964000D01*
Y1222750D02*
Y1337250D01*
X936000Y1222750D02*
X964000D01*
X942750Y1384000D02*
X1057250D01*
Y1356000D02*
Y1384000D01*
X942750Y1356000D02*
X1057250D01*
X942750D02*
Y1384000D01*
X1561700Y729400D02*
X1627500D01*
Y695600D02*
Y729400D01*
X1561700Y695600D02*
X1627500D01*
X1561700D02*
Y729400D01*
X1416000Y827250D02*
X1444000D01*
X1416000Y712750D02*
Y827250D01*
Y712750D02*
X1444000D01*
Y827250D01*
X1086000Y526760D02*
X1114000D01*
X1086000Y411000D02*
Y526760D01*
Y411000D02*
X1114000D01*
Y526760D01*
X1133100Y497500D02*
X1166900D01*
X1133100Y431700D02*
Y497500D01*
Y431700D02*
X1166900D01*
Y497500D01*
X1089450Y643260D02*
X1110550D01*
X1089450Y553000D02*
Y643260D01*
Y553000D02*
X1110550D01*
Y643260D01*
X962750Y626000D02*
X1077250D01*
X962750D02*
Y654000D01*
X1077250D01*
Y626000D02*
Y654000D01*
X1253100Y751700D02*
X1286900D01*
Y817500D01*
X1253100D02*
X1286900D01*
X1253100Y751700D02*
Y817500D01*
X1304150Y753600D02*
X1395850D01*
X1304150D02*
Y806400D01*
X1395850D01*
Y753600D02*
Y806400D01*
X1227250Y796000D02*
Y824000D01*
X1112750D02*
X1227250D01*
X1112750Y796000D02*
Y824000D01*
Y796000D02*
X1227250D01*
X1112750Y756000D02*
X1227250D01*
X1112750D02*
Y784000D01*
X1227250D01*
Y756000D02*
Y784000D01*
X1152750Y874000D02*
X1267250D01*
Y846000D02*
Y874000D01*
X1152750Y846000D02*
X1267250D01*
X1152750D02*
Y874000D01*
X1359450Y1213000D02*
Y1303260D01*
X1380550D01*
Y1213000D02*
Y1303260D01*
X1359450Y1213000D02*
X1380550D01*
X1267500Y1155600D02*
X1333300D01*
X1267500D02*
Y1189400D01*
X1333300D01*
Y1155600D02*
Y1189400D01*
X1266700Y1203100D02*
X1332500D01*
X1266700D02*
Y1236900D01*
X1332500D01*
Y1203100D02*
Y1236900D01*
X1237750Y1274000D02*
X1352250D01*
Y1246000D02*
Y1274000D01*
X1237750Y1246000D02*
X1352250D01*
X1237750D02*
Y1274000D01*
X1314750Y1351550D02*
Y1378450D01*
Y1351550D02*
X1437750D01*
Y1378450D01*
X1314750D02*
X1437750D01*
X1244600Y1312140D02*
Y1439000D01*
X1215400Y1312140D02*
X1244600D01*
X1215400D02*
Y1439000D01*
X1244600D01*
X1261740Y1284450D02*
X1352000D01*
X1261740D02*
Y1305550D01*
X1352000D01*
Y1284450D02*
Y1305550D01*
X1176000Y1222750D02*
Y1337250D01*
X1204000D01*
Y1222750D02*
Y1337250D01*
X1176000Y1222750D02*
X1204000D01*
X1082750Y1396000D02*
X1197250D01*
X1082750D02*
Y1424000D01*
X1197250D01*
Y1396000D02*
Y1424000D01*
X1082750Y1356000D02*
X1197250D01*
X1082750D02*
Y1384000D01*
X1197250D01*
Y1356000D02*
Y1384000D01*
X1203100Y911700D02*
X1236900D01*
Y977500D01*
X1203100D02*
X1236900D01*
X1203100Y911700D02*
Y977500D01*
X1274000Y892750D02*
Y1007250D01*
X1246000Y892750D02*
X1274000D01*
X1246000D02*
Y1007250D01*
X1274000D01*
X915000Y736000D02*
X975000D01*
Y704000D02*
Y736000D01*
X915000Y704000D02*
X975000D01*
X915000D02*
Y736000D01*
X942750Y1116000D02*
X1057250D01*
X942750D02*
Y1144000D01*
X1057250D01*
Y1116000D02*
Y1144000D01*
X1604000Y507750D02*
Y622250D01*
X1576000Y507750D02*
X1604000D01*
X1576000D02*
Y622250D01*
X1604000D01*
X1528240Y656000D02*
Y684000D01*
Y656000D02*
X1644000D01*
Y684000D01*
X1528240D02*
X1644000D01*
X1644000Y507750D02*
Y622250D01*
X1616000Y507750D02*
X1644000D01*
X1616000D02*
Y622250D01*
X1644000D01*
X1467750Y779000D02*
X1582250D01*
Y751000D02*
Y779000D01*
X1467750Y751000D02*
X1582250D01*
X1467750D02*
Y779000D01*
X1385005Y672685D02*
X1418805D01*
X1385005Y606885D02*
Y672685D01*
Y606885D02*
X1418805D01*
Y672685D01*
X1449405Y653285D02*
Y687085D01*
Y653285D02*
X1515205D01*
Y687085D01*
X1449405D02*
X1515205D01*
X1983100Y1352500D02*
Y1418300D01*
X2016900D01*
Y1352500D02*
Y1418300D01*
X1983100Y1352500D02*
X2016900D01*
X384875Y257500D02*
Y432500D01*
X705130D01*
Y257500D02*
Y432500D01*
X384875Y257500D02*
X705130D01*
X535000Y345000D02*
X555000D01*
X545000Y335000D02*
Y355000D01*
X1447500Y252500D02*
Y427500D01*
X1672500D01*
Y252500D02*
Y427500D01*
X1447500Y252500D02*
X1672500D01*
X1550000Y340000D02*
X1570000D01*
X1560000Y330000D02*
Y350000D01*
X1057250Y1396000D02*
Y1424000D01*
X942750D02*
X1057250D01*
X942750Y1396000D02*
Y1424000D01*
Y1396000D02*
X1057250D01*
X1906550Y1307750D02*
X1933450D01*
X1906550Y1184750D02*
Y1307750D01*
Y1184750D02*
X1933450D01*
Y1307750D01*
X1986550Y1184750D02*
X2013450D01*
Y1307750D01*
X1986550D02*
X2013450D01*
X1986550Y1184750D02*
Y1307750D01*
X1903100Y1352500D02*
Y1418300D01*
X1936900D01*
Y1352500D02*
Y1418300D01*
X1903100Y1352500D02*
X1936900D01*
X1289450Y896740D02*
Y987000D01*
X1310550D01*
Y896740D02*
Y987000D01*
X1289450Y896740D02*
X1310550D01*
D12*
X550000Y640000D02*
G03*
X550000Y640000I-130000J0D01*
G01*
Y915000D02*
G03*
X550000Y915000I-130000J0D01*
G01*
X825000Y640000D02*
G03*
X825000Y640000I-130000J0D01*
G01*
Y915000D02*
G03*
X825000Y915000I-130000J0D01*
G01*
X550000Y1190000D02*
G03*
X550000Y1190000I-130000J0D01*
G01*
X825000D02*
G03*
X825000Y1190000I-130000J0D01*
G01*
X2002500Y500000D02*
G03*
X2002500Y500000I-67500J0D01*
G01*
X1851544Y329970D02*
G03*
X1851544Y329970I-67500J0D01*
G01*
X1847500Y630000D02*
G03*
X1847500Y630000I-67500J0D01*
G01*
X2003985Y339970D02*
G03*
X2003985Y339970I-67500J0D01*
G01*
X1851545Y490000D02*
G03*
X1851545Y490000I-67500J0D01*
G01*
X1055000Y350000D02*
Y585000D01*
X1005000Y350000D02*
Y585000D01*
X1055000D01*
X1005000Y350000D02*
X1055000D01*
X925000D02*
X975000D01*
X925000Y585000D02*
X975000D01*
X925000Y350000D02*
Y585000D01*
X975000Y350000D02*
Y585000D01*
X895000Y350000D02*
Y585000D01*
X845000Y350000D02*
Y585000D01*
X895000D01*
X845000Y350000D02*
X895000D01*
X825000Y1540000D02*
Y1740000D01*
X485000Y1540000D02*
Y1740000D01*
Y1540000D02*
X825000D01*
X485000Y1740000D02*
X825000D01*
Y1335000D02*
Y1535000D01*
X485000Y1335000D02*
Y1535000D01*
Y1335000D02*
X825000D01*
X485000Y1535000D02*
X825000D01*
X1540000Y1330000D02*
Y1530000D01*
X1880000Y1330000D02*
Y1530000D01*
X1540000D02*
X1880000D01*
X1540000Y1330000D02*
X1880000D01*
X1540000Y1550000D02*
Y1750000D01*
X1880000Y1550000D02*
Y1750000D01*
X1540000D02*
X1880000D01*
X1540000Y1550000D02*
X1880000D01*
X1155000Y1175000D02*
Y1340000D01*
X985000Y1175000D02*
Y1340000D01*
X1155000D01*
X985000Y1175000D02*
X1155000D01*
X1398700Y1315500D02*
X1851700D01*
X1398700Y840500D02*
X1851700D01*
Y1315500D01*
X1398700Y840500D02*
Y1315500D01*
X1293000Y300000D02*
Y340000D01*
X1408000Y300000D02*
Y340000D01*
X1293000D02*
X1408000D01*
X1293000Y300000D02*
X1408000D01*
D13*
X1877500Y714000D02*
Y821000D01*
X1926500Y714000D02*
Y821000D01*
X1877500D02*
X1926500D01*
X1877500Y714000D02*
X1926500D01*
X1078500Y1510000D02*
Y1559000D01*
X971500Y1510000D02*
Y1559000D01*
X1078500D01*
X971500Y1510000D02*
X1078500D01*
X1161100Y1510000D02*
X1268100D01*
X1161100Y1559000D02*
X1268100D01*
X1161100Y1510000D02*
Y1559000D01*
X1268100Y1510000D02*
Y1559000D01*
X1428505Y602435D02*
X1495305D01*
X1428505D02*
Y644435D01*
X1495305D01*
Y602435D02*
Y644435D01*
D14*
X1892500Y767500D02*
X1902500D01*
X1897500Y762500D02*
Y772500D01*
X1020000Y1530000D02*
X1030000D01*
X1025000Y1525000D02*
Y1535000D01*
X1214600Y1525000D02*
Y1535000D01*
X1209600Y1530000D02*
X1219600D01*
X1461905Y625185D02*
Y635185D01*
X1456905Y630185D02*
X1466905D01*
M02*
