%FSTAX23Y23*%
%MOIN*%
%SFA1B1*%

%IPPOS*%
%ADD10C,0.059055*%
%ADD11C,0.027559*%
%ADD12C,0.062992*%
%ADD13O,0.039370X0.078740*%
%ADD14O,0.039370X0.078740*%
%ADD15R,0.059055X0.059055*%
%ADD16C,0.059055*%
%ADD17R,0.059055X0.059055*%
%ADD18C,0.078740*%
%ADD19C,0.066929*%
%ADD20C,0.074803*%
%ADD21R,0.074803X0.074803*%
%ADD22R,0.098425X0.062992*%
%ADD23O,0.098425X0.062992*%
%ADD24O,0.078740X0.066929*%
%ADD25R,0.078740X0.066929*%
%ADD26R,0.062992X0.062992*%
%ADD27O,0.068898X0.098425*%
%LNpcb1_copper_signal_bot-1*%
%LPD*%
G54D10*
X04991Y02598D02*
Y03394D01*
X04823Y03562D02*
X04991Y03394D01*
X04763Y03562D02*
X04764Y03562D01*
X04823*
X04763Y03462D02*
X04891Y03335D01*
Y03021D02*
Y03335D01*
Y02598D02*
Y03021D01*
X04763Y0309D02*
X04764Y03089D01*
X04823*
X04891Y03021*
X04763Y02854D02*
Y0299D01*
X04791Y02598D02*
Y02826D01*
X04763Y02854D02*
X04791Y02826D01*
G54D11*
X04064Y02717D02*
Y02782D01*
Y02717D02*
X04094Y02687D01*
X04232*
X03833Y02826D02*
X04006D01*
X0405Y02782*
X04064*
X03789Y02626D02*
Y02769D01*
X03833Y02812*
Y02826*
X04596Y02903D02*
X04683Y0299D01*
X04763*
X03969Y03019D02*
X04084Y02903D01*
X04488*
X03688Y03019D02*
X03969D01*
X04409Y02982D02*
Y0312D01*
X04488Y02903D02*
X04596D01*
X04409Y02982D02*
X04488Y02903D01*
X04358Y03118D02*
X04359Y0312D01*
X04358Y03039D02*
Y03118D01*
X0432Y03001D02*
X04358Y03039D01*
X04232Y03001D02*
X0432D01*
X04589Y03225D02*
X04596Y03218D01*
X04459Y03228D02*
X04562D01*
X04565Y03225D02*
X04589D01*
X04562Y03228D02*
X04565Y03225D01*
X04596Y03218D02*
X04606D01*
X04064Y03176D02*
X04116Y03228D01*
X04459Y0312D02*
Y03228D01*
X04116D02*
X04459D01*
X04633Y0319D02*
X04763D01*
X04606Y03218D02*
X04633Y0319D01*
X03783Y03751D02*
Y03913D01*
X04301Y03375D02*
X04458Y03533D01*
X03688Y0357D02*
X03882Y03375D01*
X04301*
X03792Y03726D02*
X04064Y03454D01*
X03792Y03726D02*
Y03741D01*
X03783Y03751D02*
X03792Y03741D01*
X04596Y03533D02*
X04666Y03462D01*
X04763*
X04603Y03823D02*
X04763Y03662D01*
X04603Y03823D02*
Y03841D01*
X04596Y03848D02*
X04603Y03841D01*
X04458Y03533D02*
X04596D01*
X04419Y03572D02*
X04458Y03533D01*
X04409Y03582D02*
X04419Y03572D01*
X04419Y03572*
X04409Y03582D02*
Y0369D01*
X04359D02*
X0436Y03691D01*
Y0374*
X0433Y03769D02*
X0436Y0374D01*
X04232Y03769D02*
X0433D01*
X04458Y03848D02*
X04596D01*
X04064D02*
X04458D01*
X04459Y0369D02*
Y03847D01*
X04458Y03848D02*
X04459Y03847D01*
X02686Y02876D02*
Y03001D01*
X02114Y02726D02*
X02536D01*
X02686Y02876*
X02414Y03276D02*
X02491D01*
X02539Y03228*
X02489Y03001D02*
Y03007D01*
X02539Y03057*
Y03228*
X02489Y02876D02*
Y03001D01*
X02114Y02826D02*
X02433D01*
X02483Y02876*
X02489*
X02114Y03176D02*
Y03276D01*
X02114Y02826D02*
X02114Y02826D01*
X02114Y02826D02*
Y03176D01*
X02114Y03176D02*
X02114Y03176D01*
X03439Y02826D02*
X03564Y02951D01*
Y03013*
X0357Y03019*
X03439Y02819D02*
Y02826D01*
X03415Y02795D02*
X03439Y02819D01*
X03415Y02685D02*
X03474Y02626D01*
X03415Y02685D02*
Y02795D01*
X03754Y03941D02*
X03783Y03913D01*
X03754Y03941D02*
Y03951D01*
X04064Y03454D02*
X04232D01*
X03389Y03751D02*
Y03898D01*
X03439Y03948*
Y03951*
X03389Y03667D02*
Y03751D01*
X03486Y0357D02*
X0357D01*
X03389Y03667D02*
X03486Y0357D01*
X03179Y03176D02*
X03314D01*
X0312Y03375D02*
X03121Y03374D01*
X03313*
X03314Y03373*
X02737Y03376D02*
X02737Y03376D01*
X02922*
X02923Y03375*
X02737Y03176D02*
X02864D01*
X02277Y03215D02*
Y03288D01*
Y03215D02*
X02318Y03174D01*
X02362*
X02625Y0306D02*
Y03228D01*
Y0306D02*
X02661Y03023D01*
X0273Y03269D02*
X02737Y03276D01*
X02666Y03269D02*
X0273D01*
X02625Y03228D02*
X02666Y03269D01*
X02189Y03376D02*
X02277Y03288D01*
X02114Y03376D02*
X02189D01*
X02114Y03476D02*
X02201D01*
X02301Y03376*
X02414*
G54D12*
X04596Y03533D03*
Y03848D03*
X04232Y03769D03*
Y03454D03*
X03754Y03951D03*
X03439D03*
X03789Y02626D03*
X03474D03*
X03179Y03176D03*
X02864D03*
X04596Y03218D03*
Y02903D03*
X04232Y03001D03*
Y02687D03*
X04763Y03562D03*
Y03462D03*
Y0309D03*
Y0299D03*
G54D13*
X04359Y0369D03*
Y0312D03*
G54D14*
X04409Y0369D03*
X04459D03*
X04409Y0312D03*
X04459D03*
G54D15*
X03688Y03019D03*
X0357Y0357D03*
G54D16*
X0357Y03019D03*
X03688Y0357D03*
X03314Y03176D03*
G54D17*
X03314Y03373D03*
G54D18*
X04064Y03454D03*
Y03848D03*
X03783Y03751D03*
X03389D03*
X04064Y02782D03*
Y03176D03*
X03833Y02826D03*
X03439D03*
G54D19*
X0312Y03375D03*
X02923D03*
X02489Y03001D03*
X02686D03*
X02489Y02876D03*
X02686D03*
G54D20*
X02114Y02726D03*
G54D21*
X02114Y02826D03*
G54D22*
X02414Y03476D03*
G54D23*
X02414Y03376D03*
Y03276D03*
Y03176D03*
X02737Y03476D03*
Y03376D03*
Y03276D03*
Y03176D03*
G54D24*
X02114Y03176D03*
Y03276D03*
Y03376D03*
G54D25*
X02114Y03476D03*
G54D26*
X04763Y03662D03*
Y0319D03*
G54D27*
X04791Y02598D03*
X04891D03*
X04991D03*
M02*